<svg id="Layer_1" data-name="Layer 1" xmlns="http://www.w3.org/2000/svg" xmlns:xlink="http://www.w3.org/1999/xlink" viewBox="0 0 1070 480"><defs><style>.cls-1,.cls-3,.cls-5{fill:none;}.cls-2{clip-path:url(#clip-path);}.cls-3{stroke:#fff;}.cls-3,.cls-5{stroke-miterlimit:10;stroke-width:0.1px;}.cls-4{fill:#fff;}.cls-5{stroke:#000;}</style><clipPath id="clip-path"><rect class="cls-1" width="1070" height="480"/></clipPath></defs><title>Artboard 1</title><g class="cls-2"><g id="surface0"><path class="cls-3" d="M0,0H1070V480H0Z"/><path class="cls-4" d="M0,0H1070V480H0Z"/><path class="cls-5" d="M527,26.93c4.72-4.85,12.19-5.75,18.55-4.35A13.07,13.07,0,0,1,555.11,31c1.58,4.52,1.3,9.4.53,14,2.75-.39,5.58-.76,8.32-.07a15.4,15.4,0,0,1,12,16.14c-1.58,6.24-5.83,12.27-12.07,14.49-3.16,1.25-6.62,1-9.94.85A17.71,17.71,0,0,0,565,63.15a10.21,10.21,0,0,0-4.43-10.79c-3.33-2.22-7.43-2.49-11.28-3,.32-3.88,0-8.13-2.26-11.41-3.6-5.25-12.38-5.05-16.07,0-2.71,3.61-3.26,8.25-3.5,12.62-5-.9-10.43,1.59-12.19,6.51-2.83,7.57,1.58,15.55,7.53,20.18-4.84.37-10.09-.93-13.31-4.77-3.76-4.61-5.09-10.83-4.71-16.67a11.3,11.3,0,0,1,5.1-9c3.58-2.31,8-2.53,12.1-2.38C521.64,38.33,522.61,31.62,527,26.93Z"/><path d="M527,26.93c4.72-4.85,12.19-5.75,18.55-4.35A13.07,13.07,0,0,1,555.11,31c1.58,4.52,1.3,9.4.53,14,2.75-.39,5.58-.76,8.32-.07a15.4,15.4,0,0,1,12,16.14c-1.58,6.24-5.83,12.27-12.07,14.49-3.16,1.25-6.62,1-9.94.85A17.71,17.71,0,0,0,565,63.15a10.21,10.21,0,0,0-4.43-10.79c-3.33-2.22-7.43-2.49-11.28-3,.32-3.88,0-8.13-2.26-11.41-3.6-5.25-12.38-5.05-16.07,0-2.71,3.61-3.26,8.25-3.5,12.62-5-.9-10.43,1.59-12.19,6.51-2.83,7.57,1.58,15.55,7.53,20.18-4.84.37-10.09-.93-13.31-4.77-3.76-4.61-5.09-10.83-4.71-16.67a11.3,11.3,0,0,1,5.1-9c3.58-2.31,8-2.53,12.1-2.38C521.64,38.33,522.61,31.62,527,26.93Z"/><path class="cls-5" d="M528.28,64.13c-1.36-7.72,7.11-15.28,14.56-12.41,5.08,2.59,8.17,9.43,5.66,14.81-1.46,2.81-4.19,4.65-7,6-.41,6.84-1.44,14.9,3.55,20.43,4.92,4.88,12.39,5,18.87,5.07,5-.3,10.25,1,15-1,4.79-3.09,5.9-9.2,7.9-14.15-2.68-3-5.23-6.75-4.84-11,.65-5.52,5.33-10.54,11-11,7-.87,14.59,5.89,12.73,13.16-1.94,6.32-8.81,9.39-14.91,10.09.15,5.06-2.68,12.34,2.46,15.68,5,1.22,10.45,2.54,15.52,1,5.68-2.09,8.54-7.89,10.74-13.11-2.4-3.37-4.86-7.23-4.26-11.58.74-6.87,9.37-10.77,15.26-7.46,5.7,2.52,8.64,10.47,4.84,15.72-2.83,4.19-8.13,5.64-13,5.18-1.23,4.11-2.84,8.18-3.18,12.49.22,3.3,3.76,5,6.75,4.78,7.45-.17,13.67-5.77,17-12.09-.23-2.86-1.24-5.75-.44-8.61,1.73-7.48,12.27-10.59,18.1-5.87,4.33,3.92,4,11.47-.37,15.24-3,3-7.46,3.12-11.36,2.56-4.14,4.69-9.43,8.62-12.37,14.19.93,2.68,2.91,4.88,3.72,7.62.43,4.44-1.24,8.7-2.92,12.71-2.29,5-5.06,10-9,13.86-1.65,1.58-3.83,3.19-6.25,2.76-25.48-4.21-51.15-7.58-77-8.4a356.12,356.12,0,0,0-82.28,6.63c-5.26,1.13-10.13-2.32-13-6.45a40.52,40.52,0,0,1-7.31-21.9c-.3-3.59,2-7.58-.62-10.72-4-4.58-10-6.64-15-9.7-5.22,1.71-11.94,3.06-16.28-1.25-3.59-4.53-4.44-11.8-.55-16.41,4.23-5,12.88-5.07,17.17-.15,3.13,3.7,2.13,8.81,2.65,13.25,6.59,3.53,12.39,9.85,20.38,9.69,2.18-.13,2.46-2.92,2.7-4.61a30.43,30.43,0,0,0-2.51-13.45c-3.33-1.17-7.48-1.39-9.67-4.55-3.65-5.06-1.88-12.81,3.43-16,4.16-2.75,10.44-3.31,14.23.39s4.47,9.66,2.54,14.39c-1,2.3-3.46,3.22-5.34,4.61,1.22,5,2.65,10.66,7.15,13.78s10.36,1.73,15.48,1.3c2.95-.18,6.4-1.39,7.31-4.52,1.3-4.83.11-9.87-.81-14.65-3.24-1.2-7.4-1.73-9-5.23C472,68.15,477,58.45,485,57.73c5.83-.85,11.05,4.56,10.79,10.26.36,5-3.22,8.93-6.39,12.32,1.51,5.54,2.59,12.16,7.71,15.61,4.87,2.57,10.64,1.7,15.94,1.78,6.28-.31,13.73-.16,18.32-5.21,4.43-5.59,4.15-13.13,4.69-19.87C533,70.36,528.49,68.54,528.28,64.13Z"/><path d="M528.28,64.13c-1.36-7.72,7.11-15.28,14.56-12.41,5.08,2.59,8.17,9.43,5.66,14.81-1.46,2.81-4.19,4.65-7,6-.41,6.84-1.44,14.9,3.55,20.43,4.92,4.88,12.39,5,18.87,5.07,5-.3,10.25,1,15-1,4.79-3.09,5.9-9.2,7.9-14.15-2.68-3-5.23-6.75-4.84-11,.65-5.52,5.33-10.54,11-11,7-.87,14.59,5.89,12.73,13.16-1.94,6.32-8.81,9.39-14.91,10.09.15,5.06-2.68,12.34,2.46,15.68,5,1.22,10.45,2.54,15.52,1,5.68-2.09,8.54-7.89,10.74-13.11-2.4-3.37-4.86-7.23-4.26-11.58.74-6.87,9.37-10.77,15.26-7.46,5.7,2.52,8.64,10.47,4.84,15.72-2.83,4.19-8.13,5.64-13,5.18-1.23,4.11-2.84,8.18-3.18,12.49.22,3.3,3.76,5,6.75,4.78,7.45-.17,13.67-5.77,17-12.09-.23-2.86-1.24-5.75-.44-8.61,1.73-7.48,12.27-10.59,18.1-5.87,4.33,3.92,4,11.47-.37,15.24-3,3-7.46,3.12-11.36,2.56-4.14,4.69-9.43,8.62-12.37,14.19.93,2.68,2.91,4.88,3.72,7.62.43,4.44-1.24,8.7-2.92,12.71-2.29,5-5.06,10-9,13.86-1.65,1.58-3.83,3.19-6.25,2.76-25.48-4.21-51.15-7.58-77-8.4a356.12,356.12,0,0,0-82.28,6.63c-5.26,1.13-10.13-2.32-13-6.45a40.52,40.52,0,0,1-7.31-21.9c-.3-3.59,2-7.58-.62-10.72-4-4.58-10-6.64-15-9.7-5.22,1.71-11.94,3.06-16.28-1.25-3.59-4.53-4.44-11.8-.55-16.41,4.23-5,12.88-5.07,17.17-.15,3.13,3.7,2.13,8.81,2.65,13.25,6.59,3.53,12.39,9.85,20.38,9.69,2.18-.13,2.46-2.92,2.7-4.61a30.43,30.43,0,0,0-2.51-13.45c-3.33-1.17-7.48-1.39-9.67-4.55-3.65-5.06-1.88-12.81,3.43-16,4.16-2.75,10.44-3.31,14.23.39s4.47,9.66,2.54,14.39c-1,2.3-3.46,3.22-5.34,4.61,1.22,5,2.65,10.66,7.15,13.78s10.36,1.73,15.48,1.3c2.95-.18,6.4-1.39,7.31-4.52,1.3-4.83.11-9.87-.81-14.65-3.24-1.2-7.4-1.73-9-5.23C472,68.15,477,58.45,485,57.73c5.83-.85,11.05,4.56,10.79,10.26.36,5-3.22,8.93-6.39,12.32,1.51,5.54,2.59,12.16,7.71,15.61,4.87,2.57,10.64,1.7,15.94,1.78,6.28-.31,13.73-.16,18.32-5.21,4.43-5.59,4.15-13.13,4.69-19.87C533,70.36,528.49,68.54,528.28,64.13Z"/><path class="cls-5" d="M397.12,67.13c1.12-4.31,5-8,9.62-7.82,7.92.44,14.28,6,19.69,11.3-6-1.59-12.95-3.22-18.64.29-6.13,3.83-7.47,11.8-7.17,18.48C397.27,82.6,395.08,74.64,397.12,67.13Z"/><path d="M397.12,67.13c1.12-4.31,5-8,9.62-7.82,7.92.44,14.28,6,19.69,11.3-6-1.59-12.95-3.22-18.64.29-6.13,3.83-7.47,11.8-7.17,18.48C397.27,82.6,395.08,74.64,397.12,67.13Z"/><path class="cls-5" d="M652.61,61.55c6.15-3.67,15-2.2,19.14,3.84,4,5.79,2.83,13.41.59,19.64-2.68-5.93-6.57-12.06-13.05-14.26-5-1.9-10.38-.17-15,1.94C645.74,68.23,648.35,63.86,652.61,61.55Z"/><path d="M652.61,61.55c6.15-3.67,15-2.2,19.14,3.84,4,5.79,2.83,13.41.59,19.64-2.68-5.93-6.57-12.06-13.05-14.26-5-1.9-10.38-.17-15,1.94C645.74,68.23,648.35,63.86,652.61,61.55Z"/><path class="cls-3" d="M496.61,103.83a609.74,609.74,0,0,1,73.55.49c13.73,1,27.48,2.51,40.89,5.75,6.22,1.62,12.54,3.47,18,7,1.69,1.14,3.72,2.53,3.7,4.83,0,6.51-3.29,12.6-7.28,17.57-1.63,1.81-3.72,4-6.36,3.73-21.07-3-42-6.9-63.22-9-23.17-2.39-46.38.87-69.44,3-8.79.82-17.57,1.86-26.36,2.53-3.61-.69-5.69-4.25-7.35-7.21-3-6.09-4.84-13.82-1.29-20,1.82-3.59,6.25-4,9.71-4.87C472.84,105.31,484.76,104.61,496.61,103.83Z"/><path class="cls-4" d="M496.61,103.83a609.74,609.74,0,0,1,73.55.49c13.73,1,27.48,2.51,40.89,5.75,6.22,1.62,12.54,3.47,18,7,1.69,1.14,3.72,2.53,3.7,4.83,0,6.51-3.29,12.6-7.28,17.57-1.63,1.81-3.72,4-6.36,3.73-21.07-3-42-6.9-63.22-9-23.17-2.39-46.38.87-69.44,3-8.79.82-17.57,1.86-26.36,2.53-3.61-.69-5.69-4.25-7.35-7.21-3-6.09-4.84-13.82-1.29-20,1.82-3.59,6.25-4,9.71-4.87C472.84,105.31,484.76,104.61,496.61,103.83Z"/><path class="cls-5" d="M529.27,112.09c8-2.75,16.66-1.42,24.81-.2,3.53.19,3.91,4.35,3.95,7.08s-.7,6.48-3.86,7.2c-6.45,1.61-13.24,1.16-19.75.19-2.37-.43-5.28-1.2-6.1-3.77C526.91,119.13,528.28,115.45,529.27,112.09Z"/><path d="M529.27,112.09c8-2.75,16.66-1.42,24.81-.2,3.53.19,3.91,4.35,3.95,7.08s-.7,6.48-3.86,7.2c-6.45,1.61-13.24,1.16-19.75.19-2.37-.43-5.28-1.2-6.1-3.77C526.91,119.13,528.28,115.45,529.27,112.09Z"/><path class="cls-5" d="M502.07,112.11c4.81-.52,9.86-1.13,14.57.31,3.13,1.73,2.25,5.87,1.33,8.66-.94,3.37-4.91,4-7.83,4.57-5.34.67-10.83,1.38-16.16.42-2.1-1.68-2-4.8-1.89-7.23C491.91,113.69,498.21,112.79,502.07,112.11Z"/><path d="M502.07,112.11c4.81-.52,9.86-1.13,14.57.31,3.13,1.73,2.25,5.87,1.33,8.66-.94,3.37-4.91,4-7.83,4.57-5.34.67-10.83,1.38-16.16.42-2.1-1.68-2-4.8-1.89-7.23C491.91,113.69,498.21,112.79,502.07,112.11Z"/><path class="cls-5" d="M569.36,114.5c6.75-1.84,14-1,20.64,1,3.34.75,3.44,4.85,3.07,7.57-.29,2-.59,5-3.12,5.33a48.08,48.08,0,0,1-20.4-.77C563.11,126.69,564.18,116.26,569.36,114.5Z"/><path d="M569.36,114.5c6.75-1.84,14-1,20.64,1,3.34.75,3.44,4.85,3.07,7.57-.29,2-.59,5-3.12,5.33a48.08,48.08,0,0,1-20.4-.77C563.11,126.69,564.18,116.26,569.36,114.5Z"/><path class="cls-5" d="M465.51,116.67c5.66-.94,11.63-1.93,17.27-.56,2.93,2.45,3.32,8.21-.26,10.31a36.78,36.78,0,0,1-12.41,4.12c-3.29.42-7.13.65-9.75-1.79-2.83-2.25-2.89-6.56-1.07-9.46C461,117.69,463.33,117.19,465.51,116.67Z"/><path d="M465.51,116.67c5.66-.94,11.63-1.93,17.27-.56,2.93,2.45,3.32,8.21-.26,10.31a36.78,36.78,0,0,1-12.41,4.12c-3.29.42-7.13.65-9.75-1.79-2.83-2.25-2.89-6.56-1.07-9.46C461,117.69,463.33,117.19,465.51,116.67Z"/><path class="cls-5" d="M602.59,119.74c5.25-1.67,11.09-.38,16.13,1.53,5.08,1.68,5.2,10.17,1.17,12.9-6.2.27-12.73-.16-18.46-2.7C597.91,128.48,599.82,122.6,602.59,119.74Z"/><path d="M602.59,119.74c5.25-1.67,11.09-.38,16.13,1.53,5.08,1.68,5.2,10.17,1.17,12.9-6.2.27-12.73-.16-18.46-2.7C597.91,128.48,599.82,122.6,602.59,119.74Z"/><path class="cls-5" d="M171.34,155.91c.75-3.84,3.71-7.7,7.77-8.23,2.37.15,1.85,2.81,1.48,4.41-1.68,6.55.43,13.54,4.32,18.89a56,56,0,0,0,16.14,14c10.22,6.25,21.52,10.42,32.9,14-10,4.66-18.56,11.88-26.39,19.57C182,244.83,163,277.33,134.06,300.3,117.71,313.48,97.23,322.27,76,322c-12.65.42-26.22-3.15-35-12.68-7.74-8.07-10.88-19.78-9.41-30.74-5.65-4.33-10.45-10.43-11.63-17.6-.67-3.58,1.62-9,6.06-7.64,4.23,4.21,2.32,11.71,7.39,15.59A47.54,47.54,0,0,1,36.47,262c1.08,1.33,2.15,2.67,3.2,4-1,11.49-1.94,24.07,3.9,34.52,4.56,7.9,14,10.9,22.39,12.47,15.29,2.76,30.74-3.21,43-12.16,12.57-9.05,22.54-21.08,32-33.19,21.64-26.37,47-50.05,76.22-67.79-18.62-5.33-35.3-15.38-52.25-24.44-11.89-6.11-25.1-12.25-38.81-9.89-12,2.32-23.85,8.27-31.1,18.39s-9.4,23.32-7.65,35.53c2.88,0,6-.08,8.5,1.6,4.68,2.78,5.5,9.9,2.13,14-4.87,5.19-15.47,3-17.16-4.15-1-3.07.62-6.11,2-8.79C78.89,202.89,84,181,99.33,168c-5.53-2.18-11.43,2.33-16.86-.47-2.13-.87-2.32-3.68-1.1-5.39,1.71-2.4,4.71-3.48,7.54-3.79,4.87-.74,9.29,2.27,14.15,1.93,5.67-.23,11.55-.35,16.84-2.66,8.3-3.1,17.47-2.85,26-1.06a93.42,93.42,0,0,1,28.55,11.39C173.7,163.84,170.47,160.26,171.34,155.91Z"/><path d="M171.34,155.91c.75-3.84,3.71-7.7,7.77-8.23,2.37.15,1.85,2.81,1.48,4.41-1.68,6.55.43,13.54,4.32,18.89a56,56,0,0,0,16.14,14c10.22,6.25,21.52,10.42,32.9,14-10,4.66-18.56,11.88-26.39,19.57C182,244.83,163,277.33,134.06,300.3,117.71,313.48,97.23,322.27,76,322c-12.65.42-26.22-3.15-35-12.68-7.74-8.07-10.88-19.78-9.41-30.74-5.65-4.33-10.45-10.43-11.63-17.6-.67-3.58,1.62-9,6.06-7.64,4.23,4.21,2.32,11.71,7.39,15.59A47.54,47.54,0,0,1,36.47,262c1.08,1.33,2.15,2.67,3.2,4-1,11.49-1.94,24.07,3.9,34.52,4.56,7.9,14,10.9,22.39,12.47,15.29,2.76,30.74-3.21,43-12.16,12.57-9.05,22.54-21.08,32-33.19,21.64-26.37,47-50.05,76.22-67.79-18.62-5.33-35.3-15.38-52.25-24.44-11.89-6.11-25.1-12.25-38.81-9.89-12,2.32-23.85,8.27-31.1,18.39s-9.4,23.32-7.65,35.53c2.88,0,6-.08,8.5,1.6,4.68,2.78,5.5,9.9,2.13,14-4.87,5.19-15.47,3-17.16-4.15-1-3.07.62-6.11,2-8.79C78.89,202.89,84,181,99.33,168c-5.53-2.18-11.43,2.33-16.86-.47-2.13-.87-2.32-3.68-1.1-5.39,1.71-2.4,4.71-3.48,7.54-3.79,4.87-.74,9.29,2.27,14.15,1.93,5.67-.23,11.55-.35,16.84-2.66,8.3-3.1,17.47-2.85,26-1.06a93.42,93.42,0,0,1,28.55,11.39C173.7,163.84,170.47,160.26,171.34,155.91Z"/><path class="cls-5" d="M909.12,154.12c1.13-2.65,2.68-5.86,5.86-6.36,2-.54,3.37,1.58,3.72,3.28.48,3.85-.82,7.59-1.72,11.27,12.35-3.39,25.67-4.29,38.1-.79,9.41,3.3,18.83,7.6,29,7.73,3.87.16,7.05-3.19,10.93-2.38,2.73,2.3.88,6.94-2,8.34-5.2,2.52-11.16,2.12-16.75,2.86,7.88,14.19,10,32.48,1.86,47,3.66,7.09-1.8,17.39-10.15,16.91-5.2.26-10.16-4.86-8.51-10.12,1.09-6.63,8.5-9.67,14.58-8.94,9.89-17.24,1.78-41.25-15.46-50.39-10-5.2-21.93-4.95-32.51-1.79-19.36,5.63-37.28,15.1-55.53,23.49-6,2.66-11.9,5.6-18.29,7.15,15.08,8.76,28.42,20.17,41.37,31.76a622,622,0,0,1,55.18,58c4.34,5,8.2,10.47,13.47,14.56,9,7.53,20.79,12.13,32.64,11.47a41,41,0,0,0,28.81-14.67,38.28,38.28,0,0,0,7.81-32.66q1.5-1.92,3.09-3.77a20.08,20.08,0,0,1,3.06,9.29,17.2,17.2,0,0,0,5.87-5.91c1.43-2.42,4.26-4.85,7.23-3.38,2.24,2.25,1.85,6.23.17,8.71-3.43,3.86-8.35,5.94-13.13,7.58-.23,14.73-10,27.89-22.74,34.65-20,10.42-45.38,8.22-64.25-3.67-13.69-9-25.39-20.7-36-33.11-25.07-29.15-51.82-57.06-82.19-80.77,16.77.5,32.84-6.21,46.66-15.26C891.23,176.69,904.11,168,909.12,154.12Z"/><path d="M909.12,154.12c1.13-2.65,2.68-5.86,5.86-6.36,2-.54,3.37,1.58,3.72,3.28.48,3.85-.82,7.59-1.72,11.27,12.35-3.39,25.67-4.29,38.1-.79,9.41,3.3,18.83,7.6,29,7.73,3.87.16,7.05-3.19,10.93-2.38,2.73,2.3.88,6.94-2,8.34-5.2,2.52-11.16,2.12-16.75,2.86,7.88,14.19,10,32.48,1.86,47,3.66,7.09-1.8,17.39-10.15,16.91-5.2.26-10.16-4.86-8.51-10.12,1.09-6.63,8.5-9.67,14.58-8.94,9.89-17.24,1.78-41.25-15.46-50.39-10-5.2-21.93-4.95-32.51-1.79-19.36,5.63-37.28,15.1-55.53,23.49-6,2.66-11.9,5.6-18.29,7.15,15.08,8.76,28.42,20.17,41.37,31.76a622,622,0,0,1,55.18,58c4.34,5,8.2,10.47,13.47,14.56,9,7.53,20.79,12.13,32.64,11.47a41,41,0,0,0,28.81-14.67,38.28,38.28,0,0,0,7.81-32.66q1.5-1.92,3.09-3.77a20.08,20.08,0,0,1,3.06,9.29,17.2,17.2,0,0,0,5.87-5.91c1.43-2.42,4.26-4.85,7.23-3.38,2.24,2.25,1.85,6.23.17,8.71-3.43,3.86-8.35,5.94-13.13,7.58-.23,14.73-10,27.89-22.74,34.65-20,10.42-45.38,8.22-64.25-3.67-13.69-9-25.39-20.7-36-33.11-25.07-29.15-51.82-57.06-82.19-80.77,16.77.5,32.84-6.21,46.66-15.26C891.23,176.69,904.11,168,909.12,154.12Z"/><path class="cls-5" d="M518,158c.74-3.86,3.85-7.7,8-8,2.44.45,1.33,3.38,1.13,5-2.24,9.78,3.76,19,10.79,25.26-3.36,2.11-6.76,4.16-10.12,6.26-15.49-8-30.76-18.59-48.76-19.22-13.5.56-27.06,6.57-35.87,17-3.57,4.23-5.91,9.34-7.78,14.52-2-.17-3.93-.25-5.89-.33A53.93,53.93,0,0,1,446,170.06c-5.63-1.74-11.46,2.38-16.92-.23-2.27-.91-2.43-4-1-5.7,1.9-2.41,5-3.4,8-3.6,4.43-.39,8.47,2.14,12.89,2,5.72-.17,11.68-.21,17-2.49,10.95-4.2,23.17-2.61,34.12.78A109.26,109.26,0,0,1,521,170.08C520.25,166,516.85,162.36,518,158Z"/><path d="M518,158c.74-3.86,3.85-7.7,8-8,2.44.45,1.33,3.38,1.13,5-2.24,9.78,3.76,19,10.79,25.26-3.36,2.11-6.76,4.16-10.12,6.26-15.49-8-30.76-18.59-48.76-19.22-13.5.56-27.06,6.57-35.87,17-3.57,4.23-5.91,9.34-7.78,14.52-2-.17-3.93-.25-5.89-.33A53.93,53.93,0,0,1,446,170.06c-5.63-1.74-11.46,2.38-16.92-.23-2.27-.91-2.43-4-1-5.7,1.9-2.41,5-3.4,8-3.6,4.43-.39,8.47,2.14,12.89,2,5.72-.17,11.68-.21,17-2.49,10.95-4.2,23.17-2.61,34.12.78A109.26,109.26,0,0,1,521,170.08C520.25,166,516.85,162.36,518,158Z"/><path class="cls-5" d="M563.42,157.47c1.1-2.57,2.64-5.59,5.66-6.19,1.84-.59,3.3,1.14,3.75,2.73.74,4-.65,8-1.63,11.77a75.09,75.09,0,0,1,34.68-1.68c7,1.52,13.29,5.13,20.27,6.7,5.63,1.37,11.82,3.2,17.4.64,1.92-.7,4.71-2.3,6.37-.34,1.75,2.84-.31,6.67-3.17,7.85-5.1,2.24-10.83,1.89-16.24,2.62,7.86,14.19,10,32.51,1.82,47,3.76,7.07-1.87,17.52-10.25,16.92-5.36.2-10.1-5.22-8.32-10.51,1.39-6.47,8.57-9.19,14.56-8.7,10.88-19-.27-46.32-21.16-52.57-9.9-3.19-20.58-1.66-30.27,1.52-18.5,6-35.78,15-53.39,23.08-5.54,2.48-11.07,5.1-17,6.53,11.21,6.51,21.43,14.6,31.3,23l-3.83,3.5c-10.16-8.38-20.42-16.83-32-23.24,7.43,6.31,14.79,12.71,21.91,19.37q-2.28,1.74-4.53,3.5c-10.48-9.75-21.3-19.14-32.55-28,16.6.48,32.54-6.06,46.24-15C545.23,180.36,558.36,171.6,563.42,157.47Z"/><path d="M563.42,157.47c1.1-2.57,2.64-5.59,5.66-6.19,1.84-.59,3.3,1.14,3.75,2.73.74,4-.65,8-1.63,11.77a75.09,75.09,0,0,1,34.68-1.68c7,1.52,13.29,5.13,20.27,6.7,5.63,1.37,11.82,3.2,17.4.64,1.92-.7,4.71-2.3,6.37-.34,1.75,2.84-.31,6.67-3.17,7.85-5.1,2.24-10.83,1.89-16.24,2.62,7.86,14.19,10,32.51,1.82,47,3.76,7.07-1.87,17.52-10.25,16.92-5.36.2-10.1-5.22-8.32-10.51,1.39-6.47,8.57-9.19,14.56-8.7,10.88-19-.27-46.32-21.16-52.57-9.9-3.19-20.58-1.66-30.27,1.52-18.5,6-35.78,15-53.39,23.08-5.54,2.48-11.07,5.1-17,6.53,11.21,6.51,21.43,14.6,31.3,23l-3.83,3.5c-10.16-8.38-20.42-16.83-32-23.24,7.43,6.31,14.79,12.71,21.91,19.37q-2.28,1.74-4.53,3.5c-10.48-9.75-21.3-19.14-32.55-28,16.6.48,32.54-6.06,46.24-15C545.23,180.36,558.36,171.6,563.42,157.47Z"/><path class="cls-5" d="M736.92,189c2.73-2.15,6.68-1.85,9.72-.53a32.12,32.12,0,0,1,12.57,10.21c16.53-2.18,33.47,2.8,47,12.27,12.53,8.67,22.23,20.81,30,33.81,20.09,31.4,42.94,61.3,70.14,86.9,12.57,11.69,26.16,22.44,41.3,30.62,10.43,5.46,21.58,10.17,33.39,11.42,14.82,0,29.38-10,34.37-24,2.55-9.49,2.16-19.52,1.08-29.2,1.79-1,3.6-1.95,5.42-2.91a103.41,103.41,0,0,1,.21,28.17c5.05-3.49,9.32-8.09,14.8-10.94,2.55-1.29,6.75-2.35,8.35.87,1.7,4.38-1.91,9-5.81,10.72-6.56,2.57-13.29,4.7-19.8,7.42-5.92,12.32-17.32,22-30.7,25.22-13.66,3.4-28,.74-41-4.11-29.33-11.25-55.41-30.18-76.42-53.42-8.11-8.89-15.52-18.38-22.94-27.84C839,279.9,831.17,265.06,822,251.08c-8.94-13.72-18.59-27.38-31.46-37.71-7.93-6.27-18.38-10.93-28.6-8.28-9.46,2.47-17.43,9.07-23,16.95s-8.72,18.35-5.9,28c2.24,8.47,9.35,15.71,18.09,17.24,5.14,1,11.18-.65,14.14-5.21,2-2.87,2.32-6.48,2.35-9.88-2.61,2.93-6.41,5.28-10.48,4.2-6.38-1.45-7.86-10.48-3.72-14.91,3.64-4.29,11.33-4,14.4.86,4.92,7.32,4.18,18.16-1.84,24.66-5.33,5.51-14,5.7-20.83,3.36-7.36-2.41-13.08-8.45-16.15-15.44-4-8.95-4.87-19.61-1-28.74,4.34-10.36,13.24-18.19,23.07-23.24-4.7-1.56-9.76-3-13.37-6.61C735.87,194.47,734.6,190.91,736.92,189Z"/><path d="M736.92,189c2.73-2.15,6.68-1.85,9.72-.53a32.12,32.12,0,0,1,12.57,10.21c16.53-2.18,33.47,2.8,47,12.27,12.53,8.67,22.23,20.81,30,33.81,20.09,31.4,42.94,61.3,70.14,86.9,12.57,11.69,26.16,22.44,41.3,30.62,10.43,5.46,21.58,10.17,33.39,11.42,14.82,0,29.38-10,34.37-24,2.55-9.49,2.16-19.52,1.08-29.2,1.79-1,3.6-1.95,5.42-2.91a103.41,103.41,0,0,1,.21,28.17c5.05-3.49,9.32-8.09,14.8-10.94,2.55-1.29,6.75-2.35,8.35.87,1.7,4.38-1.91,9-5.81,10.72-6.56,2.57-13.29,4.7-19.8,7.42-5.92,12.32-17.32,22-30.7,25.22-13.66,3.4-28,.74-41-4.11-29.33-11.25-55.41-30.18-76.42-53.42-8.11-8.89-15.52-18.38-22.94-27.84C839,279.9,831.17,265.06,822,251.08c-8.94-13.72-18.59-27.38-31.46-37.71-7.93-6.27-18.38-10.93-28.6-8.28-9.46,2.47-17.43,9.07-23,16.95s-8.72,18.35-5.9,28c2.24,8.47,9.35,15.71,18.09,17.24,5.14,1,11.18-.65,14.14-5.21,2-2.87,2.32-6.48,2.35-9.88-2.61,2.93-6.41,5.28-10.48,4.2-6.38-1.45-7.86-10.48-3.72-14.91,3.64-4.29,11.33-4,14.4.86,4.92,7.32,4.18,18.16-1.84,24.66-5.33,5.51-14,5.7-20.83,3.36-7.36-2.41-13.08-8.45-16.15-15.44-4-8.95-4.87-19.61-1-28.74,4.34-10.36,13.24-18.19,23.07-23.24-4.7-1.56-9.76-3-13.37-6.61C735.87,194.47,734.6,190.91,736.92,189Z"/><path class="cls-5" d="M543.25,194.44a53.11,53.11,0,0,1,7.59-5.29c9.4,5.37,19.68,8.88,29.9,12.28a4.82,4.82,0,0,1-1.56.54c-15.82,7.84-28,21.15-39.2,34.45-1.37-1.23-2.76-2.44-4.15-3.64,2.56-3.34,5.24-6.59,7.86-9.89a46.7,46.7,0,0,0-4.88,3.74c-1.4-1.36-2.78-2.73-4.17-4.09a238.68,238.68,0,0,1,29-20.37A164.36,164.36,0,0,1,543.25,194.44Z"/><path d="M543.25,194.44a53.11,53.11,0,0,1,7.59-5.29c9.4,5.37,19.68,8.88,29.9,12.28a4.82,4.82,0,0,1-1.56.54c-15.82,7.84-28,21.15-39.2,34.45-1.37-1.23-2.76-2.44-4.15-3.64,2.56-3.34,5.24-6.59,7.86-9.89a46.7,46.7,0,0,0-4.88,3.74c-1.4-1.36-2.78-2.73-4.17-4.09a238.68,238.68,0,0,1,29-20.37A164.36,164.36,0,0,1,543.25,194.44Z"/><path class="cls-5" d="M391.37,192.31c2.59-1.88,6.22-1.62,9.09-.53a30.91,30.91,0,0,1,13,10.37,66.5,66.5,0,0,1,41,8.48c13.09,7.34,23.66,18.56,31.87,31,5,7.78,9.84,15.6,15.1,23.17-1.31,1.26-2.62,2.5-3.95,3.72-12.38-19.47-24.94-40.14-44.74-52.94a199.64,199.64,0,0,1,35.38,47.1c-1.22,1.63-2.42,3.27-3.62,4.92-10.57-17-21.25-34.29-36.18-47.84-7.28-6.45-16.26-11.93-26.28-12-9.34.25-17.74,5.52-24.13,12-6.45,6.82-11.33,15.67-11.62,25.22-.34,8.77,3.74,17.92,11.32,22.63,5.7,3.73,13.89,4.93,19.55.51,3.8-2.9,4.85-7.93,4.78-12.45-2.61,2.52-5.88,5.1-9.78,4.24-7-.79-8.9-10.71-4.26-15.22,3.73-4.15,11.29-3.63,14.27,1.17,5.88,8.76,3.52,23.17-6.54,27.8-9.32,3.74-20.57.27-27.08-7.13-9.15-10.62-11.61-27-5-39.51,4.67-9.12,12.89-15.94,21.81-20.71-4.83-1.57-10.09-3.06-13.62-6.94C389.82,197.59,389,194,391.37,192.31Z"/><path d="M391.37,192.31c2.59-1.88,6.22-1.62,9.09-.53a30.91,30.91,0,0,1,13,10.37,66.5,66.5,0,0,1,41,8.48c13.09,7.34,23.66,18.56,31.87,31,5,7.78,9.84,15.6,15.1,23.17-1.31,1.26-2.62,2.5-3.95,3.72-12.38-19.47-24.94-40.14-44.74-52.94a199.64,199.64,0,0,1,35.38,47.1c-1.22,1.63-2.42,3.27-3.62,4.92-10.57-17-21.25-34.29-36.18-47.84-7.28-6.45-16.26-11.93-26.28-12-9.34.25-17.74,5.52-24.13,12-6.45,6.82-11.33,15.67-11.62,25.22-.34,8.77,3.74,17.92,11.32,22.63,5.7,3.73,13.89,4.93,19.55.51,3.8-2.9,4.85-7.93,4.78-12.45-2.61,2.52-5.88,5.1-9.78,4.24-7-.79-8.9-10.71-4.26-15.22,3.73-4.15,11.29-3.63,14.27,1.17,5.88,8.76,3.52,23.17-6.54,27.8-9.32,3.74-20.57.27-27.08-7.13-9.15-10.62-11.61-27-5-39.51,4.67-9.12,12.89-15.94,21.81-20.71-4.83-1.57-10.09-3.06-13.62-6.94C389.82,197.59,389,194,391.37,192.31Z"/><path class="cls-5" d="M319,200a22.63,22.63,0,0,1,19-5.13c2.34.56,5.4,1.42,6,4.14-.37,2.47-2.93,3.32-5,4-4.45,1.27-9.12,1.25-13.71,1.51,10.53,8.08,18.46,20.14,19.85,33.52,1.12,9.18-1,19-6.75,26.39-4.82,6.13-13.37,9.69-21,7.1-10.39-3.74-14.7-18.4-7.81-27.1,3.94-5.29,12.72-8.18,17.84-2.92,5.36,5.12-.35,14.85-7.3,14-4.13.17-7.15-2.95-8.82-6.37-.76,3-1.82,6.25-.77,9.37,1.67,6.09,8.07,10.67,14.43,9.64,5.42-1,9.61-5.32,12.11-10,3.84-8.14,3.58-17.62,1.45-26.19A40.56,40.56,0,0,0,317,207c-14.41-7-32.81-5.42-45.4,4.67-5.16,3.9-8.8,9.34-12.69,14.43-11.44,15.15-21.45,31.31-31.21,47.58-11.47,19.2-22.75,38.69-37.25,55.82a165.8,165.8,0,0,1-37.78,33.21C135.76,373,115,376.09,95.58,373.22c-11.68-1.79-23.4-5.65-32.76-13.07A30.94,30.94,0,0,1,52.52,346c-.63-2.46-3.54-2.83-5.6-3.48-4.91-1-10.14-3-13.13-7.19-1.94-3,.85-6.84,4.18-6.62,5-.07,7.41,5.38,11.92,6.8A81.64,81.64,0,0,1,49.34,320c1.76.71,3.51,1.45,5.26,2.17-1.22,11.66,2.31,24.22,11.35,32.08,12.7,11.13,31.13,13.33,47.15,9.68,9.91-2,18.85-7,27.17-12.63a176.9,176.9,0,0,0,35.93-32c14.47-16.67,26.17-35.48,37.67-54.26,9.38-15.06,18.61-30.41,30.71-43.5,10.66-11.78,24.59-21,40.31-24.2C296.2,194.4,308.11,196,319,200Z"/><path d="M319,200a22.63,22.63,0,0,1,19-5.13c2.34.56,5.4,1.42,6,4.14-.37,2.47-2.93,3.32-5,4-4.45,1.27-9.12,1.25-13.71,1.51,10.53,8.08,18.46,20.14,19.85,33.52,1.12,9.18-1,19-6.75,26.39-4.82,6.13-13.37,9.69-21,7.1-10.39-3.74-14.7-18.4-7.81-27.1,3.94-5.29,12.72-8.18,17.84-2.92,5.36,5.12-.35,14.85-7.3,14-4.13.17-7.15-2.95-8.82-6.37-.76,3-1.82,6.25-.77,9.37,1.67,6.09,8.07,10.67,14.43,9.64,5.42-1,9.61-5.32,12.11-10,3.84-8.14,3.58-17.62,1.45-26.19A40.56,40.56,0,0,0,317,207c-14.41-7-32.81-5.42-45.4,4.67-5.16,3.9-8.8,9.34-12.69,14.43-11.44,15.15-21.45,31.31-31.21,47.58-11.47,19.2-22.75,38.69-37.25,55.82a165.8,165.8,0,0,1-37.78,33.21C135.76,373,115,376.09,95.58,373.22c-11.68-1.79-23.4-5.65-32.76-13.07A30.94,30.94,0,0,1,52.52,346c-.63-2.46-3.54-2.83-5.6-3.48-4.91-1-10.14-3-13.13-7.19-1.94-3,.85-6.84,4.18-6.62,5-.07,7.41,5.38,11.92,6.8A81.64,81.64,0,0,1,49.34,320c1.76.71,3.51,1.45,5.26,2.17-1.22,11.66,2.31,24.22,11.35,32.08,12.7,11.13,31.13,13.33,47.15,9.68,9.91-2,18.85-7,27.17-12.63a176.9,176.9,0,0,0,35.93-32c14.47-16.67,26.17-35.48,37.67-54.26,9.38-15.06,18.61-30.41,30.71-43.5,10.66-11.78,24.59-21,40.31-24.2C296.2,194.4,308.11,196,319,200Z"/><path class="cls-5" d="M665.47,202.26a22.83,22.83,0,0,1,20-4.89c2.14.67,5,1.72,5,4.43-.62,1.94-2.63,2.68-4.35,3.29-4.6,1.47-9.48,1.44-14.24,1.7,9.26,7.35,16.65,17.51,19.07,29.23,2.35,10.44.63,22.15-6,30.72-5.85,7.64-17.75,10.7-26,5.21-7.76-6.24-7.87-18.57-2.56-26.41,3-4.45,9.43-6.62,14.4-4.36,5.29,2.94,4.92,11.73-.57,14.25-4.3,2.3-8.92-.18-12.46-2.71-.62,2.71-1.48,5.52-.67,8.29,1.3,6.48,8.4,11.17,14.87,9.46,4.83-1.4,8.27-5.5,10.48-9.83A38.2,38.2,0,0,0,684.64,234a38.66,38.66,0,0,0-20.48-24.39A45.64,45.64,0,0,0,642.51,205c-.41-2.25-.83-4.49-1.24-6.73C649.53,197.64,657.71,199.57,665.47,202.26Z"/><path d="M665.47,202.26a22.83,22.83,0,0,1,20-4.89c2.14.67,5,1.72,5,4.43-.62,1.94-2.63,2.68-4.35,3.29-4.6,1.47-9.48,1.44-14.24,1.7,9.26,7.35,16.65,17.51,19.07,29.23,2.35,10.44.63,22.15-6,30.72-5.85,7.64-17.75,10.7-26,5.21-7.76-6.24-7.87-18.57-2.56-26.41,3-4.45,9.43-6.62,14.4-4.36,5.29,2.94,4.92,11.73-.57,14.25-4.3,2.3-8.92-.18-12.46-2.71-.62,2.71-1.48,5.52-.67,8.29,1.3,6.48,8.4,11.17,14.87,9.46,4.83-1.4,8.27-5.5,10.48-9.83A38.2,38.2,0,0,0,684.64,234a38.66,38.66,0,0,0-20.48-24.39A45.64,45.64,0,0,0,642.51,205c-.41-2.25-.83-4.49-1.24-6.73C649.53,197.64,657.71,199.57,665.47,202.26Z"/><path class="cls-5" d="M601.86,214a70.53,70.53,0,0,1,25.42-13.41q.88,3.59,1.8,7.17A41.51,41.51,0,0,0,612,220c-13.47,16.63-24.82,34.83-35.86,53.13-1.21-1.33-2.42-2.63-3.65-3.92C583,252.72,593.67,236.3,604,219.64c-6.25,5.33-11.18,12-16.16,18.42-4.59,6.23-9.12,12.5-13.25,19q-2.51-2.31-4.84-4.79C579,238.44,588.76,224.54,601.86,214Z"/><path d="M601.86,214a70.53,70.53,0,0,1,25.42-13.41q.88,3.59,1.8,7.17A41.51,41.51,0,0,0,612,220c-13.47,16.63-24.82,34.83-35.86,53.13-1.21-1.33-2.42-2.63-3.65-3.92C583,252.72,593.67,236.3,604,219.64c-6.25,5.33-11.18,12-16.16,18.42-4.59,6.23-9.12,12.5-13.25,19q-2.51-2.31-4.84-4.79C579,238.44,588.76,224.54,601.86,214Z"/><path class="cls-3" d="M848.3,205c16.23,9.39,30.53,21.78,44.34,34.38,13.47,13.23,26.26,27.15,38.94,41.16,6.92,7.38,12.67,15.87,20.53,22.36a86,86,0,0,0,25,15.6c-17.69-2.13-32.12-14.27-43.27-27.38A728.46,728.46,0,0,0,848.3,205Z"/><path class="cls-4" d="M848.3,205c16.23,9.39,30.53,21.78,44.34,34.38,13.47,13.23,26.26,27.15,38.94,41.16,6.92,7.38,12.67,15.87,20.53,22.36a86,86,0,0,0,25,15.6c-17.69-2.13-32.12-14.27-43.27-27.38A728.46,728.46,0,0,0,848.3,205Z"/><path class="cls-5" d="M428.24,210.72c1.65.4,3.3.81,4.95,1.25a78.94,78.94,0,0,0,.79,9.83c2.95-.14,6.15-.06,8.67,1.73,5.43,3.4,5.27,13.14-.8,15.78-5.3,2.44-13.18-.09-14.54-6.18-.93-3.2.95-6.07,1.88-9A83.73,83.73,0,0,1,428.24,210.72Z"/><path d="M428.24,210.72c1.65.4,3.3.81,4.95,1.25a78.94,78.94,0,0,0,.79,9.83c2.95-.14,6.15-.06,8.67,1.73,5.43,3.4,5.27,13.14-.8,15.78-5.3,2.44-13.18-.09-14.54-6.18-.93-3.2.95-6.07,1.88-9A83.73,83.73,0,0,1,428.24,210.72Z"/><path class="cls-3" d="M797.88,211.68c12.39,7.82,22.09,19.15,30.57,30.94,13.81,19.36,24.68,40.71,39.62,59.28,9.4,11.2,18.61,22.68,29.78,32.2,13.94,12,29.4,22,44.82,32-11.85-4.65-22.71-11.52-33.12-18.76-31-21.58-54.45-52.16-73.46-84.41C825.65,244.3,813.54,226.33,797.88,211.68Z"/><path class="cls-4" d="M797.88,211.68c12.39,7.82,22.09,19.15,30.57,30.94,13.81,19.36,24.68,40.71,39.62,59.28,9.4,11.2,18.61,22.68,29.78,32.2,13.94,12,29.4,22,44.82,32-11.85-4.65-22.71-11.52-33.12-18.76-31-21.58-54.45-52.16-73.46-84.41C825.65,244.3,813.54,226.33,797.88,211.68Z"/><path class="cls-3" d="M244.88,231a87.82,87.82,0,0,1,12.43-13.42c-17.78,28.37-35.92,56.53-54.11,84.66a208,208,0,0,1-36.82,42.07c-12.45,10.43-26.66,19.57-42.72,23,23.64-10,43.15-27.62,59.75-46.85a238.17,238.17,0,0,0,17.28-22.73C214.88,275.12,228.52,252.09,244.88,231Z"/><path class="cls-4" d="M244.88,231a87.82,87.82,0,0,1,12.43-13.42c-17.78,28.37-35.92,56.53-54.11,84.66a208,208,0,0,1-36.82,42.07c-12.45,10.43-26.66,19.57-42.72,23,23.64-10,43.15-27.62,59.75-46.85a238.17,238.17,0,0,0,17.28-22.73C214.88,275.12,228.52,252.09,244.88,231Z"/><path class="cls-3" d="M178.17,238.2c6.19-6,11.86-12.54,18.81-17.66-8.58,11.43-18,22.21-27.26,33.07-11.56,13.46-24.44,25.68-37.58,37.57a199.86,199.86,0,0,1-19.34,15.63c-2.78,1.83-5.7,3.75-9.09,4.09,9.67-6.51,18.21-14.52,26.47-22.7C146.63,272,162.1,254.79,178.17,238.2Z"/><path class="cls-4" d="M178.17,238.2c6.19-6,11.86-12.54,18.81-17.66-8.58,11.43-18,22.21-27.26,33.07-11.56,13.46-24.44,25.68-37.58,37.57a199.86,199.86,0,0,1-19.34,15.63c-2.78,1.83-5.7,3.75-9.09,4.09,9.67-6.51,18.21-14.52,26.47-22.7C146.63,272,162.1,254.79,178.17,238.2Z"/><path class="cls-5" d="M526.23,230.11c2,.2,3.26,2.4,4.91,3.47-8.75,9.3-17.77,18.33-26.29,27.83-1.63-2-3.7-3.67-4.77-6A315.28,315.28,0,0,1,526.23,230.11Z"/><path d="M526.23,230.11c2,.2,3.26,2.4,4.91,3.47-8.75,9.3-17.77,18.33-26.29,27.83-1.63-2-3.7-3.67-4.77-6A315.28,315.28,0,0,1,526.23,230.11Z"/><path class="cls-5" d="M545.52,234.51c9.32,8.3,18.08,17.2,26.9,26q-1.75,2.47-3.57,4.91c-8.66-9.12-17.19-18.37-26.48-26.86C543.39,237.21,544.45,235.86,545.52,234.51Z"/><path d="M545.52,234.51c9.32,8.3,18.08,17.2,26.9,26q-1.75,2.47-3.57,4.91c-8.66-9.12-17.19-18.37-26.48-26.86C543.39,237.21,544.45,235.86,545.52,234.51Z"/><path class="cls-5" d="M529.15,240.57c1.31-1.51,2.63-3,4-4.48,8.84,8.18,17.2,16.86,25.56,25.53-1.33,1.91-2.67,3.82-4,5.71C546.29,258.28,538,249.11,529.15,240.57Z"/><path d="M529.15,240.57c1.31-1.51,2.63-3,4-4.48,8.84,8.18,17.2,16.86,25.56,25.53-1.33,1.91-2.67,3.82-4,5.71C546.29,258.28,538,249.11,529.15,240.57Z"/><path class="cls-5" d="M527.42,242.84l4.11,4c-8.88,11.11-17.73,22.26-27.1,33-1.39-2.12-2.61-4.35-3.79-6.59C510.08,263.59,518.67,253.14,527.42,242.84Z"/><path d="M527.42,242.84l4.11,4c-8.88,11.11-17.73,22.26-27.1,33-1.39-2.12-2.61-4.35-3.79-6.59C510.08,263.59,518.67,253.14,527.42,242.84Z"/><path class="cls-5" d="M226.4,327.41c17.44-24.5,32.59-50.53,47.41-76.67,12.16,5.07,23.77,11.95,33.13,21.32,7.62,7.7,13.61,17.87,13.59,29,.41,10.34-4,20.19-9.83,28.52a40.42,40.42,0,0,1-34.63,16.87c-5.66-.41-11.56-1.92-15.84-5.85-2.88-2.8-4.89-7.09-3.6-11.11,1.42-3.68,5.8-5,9.41-4.71,8.31.66,15.59,5.43,21.74,10.74-1.48.49-2.94,1-4.42,1.46-5-3.26-10.37-6.51-16.38-7.45-2.34-.48-5.74.67-5.53,3.55,1.21,3.71,4.83,5.86,8.27,7.21,8.34,3,17.87.45,24.59-5,5.94-5.3,10.05-12.38,13.05-19.68,4.4-10.92,4.89-23.86-.8-34.42-5.75-10.88-16.41-18-27.27-23.07-12.44,35-29.06,69.29-54,97.23-15.29,17.37-33.51,31.76-51.51,46.17l-2.49-2.57A302.55,302.55,0,0,0,236,331.07c11.43-16.71,21.71-34.38,29-53.3-8.95,17.79-20,34.41-31.77,50.47-18.79,25.17-39.5,49.36-64.54,68.54-.85-.95-1.7-1.9-2.56-2.83C188.5,374,209.11,351.94,226.4,327.41Z"/><path d="M226.4,327.41c17.44-24.5,32.59-50.53,47.41-76.67,12.16,5.07,23.77,11.95,33.13,21.32,7.62,7.7,13.61,17.87,13.59,29,.41,10.34-4,20.19-9.83,28.52a40.42,40.42,0,0,1-34.63,16.87c-5.66-.41-11.56-1.92-15.84-5.85-2.88-2.8-4.89-7.09-3.6-11.11,1.42-3.68,5.8-5,9.41-4.71,8.31.66,15.59,5.43,21.74,10.74-1.48.49-2.94,1-4.42,1.46-5-3.26-10.37-6.51-16.38-7.45-2.34-.48-5.74.67-5.53,3.55,1.21,3.71,4.83,5.86,8.27,7.21,8.34,3,17.87.45,24.59-5,5.94-5.3,10.05-12.38,13.05-19.68,4.4-10.92,4.89-23.86-.8-34.42-5.75-10.88-16.41-18-27.27-23.07-12.44,35-29.06,69.29-54,97.23-15.29,17.37-33.51,31.76-51.51,46.17l-2.49-2.57A302.55,302.55,0,0,0,236,331.07c11.43-16.71,21.71-34.38,29-53.3-8.95,17.79-20,34.41-31.77,50.47-18.79,25.17-39.5,49.36-64.54,68.54-.85-.95-1.7-1.9-2.56-2.83C188.5,374,209.11,351.94,226.4,327.41Z"/><path class="cls-5" d="M620.38,253c14.52,6.15,28.59,14.73,38.34,27.37,7.31,9.39,10.55,22.13,7.14,33.69-3.49,12-10.8,23.65-22.06,29.75-8.69,4.62-19.21,6.39-28.76,3.57-4.31-1.36-8.61-3.79-10.8-7.89-1.38-2.59-2.18-5.93-.59-8.61,1.54-3,5.28-3.85,8.38-3.89,8.52.44,16,5.35,22.28,10.75L630,339.21c-5.24-3.24-10.69-6.64-16.91-7.48-2.07-.29-5,.77-5,3.23.59,3.71,4.23,5.85,7.38,7.27,10,4,22,.06,28.72-8.06,8.46-10,13.81-23,13-36.22a37.38,37.38,0,0,0-10.6-23.48c-5.79-6.14-13.13-10.58-20.77-14a379.71,379.71,0,0,1-19.8,45.6q-2.22-2.07-4.36-4.19c3.72-7.5,7.67-15,10.27-22.93-2.13,4.37-4.62,8.53-7.12,12.69a52.49,52.49,0,0,1-3.9-4.91C607.69,275.64,614,264.29,620.38,253Z"/><path d="M620.38,253c14.52,6.15,28.59,14.73,38.34,27.37,7.31,9.39,10.55,22.13,7.14,33.69-3.49,12-10.8,23.65-22.06,29.75-8.69,4.62-19.21,6.39-28.76,3.57-4.31-1.36-8.61-3.79-10.8-7.89-1.38-2.59-2.18-5.93-.59-8.61,1.54-3,5.28-3.85,8.38-3.89,8.52.44,16,5.35,22.28,10.75L630,339.21c-5.24-3.24-10.69-6.64-16.91-7.48-2.07-.29-5,.77-5,3.23.59,3.71,4.23,5.85,7.38,7.27,10,4,22,.06,28.72-8.06,8.46-10,13.81-23,13-36.22a37.38,37.38,0,0,0-10.6-23.48c-5.79-6.14-13.13-10.58-20.77-14a379.71,379.71,0,0,1-19.8,45.6q-2.22-2.07-4.36-4.19c3.72-7.5,7.67-15,10.27-22.93-2.13,4.37-4.62,8.53-7.12,12.69a52.49,52.49,0,0,1-3.9-4.91C607.69,275.64,614,264.29,620.38,253Z"/><path class="cls-5" d="M366.45,262c-.4-3.32,2.63-8.17,6.39-6,3.85,4.27,2,11.74,7.32,15.19a28.27,28.27,0,0,1,2.83-6.87c1.09,1.32,2.16,2.67,3.22,4-1,10.9-1.82,22.51,2.7,32.79,3,6.87,10,10.83,17,12.69.34,3,.71,5.94.93,8.93-7.94-2-15.54-6-20.83-12.42-6.87-8.06-9.28-19.16-8-29.51C372.09,276.32,366.87,269.63,366.45,262Z"/><path d="M366.45,262c-.4-3.32,2.63-8.17,6.39-6,3.85,4.27,2,11.74,7.32,15.19a28.27,28.27,0,0,1,2.83-6.87c1.09,1.32,2.16,2.67,3.22,4-1,10.9-1.82,22.51,2.7,32.79,3,6.87,10,10.83,17,12.69.34,3,.71,5.94.93,8.93-7.94-2-15.54-6-20.83-12.42-6.87-8.06-9.28-19.16-8-29.51C372.09,276.32,366.87,269.63,366.45,262Z"/><path class="cls-5" d="M768.56,275.63c9-8.49,20.19-14.23,31.78-18.25a593.35,593.35,0,0,0,56.19,99.07,431.29,431.29,0,0,0,33.74,42.15A44.22,44.22,0,0,0,923,413c3.52-.29,7.88-.78,9.93-4.1,1.27-2.74-1.22-5.26-3.36-6.58A21.78,21.78,0,0,0,912,400.21c-2.83,1.05-5.22,3-7.77,4.5q-2.68-1.81-5.3-3.7c5.71-5.74,14.3-7.45,22.12-6.59,5.19.54,10.8,2,14.29,6.17a9.17,9.17,0,0,1,.15,11.73c-3.54,4.17-9.27,5.51-14.52,5.57-9.86.07-19.32-3.43-28.07-7.66-17.07-8.29-31.64-20.92-44.18-35A233.85,233.85,0,0,1,818,329.88c-10.38-19.92-18.67-41.09-22.87-63.2-11.35,4.26-21.67,12.66-26,24.23-4,9.93-2.76,21-.08,31.08,1.6,5.94,4.1,12.05,9.11,15.93-1.12,2.49-2.2,5-3.32,7.47-9.17-6.4-17-15.49-19.65-26.56C751.23,303.34,757.33,286.59,768.56,275.63Z"/><path d="M768.56,275.63c9-8.49,20.19-14.23,31.78-18.25a593.35,593.35,0,0,0,56.19,99.07,431.29,431.29,0,0,0,33.74,42.15A44.22,44.22,0,0,0,923,413c3.52-.29,7.88-.78,9.93-4.1,1.27-2.74-1.22-5.26-3.36-6.58A21.78,21.78,0,0,0,912,400.21c-2.83,1.05-5.22,3-7.77,4.5q-2.68-1.81-5.3-3.7c5.71-5.74,14.3-7.45,22.12-6.59,5.19.54,10.8,2,14.29,6.17a9.17,9.17,0,0,1,.15,11.73c-3.54,4.17-9.27,5.51-14.52,5.57-9.86.07-19.32-3.43-28.07-7.66-17.07-8.29-31.64-20.92-44.18-35A233.85,233.85,0,0,1,818,329.88c-10.38-19.92-18.67-41.09-22.87-63.2-11.35,4.26-21.67,12.66-26,24.23-4,9.93-2.76,21-.08,31.08,1.6,5.94,4.1,12.05,9.11,15.93-1.12,2.49-2.2,5-3.32,7.47-9.17-6.4-17-15.49-19.65-26.56C751.23,303.34,757.33,286.59,768.56,275.63Z"/><path class="cls-5" d="M421.49,280.46c9.12-9.25,20.95-15.44,33.17-19.55,5,11.8,10.89,23.2,16.7,34.62-1.83,1.35-3.58,2.79-5.33,4.24-2.8-5.21-5.09-10.67-7.82-15.9-.12,3.59,2.51,6.36,3.66,9.59-1.79,1.14-3.59,2.27-5.44,3.32a187.14,187.14,0,0,1-7.07-26.65c-11.28,4.25-21.5,12.56-25.95,24-4,9.79-2.92,20.73-.33,30.74,1.6,6.14,4.13,12.45,9.23,16.52-1.08,2.49-2.18,5-3.24,7.48-8.9-6.15-16.41-14.82-19.37-25.39C405.37,308.35,410.82,291.66,421.49,280.46Z"/><path d="M421.49,280.46c9.12-9.25,20.95-15.44,33.17-19.55,5,11.8,10.89,23.2,16.7,34.62-1.83,1.35-3.58,2.79-5.33,4.24-2.8-5.21-5.09-10.67-7.82-15.9-.12,3.59,2.51,6.36,3.66,9.59-1.79,1.14-3.59,2.27-5.44,3.32a187.14,187.14,0,0,1-7.07-26.65c-11.28,4.25-21.5,12.56-25.95,24-4,9.79-2.92,20.73-.33,30.74,1.6,6.14,4.13,12.45,9.23,16.52-1.08,2.49-2.18,5-3.24,7.48-8.9-6.15-16.41-14.82-19.37-25.39C405.37,308.35,410.82,291.66,421.49,280.46Z"/><path class="cls-5" d="M536.51,304.11c9.14-12.61,17.13-26,25.4-39.17,1.34,1.59,2.67,3.2,4,4.8-8.62,12.85-15.63,26.76-24.95,39.14C539.44,307.32,538,305.72,536.51,304.11Z"/><path d="M536.51,304.11c9.14-12.61,17.13-26,25.4-39.17,1.34,1.59,2.67,3.2,4,4.8-8.62,12.85-15.63,26.76-24.95,39.14C539.44,307.32,538,305.72,536.51,304.11Z"/><path class="cls-5" d="M472.26,288.18c6.52-6.91,12.06-14.63,18.28-21.79,1.21,2.1,2.39,4.2,3.57,6.32-6.46,6.82-12.95,13.61-19.67,20.17C473.69,291.32,473,289.75,472.26,288.18Z"/><path d="M472.26,288.18c6.52-6.91,12.06-14.63,18.28-21.79,1.21,2.1,2.39,4.2,3.57,6.32-6.46,6.82-12.95,13.61-19.67,20.17C473.69,291.32,473,289.75,472.26,288.18Z"/><path class="cls-5" d="M685.79,273.42q1.46-1.94,3-3.84a18.81,18.81,0,0,1,3.19,9.28c4.53-2,5.58-7.74,10.06-9.59,4.76-1.27,5.53,5.34,3.63,8.27-3.14,4.49-8.59,6.55-13.56,8.33-.27,15.35-10.83,28.79-24.21,35.45.64-2.66,1.3-5.3,2-7.93C682.62,304.87,689.3,288.38,685.79,273.42Z"/><path d="M685.79,273.42q1.46-1.94,3-3.84a18.81,18.81,0,0,1,3.19,9.28c4.53-2,5.58-7.74,10.06-9.59,4.76-1.27,5.53,5.34,3.63,8.27-3.14,4.49-8.59,6.55-13.56,8.33-.27,15.35-10.83,28.79-24.21,35.45.64-2.66,1.3-5.3,2-7.93C682.62,304.87,689.3,288.38,685.79,273.42Z"/><path class="cls-5" d="M581.63,270.48c7.44,7.74,14.31,16,21.41,24-1,1.8-2.18,3.56-3.3,5.33-7.26-7.93-14-16.34-21.39-24.17Q580,273.07,581.63,270.48Z"/><path d="M581.63,270.48c7.44,7.74,14.31,16,21.41,24-1,1.8-2.18,3.56-3.3,5.33-7.26-7.93-14-16.34-21.39-24.17Q580,273.07,581.63,270.48Z"/><path class="cls-5" d="M565.69,280c1.28-2.21,2.63-4.37,4-6.52,7,7.48,13.56,15.35,20.19,23.16-1.28,1.66-2.51,3.36-3.72,5.08C578.67,295.14,572.42,287.32,565.69,280Z"/><path d="M565.69,280c1.28-2.21,2.63-4.37,4-6.52,7,7.48,13.56,15.35,20.19,23.16-1.28,1.66-2.51,3.36-3.72,5.08C578.67,295.14,572.42,287.32,565.69,280Z"/><path class="cls-5" d="M492.48,281.06c1.42-1.33,2.88-2.64,4.36-3.92a330.89,330.89,0,0,0,26.76,36.64l-4.08,4.06C509.74,306.17,500,294.36,492.48,281.06Z"/><path d="M492.48,281.06c1.42-1.33,2.88-2.64,4.36-3.92a330.89,330.89,0,0,0,26.76,36.64l-4.08,4.06C509.74,306.17,500,294.36,492.48,281.06Z"/><path class="cls-5" d="M506.86,283.47c1.52-1.49,3-3,4.56-4.48,8.54,11.4,17.44,22.54,26.86,33.24a70.69,70.69,0,0,0-4.86,6.32C523.74,307.51,514.53,296,506.86,283.47Z"/><path d="M506.86,283.47c1.52-1.49,3-3,4.56-4.48,8.54,11.4,17.44,22.54,26.86,33.24a70.69,70.69,0,0,0-4.86,6.32C523.74,307.51,514.53,296,506.86,283.47Z"/><path class="cls-3" d="M803.13,280l1.41,1.47a486.09,486.09,0,0,0,32.63,58.48c13.28,20.35,27.61,40.22,45,57.26-14.65-9.85-26.49-23.29-37-37.35-16.7-22.45-28.79-47.9-39.23-73.74C805.7,283.7,803.68,282.2,803.13,280Z"/><path class="cls-4" d="M803.13,280l1.41,1.47a486.09,486.09,0,0,0,32.63,58.48c13.28,20.35,27.61,40.22,45,57.26-14.65-9.85-26.49-23.29-37-37.35-16.7-22.45-28.79-47.9-39.23-73.74C805.7,283.7,803.68,282.2,803.13,280Z"/><path class="cls-5" d="M467.66,303.2c7.6-6.16,14.8-12.8,22-19.44a75.06,75.06,0,0,0,4.38,6.67,140.33,140.33,0,0,1-23,18.7C469.9,307.16,468.77,305.19,467.66,303.2Z"/><path d="M467.66,303.2c7.6-6.16,14.8-12.8,22-19.44a75.06,75.06,0,0,0,4.38,6.67,140.33,140.33,0,0,1-23,18.7C469.9,307.16,468.77,305.19,467.66,303.2Z"/><path class="cls-5" d="M536.47,322.32c10.2-12.25,18.63-25.8,27.3-39.13,1.32,1.36,2.66,2.71,4,4-8.23,13.68-16.68,27.27-26.62,39.79C539.67,325.39,538.07,323.86,536.47,322.32Z"/><path d="M536.47,322.32c10.2-12.25,18.63-25.8,27.3-39.13,1.32,1.36,2.66,2.71,4,4-8.23,13.68-16.68,27.27-26.62,39.79C539.67,325.39,538.07,323.86,536.47,322.32Z"/><path class="cls-5" d="M425.3,315.73c14.34-1.58,27.1-9.35,37.79-18.65.69,1.5,1.4,3,2.07,4.52-4.85,4.06-9.62,8.27-15.11,11.47,2.85.08,5.35-1.31,7.74-2.68.63,1.71,1.29,3.41,2,5.11A83.68,83.68,0,0,1,428,324.09,47.16,47.16,0,0,1,425.3,315.73Z"/><path d="M425.3,315.73c14.34-1.58,27.1-9.35,37.79-18.65.69,1.5,1.4,3,2.07,4.52-4.85,4.06-9.62,8.27-15.11,11.47,2.85.08,5.35-1.31,7.74-2.68.63,1.71,1.29,3.41,2,5.11A83.68,83.68,0,0,1,428,324.09,47.16,47.16,0,0,1,425.3,315.73Z"/><path class="cls-5" d="M592.64,299.83c1.5,1.45,3,2.92,4.54,4.33-7.69,12.56-16.34,24.49-25.21,36.22-1.5-1.09-3-2.21-4.39-3.38C576.48,325,584.77,312.54,592.64,299.83Z"/><path d="M592.64,299.83c1.5,1.45,3,2.92,4.54,4.33-7.69,12.56-16.34,24.49-25.21,36.22-1.5-1.09-3-2.21-4.39-3.38C576.48,325,584.77,312.54,592.64,299.83Z"/><path class="cls-5" d="M460.67,308.14q3-1.77,5.8-3.75a352.35,352.35,0,0,0,21.69,42.27q-2.88,2.1-5.71,4.26A246.66,246.66,0,0,1,460.67,308.14Z"/><path d="M460.67,308.14q3-1.77,5.8-3.75a352.35,352.35,0,0,0,21.69,42.27q-2.88,2.1-5.71,4.26A246.66,246.66,0,0,1,460.67,308.14Z"/><path class="cls-5" d="M608.42,308.09l2.41-4.15c9.53,10.19,22.95,17,37.07,16.91-1,2.07-2,4.13-3.12,6.16a68.46,68.46,0,0,1-48.15-16.28c.92-1.54,1.83-3.07,2.73-4.61,9,7.94,19.87,14.76,32.1,15.67C623,318.76,615.34,313.78,608.42,308.09Z"/><path d="M608.42,308.09l2.41-4.15c9.53,10.19,22.95,17,37.07,16.91-1,2.07-2,4.13-3.12,6.16a68.46,68.46,0,0,1-48.15-16.28c.92-1.54,1.83-3.07,2.73-4.61,9,7.94,19.87,14.76,32.1,15.67C623,318.76,615.34,313.78,608.42,308.09Z"/><path class="cls-5" d="M473,311.81c1.69-1.12,3.38-2.23,5.1-3.31,7.87,13.93,16.22,27.59,25.16,40.86l-5.05,3.8Q484.67,333.06,473,311.81Z"/><path d="M473,311.81c1.69-1.12,3.38-2.23,5.1-3.31,7.87,13.93,16.22,27.59,25.16,40.86l-5.05,3.8Q484.67,333.06,473,311.81Z"/><path class="cls-5" d="M595.07,313.66c1.73,1.3,3.5,2.55,5.3,3.78a230,230,0,0,1-26.06,37.37q-2.5-1.92-5-3.87A304.37,304.37,0,0,0,595.07,313.66Z"/><path d="M595.07,313.66c1.73,1.3,3.5,2.55,5.3,3.78a230,230,0,0,1-26.06,37.37q-2.5-1.92-5-3.87A304.37,304.37,0,0,0,595.07,313.66Z"/><path class="cls-5" d="M502.66,341.63a185.5,185.5,0,0,0,23.81-24.32,56.64,56.64,0,0,1,4.23,4.78,223.11,223.11,0,0,1-24.3,24.79A40.72,40.72,0,0,1,502.66,341.63Z"/><path d="M502.66,341.63a185.5,185.5,0,0,0,23.81-24.32,56.64,56.64,0,0,1,4.23,4.78,223.11,223.11,0,0,1-24.3,24.79A40.72,40.72,0,0,1,502.66,341.63Z"/><path class="cls-5" d="M670.71,323.8q2.7-1.4,5.43-2.74a100.5,100.5,0,0,1,.17,28.09c5.4-3.62,9.83-8.7,15.85-11.36,2.41-1.07,6.25-1.45,7.42,1.56,1.44,4.54-2.37,9.06-6.42,10.7-6.4,2.45-12.95,4.55-19.27,7.22a47.38,47.38,0,0,1-26.69,24c0-2.1.18-4.19.33-6.28,10.56-4.37,20.22-13,22.78-24.52C672,341.71,671.75,332.65,670.71,323.8Z"/><path d="M670.71,323.8q2.7-1.4,5.43-2.74a100.5,100.5,0,0,1,.17,28.09c5.4-3.62,9.83-8.7,15.85-11.36,2.41-1.07,6.25-1.45,7.42,1.56,1.44,4.54-2.37,9.06-6.42,10.7-6.4,2.45-12.95,4.55-19.27,7.22a47.38,47.38,0,0,1-26.69,24c0-2.1.18-4.19.33-6.28,10.56-4.37,20.22-13,22.78-24.52C672,341.71,671.75,332.65,670.71,323.8Z"/><path class="cls-5" d="M395.91,322.26l5.25,2.21c-.84,9,.78,18.63,6.16,26.14,6.09,8.84,16.25,14.05,26.59,16.1a63.37,63.37,0,0,0,30-1.65c9.83-2.81,18.53-8.45,27-14.05,1.12,1.73,2.31,3.42,3.54,5.08a131.27,131.27,0,0,1-24.74,13.77,68.83,68.83,0,0,0,18.36-6.2q1.88,2.63,3.82,5.21c-17.81,8.55-38.7,9.78-57.79,5.21-11.67-3-23.52-8.28-31-18.1-2.26-2.72-3.18-6.2-4.81-9.25-3.54-2.41-8.15-2-11.82-4.17-3-1.62-6.58-3.74-6.74-7.54.31-3.95,5.5-5.08,8.4-3.12s5.11,4.55,8.28,6A79.76,79.76,0,0,1,395.91,322.26Z"/><path d="M395.91,322.26l5.25,2.21c-.84,9,.78,18.63,6.16,26.14,6.09,8.84,16.25,14.05,26.59,16.1a63.37,63.37,0,0,0,30-1.65c9.83-2.81,18.53-8.45,27-14.05,1.12,1.73,2.31,3.42,3.54,5.08a131.27,131.27,0,0,1-24.74,13.77,68.83,68.83,0,0,0,18.36-6.2q1.88,2.63,3.82,5.21c-17.81,8.55-38.7,9.78-57.79,5.21-11.67-3-23.52-8.28-31-18.1-2.26-2.72-3.18-6.2-4.81-9.25-3.54-2.41-8.15-2-11.82-4.17-3-1.62-6.58-3.74-6.74-7.54.31-3.95,5.5-5.08,8.4-3.12s5.11,4.55,8.28,6A79.76,79.76,0,0,1,395.91,322.26Z"/><path class="cls-5" d="M793.07,326.1c4.68-2.5,10.64-4.47,15.68-1.88,5.8,3,6.56,11.92,1.75,16.15-5.51,5.15-13.44,6.54-20.72,6.7.3-1.88.54-3.77,1-5.62,4.91-.43,10.31-.2,14.57-3.12,2.73-1.71,3.95-5.84,1.86-8.5-1.9-2.25-5.26-2.18-7.81-1.27-5.54,1.95-9.45,6.86-11.82,12.06A46.77,46.77,0,0,0,784,360c-.05,16.24,4.11,32.86,14,46,10,13.76,25.58,24.27,42.91,24.93,17,.62,32.72-8.39,44.79-19.74,2.45,1.19,4.94,2.34,7.38,3.57-9.23,10.21-20.62,18.72-33.63,23.45.57,3.25,1.11,6.7.17,9.93-1.59,3.85-4,7.6-7.69,9.78-2.21,1.43-5.39,1.55-7.37-.31-1.84-2.14-1.18-5.52.73-7.39,2.76-3.12,6.7-5.93,6.89-10.5-13.31,2.8-28,2.08-39.58-5.75-5.17,5.9-12.65,10-20.56,10.3-1.68.12-3.92-.35-4.31-2.28.26-3.66,3.59-6.14,6.73-7.43,4.36-1.87,10.24.55,13.65-3.55a73.92,73.92,0,0,1-27.41-33.25c-6.93.42-14.67-1.83-18.54-8-1.68-2.91-3.34-6.67-1.59-9.9,1-1.47,2.94-1.26,4.47-1.09,6.13,1.57,7.39,10.23,14.1,10.62-2.91-13.59-4.21-27.88-1.14-41.55C780,339.09,784.87,330.41,793.07,326.1Z"/><path d="M793.07,326.1c4.68-2.5,10.64-4.47,15.68-1.88,5.8,3,6.56,11.92,1.75,16.15-5.51,5.15-13.44,6.54-20.72,6.7.3-1.88.54-3.77,1-5.62,4.91-.43,10.31-.2,14.57-3.12,2.73-1.71,3.95-5.84,1.86-8.5-1.9-2.25-5.26-2.18-7.81-1.27-5.54,1.95-9.45,6.86-11.82,12.06A46.77,46.77,0,0,0,784,360c-.05,16.24,4.11,32.86,14,46,10,13.76,25.58,24.27,42.91,24.93,17,.62,32.72-8.39,44.79-19.74,2.45,1.19,4.94,2.34,7.38,3.57-9.23,10.21-20.62,18.72-33.63,23.45.57,3.25,1.11,6.7.17,9.93-1.59,3.85-4,7.6-7.69,9.78-2.21,1.43-5.39,1.55-7.37-.31-1.84-2.14-1.18-5.52.73-7.39,2.76-3.12,6.7-5.93,6.89-10.5-13.31,2.8-28,2.08-39.58-5.75-5.17,5.9-12.65,10-20.56,10.3-1.68.12-3.92-.35-4.31-2.28.26-3.66,3.59-6.14,6.73-7.43,4.36-1.87,10.24.55,13.65-3.55a73.92,73.92,0,0,1-27.41-33.25c-6.93.42-14.67-1.83-18.54-8-1.68-2.91-3.34-6.67-1.59-9.9,1-1.47,2.94-1.26,4.47-1.09,6.13,1.57,7.39,10.23,14.1,10.62-2.91-13.59-4.21-27.88-1.14-41.55C780,339.09,784.87,330.41,793.07,326.1Z"/><path class="cls-5" d="M533.85,325.49a194.89,194.89,0,0,0,21.86,19.34c-1.21,1.57-2.44,3.13-3.7,4.66a200.58,200.58,0,0,1-21.58-19.72C531.57,328.35,532.72,326.93,533.85,325.49Z"/><path d="M533.85,325.49a194.89,194.89,0,0,0,21.86,19.34c-1.21,1.57-2.44,3.13-3.7,4.66a200.58,200.58,0,0,1-21.58-19.72C531.57,328.35,532.72,326.93,533.85,325.49Z"/><path class="cls-5" d="M544.16,330.34c1.77-2.07,3.49-4.18,5.05-6.41a260.21,260.21,0,0,0,20.46,19.39c-1.36,1.64-2.73,3.28-4.11,4.9A209,209,0,0,1,544.16,330.34Z"/><path d="M544.16,330.34c1.77-2.07,3.49-4.18,5.05-6.41a260.21,260.21,0,0,0,20.46,19.39c-1.36,1.64-2.73,3.28-4.11,4.9A209,209,0,0,1,544.16,330.34Z"/><path class="cls-5" d="M444.43,331.39c5-3.37,11.41-6.29,17.45-4.19,6.4,2.19,7.93,11.34,3.45,16.07-5.44,5.67-13.75,7-21.24,7.37.26-1.95.56-3.9.85-5.85,5-.07,10.45-.19,14.77-3.05,2.86-1.79,3.89-6.41,1.33-8.86-1.51-1.58-4-1.56-6-1.23-5.11,1.16-9.11,5.07-11.71,9.47-3.83,6.53-5,14.25-5.21,21.73l-7.52-1.66C431.56,350.15,435,338.15,444.43,331.39Z"/><path d="M444.43,331.39c5-3.37,11.41-6.29,17.45-4.19,6.4,2.19,7.93,11.34,3.45,16.07-5.44,5.67-13.75,7-21.24,7.37.26-1.95.56-3.9.85-5.85,5-.07,10.45-.19,14.77-3.05,2.86-1.79,3.89-6.41,1.33-8.86-1.51-1.58-4-1.56-6-1.23-5.11,1.16-9.11,5.07-11.71,9.47-3.83,6.53-5,14.25-5.21,21.73l-7.52-1.66C431.56,350.15,435,338.15,444.43,331.39Z"/><path class="cls-5" d="M504.29,354.18a168.11,168.11,0,0,0,24-22.18c1.57,1.51,3.09,3.09,4.55,4.72a166.87,166.87,0,0,1-28.64,25.16c-1.29-1.82-2.6-3.63-3.84-5.49A19.92,19.92,0,0,0,504.29,354.18Z"/><path d="M504.29,354.18a168.11,168.11,0,0,0,24-22.18c1.57,1.51,3.09,3.09,4.55,4.72a166.87,166.87,0,0,1-28.64,25.16c-1.29-1.82-2.6-3.63-3.84-5.49A19.92,19.92,0,0,0,504.29,354.18Z"/><path class="cls-5" d="M529.32,380.59a433.83,433.83,0,0,0,30.14-33.29c1.44,1.11,2.9,2.24,4.33,3.39a379,379,0,0,1-31.07,33.65C531.59,383.08,530.45,381.83,529.32,380.59Z"/><path d="M529.32,380.59a433.83,433.83,0,0,0,30.14-33.29c1.44,1.11,2.9,2.24,4.33,3.39a379,379,0,0,1-31.07,33.65C531.59,383.08,530.45,381.83,529.32,380.59Z"/><path class="cls-5" d="M287.78,350.4c2.36-.68,4.71-1.38,7.08-2,4.14,16,2.49,33.81-5.43,48.42,5.51.51,10.09-3.11,14-6.44,3.07-2.75,7.77-4.54,11.68-2.52a3.4,3.4,0,0,1,1.45,4.75c-1.77,3.08-5.33,4.39-8.47,5.61-6.52,2.25-13.69,4.25-20.52,2.13-5.49,10.05-12.61,19.08-20.33,27.5,5.21,1.7,11.82-.6,15.88,4,2.14,1.92,1.9,6.18-1.2,6.95-7.45,2-16.85.37-21.45-6.37-11.36,7.41-25.61,9.35-38.85,7.32,1.84,4.34,5.49,7.78,6.85,12.3.81,3.17-3,4.44-5.31,3-6.32-2.94-9.77-9.82-10.46-16.5-8.68-1.1-16.35-5.81-23.14-11.05-9.54-7.43-18.1-16-27.06-24.09-5.42-5-13.3-6.75-20.48-5.64-2.5.44-5.33,1.15-6.84,3.39-.31,2.12,2.09,3,3.65,3.81,6,2.33,12.5,0,17.91-2.74,1.89,1.86,3.78,3.72,5.62,5.64C155.47,412,146.83,412,139,410.94c-3.78-.81-8.49-2-10.05-6-1.45-4.34,1.61-8.85,5.46-10.7,6.43-3.17,14.06-2.52,20.72-.44a45.69,45.69,0,0,1,17.9,11.07c12.76,12.16,29.11,21.31,46.89,22.88a61,61,0,0,0,49.35-18.42C284.47,394.13,290.81,371.46,287.78,350.4Z"/><path d="M287.78,350.4c2.36-.68,4.71-1.38,7.08-2,4.14,16,2.49,33.81-5.43,48.42,5.51.51,10.09-3.11,14-6.44,3.07-2.75,7.77-4.54,11.68-2.52a3.4,3.4,0,0,1,1.45,4.75c-1.77,3.08-5.33,4.39-8.47,5.61-6.52,2.25-13.69,4.25-20.52,2.13-5.49,10.05-12.61,19.08-20.33,27.5,5.21,1.7,11.82-.6,15.88,4,2.14,1.92,1.9,6.18-1.2,6.95-7.45,2-16.85.37-21.45-6.37-11.36,7.41-25.61,9.35-38.85,7.32,1.84,4.34,5.49,7.78,6.85,12.3.81,3.17-3,4.44-5.31,3-6.32-2.94-9.77-9.82-10.46-16.5-8.68-1.1-16.35-5.81-23.14-11.05-9.54-7.43-18.1-16-27.06-24.09-5.42-5-13.3-6.75-20.48-5.64-2.5.44-5.33,1.15-6.84,3.39-.31,2.12,2.09,3,3.65,3.81,6,2.33,12.5,0,17.91-2.74,1.89,1.86,3.78,3.72,5.62,5.64C155.47,412,146.83,412,139,410.94c-3.78-.81-8.49-2-10.05-6-1.45-4.34,1.61-8.85,5.46-10.7,6.43-3.17,14.06-2.52,20.72-.44a45.69,45.69,0,0,1,17.9,11.07c12.76,12.16,29.11,21.31,46.89,22.88a61,61,0,0,0,49.35-18.42C284.47,394.13,290.81,371.46,287.78,350.4Z"/><path class="cls-5" d="M634.37,352.71l7-2.09c2.33,6.9,2.32,14.28,2.1,21.47-.6,9.29-2.65,18.68-7.4,26.77,6,1.06,10.69-3.57,15-7,3.24-2.56,8.75-4.05,12-.71,2.21,3.62-2,6.58-4.91,7.94-7.4,3-15.79,5.87-23.78,3.49A131.71,131.71,0,0,1,613.74,430c4.86,1.85,10.73-.12,15,3.24,1.82,1.43,3.46,4.33,1.73,6.44-2.44,2.6-6.41,2.14-9.64,2.09a17.78,17.78,0,0,1-13.83-7c-11.43,7.33-25.61,9.25-38.87,7.29,1.92,4.14,5.29,7.53,6.81,11.85a3,3,0,0,1-3.93,3.83c-7-2.31-11-9.81-11.68-16.85-6.43-.87-12.35-3.75-17.77-7.2,2.31-2.6,4.69-5.13,7-7.74,12.84,4.8,27.2,5.92,40.43,2,18.57-5.3,33.86-19.91,40.91-37.77C634.77,378.34,636,365.29,634.37,352.71Z"/><path d="M634.37,352.71l7-2.09c2.33,6.9,2.32,14.28,2.1,21.47-.6,9.29-2.65,18.68-7.4,26.77,6,1.06,10.69-3.57,15-7,3.24-2.56,8.75-4.05,12-.71,2.21,3.62-2,6.58-4.91,7.94-7.4,3-15.79,5.87-23.78,3.49A131.71,131.71,0,0,1,613.74,430c4.86,1.85,10.73-.12,15,3.24,1.82,1.43,3.46,4.33,1.73,6.44-2.44,2.6-6.41,2.14-9.64,2.09a17.78,17.78,0,0,1-13.83-7c-11.43,7.33-25.61,9.25-38.87,7.29,1.92,4.14,5.29,7.53,6.81,11.85a3,3,0,0,1-3.93,3.83c-7-2.31-11-9.81-11.68-16.85-6.43-.87-12.35-3.75-17.77-7.2,2.31-2.6,4.69-5.13,7-7.74,12.84,4.8,27.2,5.92,40.43,2,18.57-5.3,33.86-19.91,40.91-37.77C634.77,378.34,636,365.29,634.37,352.71Z"/><path class="cls-5" d="M577,356.49c1.33-1.42,2.65-2.84,4-4.28,14.47,10.7,30.45,20,48.14,24-1.11,2.52-2.13,5.07-3.13,7.63-15.15-1-29.33-7.17-42.66-14A213.26,213.26,0,0,1,563.43,358c1.26-1.49,2.55-2.94,3.8-4.43,9.61,6.19,19.41,12.29,30.16,16.3C590.57,365.42,583.63,361.15,577,356.49Z"/><path d="M577,356.49c1.33-1.42,2.65-2.84,4-4.28,14.47,10.7,30.45,20,48.14,24-1.11,2.52-2.13,5.07-3.13,7.63-15.15-1-29.33-7.17-42.66-14A213.26,213.26,0,0,1,563.43,358c1.26-1.49,2.55-2.94,3.8-4.43,9.61,6.19,19.41,12.29,30.16,16.3C590.57,365.42,583.63,361.15,577,356.49Z"/><path class="cls-5" d="M490.13,362.43q2.89-2,5.9-4a202.21,202.21,0,0,0,22.62,27.35c-1.71,1.28-3.42,2.55-5.11,3.84A201.77,201.77,0,0,1,490.13,362.43Z"/><path d="M490.13,362.43q2.89-2,5.9-4a202.21,202.21,0,0,0,22.62,27.35c-1.71,1.28-3.42,2.55-5.11,3.84A201.77,201.77,0,0,1,490.13,362.43Z"/><path class="cls-5" d="M528.55,392.63a316.76,316.76,0,0,0,33.28-32.56q2.24,1.71,4.51,3.39c-10.75,11.64-23.07,21.71-35.31,31.73Z"/><path d="M528.55,392.63a316.76,316.76,0,0,0,33.28-32.56q2.24,1.71,4.51,3.39c-10.75,11.64-23.07,21.71-35.31,31.73Z"/><path class="cls-5" d="M506.16,364.57l5.44-3.1c6.32,8.43,12.62,16.9,19.36,25-1.5,1.26-3,2.51-4.53,3.72A312.84,312.84,0,0,1,506.16,364.57Z"/><path d="M506.16,364.57l5.44-3.1c6.32,8.43,12.62,16.9,19.36,25-1.5,1.26-3,2.51-4.53,3.72A312.84,312.84,0,0,1,506.16,364.57Z"/><path class="cls-5" d="M430.9,376.92c2.9.7,5.8,1.43,8.68,2.24a69.27,69.27,0,0,0,27.87,45.46c10.46,7.52,23.81,11.37,36.64,9.22,13.66-2.12,25.83-9.77,35.71-19.16,2.5,1.15,5,2.32,7.44,3.59-9.21,10.22-20.61,18.62-33.57,23.43.49,3.31,1.09,6.79.09,10.07a21.8,21.8,0,0,1-6.85,9.2c-2.31,1.63-5.8,2.32-8,.19-2.21-2.39-1.08-6.16,1.2-8.08,2.52-2.86,6.58-5.71,6-10-13.18,3.21-27.79,2-39.3-5.6a29.88,29.88,0,0,1-19.62,10.26c-1.85.11-4.09.08-5.13-1.74-.22-4.28,4-7,7.55-8.27,4.08-1.33,9.72.72,12.59-3.33A73.59,73.59,0,0,1,435,401.3c-6,.2-12.57-1.15-16.82-5.74-3-3.3-5.27-8.25-3.36-12.65,1.31-.39,2.66-1.25,4.08-.72,6.38,1.44,7.68,10,14.42,10.86A132.9,132.9,0,0,1,430.9,376.92Z"/><path d="M430.9,376.92c2.9.7,5.8,1.43,8.68,2.24a69.27,69.27,0,0,0,27.87,45.46c10.46,7.52,23.81,11.37,36.64,9.22,13.66-2.12,25.83-9.77,35.71-19.16,2.5,1.15,5,2.32,7.44,3.59-9.21,10.22-20.61,18.62-33.57,23.43.49,3.31,1.09,6.79.09,10.07a21.8,21.8,0,0,1-6.85,9.2c-2.31,1.63-5.8,2.32-8,.19-2.21-2.39-1.08-6.16,1.2-8.08,2.52-2.86,6.58-5.71,6-10-13.18,3.21-27.79,2-39.3-5.6a29.88,29.88,0,0,1-19.62,10.26c-1.85.11-4.09.08-5.13-1.74-.22-4.28,4-7,7.55-8.27,4.08-1.33,9.72.72,12.59-3.33A73.59,73.59,0,0,1,435,401.3c-6,.2-12.57-1.15-16.82-5.74-3-3.3-5.27-8.25-3.36-12.65,1.31-.39,2.66-1.25,4.08-.72,6.38,1.44,7.68,10,14.42,10.86A132.9,132.9,0,0,1,430.9,376.92Z"/><path class="cls-5" d="M512.65,396.45c2.8-2.75,5.68-5.41,8.6-8,1.12,1.06,2.24,2.12,3.38,3.17-3,2.51-6,5-9.23,7.36Z"/><path d="M512.65,396.45c2.8-2.75,5.68-5.41,8.6-8,1.12,1.06,2.24,2.12,3.38,3.17-3,2.51-6,5-9.23,7.36Z"/><path class="cls-5" d="M522.62,397.73c1.48-1.37,3-2.73,4.36-4.17A88.52,88.52,0,0,0,537.09,401q-2.33-2.12-4.56-4.29,2.09-1.72,4.27-3.34c4.85,5.31,9.18,11.28,15.25,15.3a43.83,43.83,0,0,0,25.79,7.77c3.66-.36,8.71-1.18,9.77-5.41-.22-3-2.9-4.87-5.33-6.09-5.72-2.65-12.85-3.32-18.46-.08-1.86,1-3.63,2.23-5.47,3.32-1.71-1.24-3.43-2.46-5.11-3.72,5.16-5.16,12.69-7.12,19.81-6.72,5.78.27,12.14,1.51,16.25,5.95a9.18,9.18,0,0,1,.88,11.55c-2.76,3.88-7.66,5.49-12.21,5.93-11.77,1-23.1-3.52-33.39-8.77A128.31,128.31,0,0,1,522.62,397.73Z"/><path d="M522.62,397.73c1.48-1.37,3-2.73,4.36-4.17A88.52,88.52,0,0,0,537.09,401q-2.33-2.12-4.56-4.29,2.09-1.72,4.27-3.34c4.85,5.31,9.18,11.28,15.25,15.3a43.83,43.83,0,0,0,25.79,7.77c3.66-.36,8.71-1.18,9.77-5.41-.22-3-2.9-4.87-5.33-6.09-5.72-2.65-12.85-3.32-18.46-.08-1.86,1-3.63,2.23-5.47,3.32-1.71-1.24-3.43-2.46-5.11-3.72,5.16-5.16,12.69-7.12,19.81-6.72,5.78.27,12.14,1.51,16.25,5.95a9.18,9.18,0,0,1,.88,11.55c-2.76,3.88-7.66,5.49-12.21,5.93-11.77,1-23.1-3.52-33.39-8.77A128.31,128.31,0,0,1,522.62,397.73Z"/><path class="cls-5" d="M477.31,399.39c3.18-3.47,8.06-4.87,12.65-4.92,10.45-.46,20.51,4.37,28.11,11.29a106.05,106.05,0,0,0,12.83,10.62q-3,1.88-6,3.73c-5.47-4.87-10.74-9.95-16.19-14.84s-13.54-6.4-20.72-5.15a10,10,0,0,0-6.66,3.77c5.35,7,15.49,4.12,22.1.62,1.83,1.86,3.68,3.7,5.63,5.45-5.21,3.69-11.89,3.87-18,3.8-4.77-.17-9.91-.88-13.74-4C474.18,407.14,474.83,402.19,477.31,399.39Z"/><path d="M477.31,399.39c3.18-3.47,8.06-4.87,12.65-4.92,10.45-.46,20.51,4.37,28.11,11.29a106.05,106.05,0,0,0,12.83,10.62q-3,1.88-6,3.73c-5.47-4.87-10.74-9.95-16.19-14.84s-13.54-6.4-20.72-5.15a10,10,0,0,0-6.66,3.77c5.35,7,15.49,4.12,22.1.62,1.83,1.86,3.68,3.7,5.63,5.45-5.21,3.69-11.89,3.87-18,3.8-4.77-.17-9.91-.88-13.74-4C474.18,407.14,474.83,402.19,477.31,399.39Z"/><path class="cls-5" d="M517.84,401.21l3.14-2.48,2.69,2.21-3.29,2.84Z"/><path d="M517.84,401.21l3.14-2.48,2.69,2.21-3.29,2.84Z"/></g></g></svg>