<svg id="Layer_1" data-name="Layer 1" xmlns="http://www.w3.org/2000/svg" xmlns:xlink="http://www.w3.org/1999/xlink" viewBox="0 0 1070.1 480.1"><defs><style>.cls-1,.cls-3,.cls-5{fill:none;}.cls-2{clip-path:url(#clip-path);}.cls-3{stroke:#fff;}.cls-3,.cls-5{stroke-miterlimit:10;stroke-width:0.1px;}.cls-4{fill:#fff;}.cls-5{stroke:#000;}</style><clipPath id="clip-path"><rect class="cls-1" x="0.05" y="0.05" width="1070" height="480"/></clipPath></defs><title>site-logo</title><g class="cls-2"><g id="surface0"><path class="cls-3" d="M.05.05h1070v480H.05Z"/><path class="cls-4" d="M.05.05h1070v480H.05Z"/><path class="cls-5" d="M527.05,27c4.7-4.9,12.2-5.8,18.5-4.4a13.34,13.34,0,0,1,9.6,8.4c1.6,4.5,1.3,9.4.5,14,2.8-.4,5.6-.8,8.3-.1A15.38,15.38,0,0,1,576,61c-1.6,6.2-5.8,12.3-12.1,14.5-3.2,1.3-6.6,1-9.9.8A17.6,17.6,0,0,0,565,63a10.2,10.2,0,0,0-4.4-10.8c-3.3-2.2-7.4-2.5-11.3-3,.3-3.9,0-8.1-2.3-11.4-3.6-5.3-12.4-5-16.1,0-2.7,3.6-3.3,8.3-3.5,12.6-5-.9-10.4,1.6-12.2,6.5-2.8,7.6,1.6,15.6,7.5,20.2-4.8.4-10.1-.9-13.3-4.8-3.8-4.6-5.1-10.8-4.7-16.7a11.12,11.12,0,0,1,5.1-9c3.6-2.3,8-2.5,12.1-2.4C521.65,38.35,522.65,31.65,527.05,27Z"/><path d="M527.05,27c4.7-4.9,12.2-5.8,18.5-4.4a13.34,13.34,0,0,1,9.6,8.4c1.6,4.5,1.3,9.4.5,14,2.8-.4,5.6-.8,8.3-.1A15.38,15.38,0,0,1,576,61c-1.6,6.2-5.8,12.3-12.1,14.5-3.2,1.3-6.6,1-9.9.8A17.6,17.6,0,0,0,565,63a10.2,10.2,0,0,0-4.4-10.8c-3.3-2.2-7.4-2.5-11.3-3,.3-3.9,0-8.1-2.3-11.4-3.6-5.3-12.4-5-16.1,0-2.7,3.6-3.3,8.3-3.5,12.6-5-.9-10.4,1.6-12.2,6.5-2.8,7.6,1.6,15.6,7.5,20.2-4.8.4-10.1-.9-13.3-4.8-3.8-4.6-5.1-10.8-4.7-16.7a11.12,11.12,0,0,1,5.1-9c3.6-2.3,8-2.5,12.1-2.4C521.65,38.35,522.65,31.65,527.05,27Z"/><path class="cls-5" d="M528.35,64.15c-1.4-7.7,7.1-15.3,14.6-12.4,5.1,2.6,8.2,9.4,5.7,14.8a14.64,14.64,0,0,1-7,6c-.4,6.8-1.4,14.9,3.5,20.4,4.9,4.9,12.4,5,18.9,5.1,5-.3,10.3,1,15-1,4.8-3.1,5.9-9.2,7.9-14.2-2.7-3-5.2-6.8-4.8-11,.7-5.5,5.3-10.5,11-11,7-.9,14.6,5.9,12.7,13.2-1.9,6.3-8.8,9.4-14.9,10.1.2,5.1-2.7,12.3,2.5,15.7,5,1.2,10.5,2.5,15.5,1,5.7-2.1,8.5-7.9,10.7-13.1-2.4-3.4-4.9-7.2-4.3-11.6.7-6.9,9.4-10.8,15.3-7.5,5.7,2.5,8.6,10.5,4.8,15.7-2.8,4.2-8.1,5.6-13,5.2-1.2,4.1-2.8,8.2-3.2,12.5.2,3.3,3.8,5,6.8,4.8,7.5-.2,13.7-5.8,17-12.1-.2-2.9-1.2-5.8-.4-8.6,1.7-7.5,12.3-10.6,18.1-5.9,4.3,3.9,4,11.5-.4,15.2-3,3-7.5,3.1-11.4,2.6-4.1,4.7-9.4,8.6-12.4,14.2.9,2.7,2.9,4.9,3.7,7.6.4,4.4-1.2,8.7-2.9,12.7-2.3,5-5.1,10-9,13.9-1.7,1.6-3.8,3.2-6.3,2.8-25.5-4.2-51.2-7.6-77-8.4a355.08,355.08,0,0,0-82.3,6.6c-5.3,1.1-10.1-2.3-13-6.4a40.67,40.67,0,0,1-7.3-21.9c-.3-3.6,2-7.6-.6-10.7-4-4.6-10-6.6-15-9.7-5.2,1.7-11.9,3.1-16.3-1.3-3.6-4.5-4.4-11.8-.5-16.4,4.2-5,12.9-5.1,17.2-.2,3.1,3.7,2.1,8.8,2.6,13.3,6.6,3.5,12.4,9.8,20.4,9.7,2.2-.1,2.5-2.9,2.7-4.6a30.66,30.66,0,0,0-2.5-13.4c-3.3-1.2-7.5-1.4-9.7-4.6a11.51,11.51,0,0,1,3.31-15.94l.09-.06c4.2-2.8,10.4-3.3,14.2.4s4.5,9.7,2.5,14.4c-1,2.3-3.5,3.2-5.3,4.6,1.2,5,2.6,10.7,7.1,13.8s10.4,1.7,15.5,1.3c3-.2,6.4-1.4,7.3-4.5,1.3-4.8.1-9.9-.8-14.7-3.2-1.2-7.4-1.7-9-5.2-3.7-7.1,1.3-16.8,9.3-17.5,5.8-.8,11,4.6,10.8,10.3.4,5-3.2,8.9-6.4,12.3,1.5,5.5,2.6,12.2,7.7,15.6,4.9,2.6,10.6,1.7,15.9,1.8,6.3-.3,13.7-.2,18.3-5.2,4.4-5.6,4.2-13.1,4.7-19.9C533.05,70.45,528.55,68.55,528.35,64.15Z"/><path d="M528.35,64.15c-1.4-7.7,7.1-15.3,14.6-12.4,5.1,2.6,8.2,9.4,5.7,14.8a14.64,14.64,0,0,1-7,6c-.4,6.8-1.4,14.9,3.5,20.4,4.9,4.9,12.4,5,18.9,5.1,5-.3,10.3,1,15-1,4.8-3.1,5.9-9.2,7.9-14.2-2.7-3-5.2-6.8-4.8-11,.7-5.5,5.3-10.5,11-11,7-.9,14.6,5.9,12.7,13.2-1.9,6.3-8.8,9.4-14.9,10.1.2,5.1-2.7,12.3,2.5,15.7,5,1.2,10.5,2.5,15.5,1,5.7-2.1,8.5-7.9,10.7-13.1-2.4-3.4-4.9-7.2-4.3-11.6.7-6.9,9.4-10.8,15.3-7.5,5.7,2.5,8.6,10.5,4.8,15.7-2.8,4.2-8.1,5.6-13,5.2-1.2,4.1-2.8,8.2-3.2,12.5.2,3.3,3.8,5,6.8,4.8,7.5-.2,13.7-5.8,17-12.1-.2-2.9-1.2-5.8-.4-8.6,1.7-7.5,12.3-10.6,18.1-5.9,4.3,3.9,4,11.5-.4,15.2-3,3-7.5,3.1-11.4,2.6-4.1,4.7-9.4,8.6-12.4,14.2.9,2.7,2.9,4.9,3.7,7.6.4,4.4-1.2,8.7-2.9,12.7-2.3,5-5.1,10-9,13.9-1.7,1.6-3.8,3.2-6.3,2.8-25.5-4.2-51.2-7.6-77-8.4a355.08,355.08,0,0,0-82.3,6.6c-5.3,1.1-10.1-2.3-13-6.4a40.67,40.67,0,0,1-7.3-21.9c-.3-3.6,2-7.6-.6-10.7-4-4.6-10-6.6-15-9.7-5.2,1.7-11.9,3.1-16.3-1.3-3.6-4.5-4.4-11.8-.5-16.4,4.2-5,12.9-5.1,17.2-.2,3.1,3.7,2.1,8.8,2.6,13.3,6.6,3.5,12.4,9.8,20.4,9.7,2.2-.1,2.5-2.9,2.7-4.6a30.66,30.66,0,0,0-2.5-13.4c-3.3-1.2-7.5-1.4-9.7-4.6a11.51,11.51,0,0,1,3.31-15.94l.09-.06c4.2-2.8,10.4-3.3,14.2.4s4.5,9.7,2.5,14.4c-1,2.3-3.5,3.2-5.3,4.6,1.2,5,2.6,10.7,7.1,13.8s10.4,1.7,15.5,1.3c3-.2,6.4-1.4,7.3-4.5,1.3-4.8.1-9.9-.8-14.7-3.2-1.2-7.4-1.7-9-5.2-3.7-7.1,1.3-16.8,9.3-17.5,5.8-.8,11,4.6,10.8,10.3.4,5-3.2,8.9-6.4,12.3,1.5,5.5,2.6,12.2,7.7,15.6,4.9,2.6,10.6,1.7,15.9,1.8,6.3-.3,13.7-.2,18.3-5.2,4.4-5.6,4.2-13.1,4.7-19.9C533.05,70.45,528.55,68.55,528.35,64.15Z"/><path class="cls-5" d="M397.15,67.15c1.1-4.3,5-8,9.6-7.8,7.9.4,14.3,6,19.7,11.3-6-1.6-13-3.2-18.6.3-6.1,3.8-7.5,11.8-7.2,18.5C397.35,82.65,395.15,74.65,397.15,67.15Z"/><path d="M397.15,67.15c1.1-4.3,5-8,9.6-7.8,7.9.4,14.3,6,19.7,11.3-6-1.6-13-3.2-18.6.3-6.1,3.8-7.5,11.8-7.2,18.5C397.35,82.65,395.15,74.65,397.15,67.15Z"/><path class="cls-5" d="M652.65,61.55c6.2-3.7,15-2.2,19.1,3.8,4,5.8,2.8,13.4.6,19.6-2.7-5.9-6.6-12.1-13-14.3-5-1.9-10.4-.2-15,1.9C645.75,68.25,648.35,64,652.65,61.55Z"/><path d="M652.65,61.55c6.2-3.7,15-2.2,19.1,3.8,4,5.8,2.8,13.4.6,19.6-2.7-5.9-6.6-12.1-13-14.3-5-1.9-10.4-.2-15,1.9C645.75,68.25,648.35,64,652.65,61.55Z"/><path class="cls-3" d="M496.65,103.85a600.83,600.83,0,0,1,73.5.5c13.7,1,27.5,2.5,40.9,5.8,6.2,1.6,12.5,3.5,18,7,1.7,1.1,3.7,2.5,3.7,4.8,0,6.5-3.3,12.6-7.3,17.6-1.6,1.8-3.7,4-6.4,3.7-21.1-3-42-6.9-63.2-9-23.2-2.4-46.4.9-69.4,3-8.8.8-17.6,1.9-26.4,2.5-3.6-.7-5.7-4.3-7.4-7.2-3-6.1-4.8-13.8-1.3-20,1.8-3.6,6.3-4,9.7-4.9C472.85,105.35,484.85,104.65,496.65,103.85Z"/><path class="cls-4" d="M496.65,103.85a600.83,600.83,0,0,1,73.5.5c13.7,1,27.5,2.5,40.9,5.8,6.2,1.6,12.5,3.5,18,7,1.7,1.1,3.7,2.5,3.7,4.8,0,6.5-3.3,12.6-7.3,17.6-1.6,1.8-3.7,4-6.4,3.7-21.1-3-42-6.9-63.2-9-23.2-2.4-46.4.9-69.4,3-8.8.8-17.6,1.9-26.4,2.5-3.6-.7-5.7-4.3-7.4-7.2-3-6.1-4.8-13.8-1.3-20,1.8-3.6,6.3-4,9.7-4.9C472.85,105.35,484.85,104.65,496.65,103.85Z"/><path class="cls-5" d="M529.35,112.15c8-2.8,16.7-1.4,24.8-.2,3.5.2,3.9,4.3,4,7.1s-.7,6.5-3.9,7.2c-6.5,1.6-13.2,1.2-19.8.2-2.4-.4-5.3-1.2-6.1-3.8C527,119.15,528.35,115.45,529.35,112.15Z"/><path d="M529.35,112.15c8-2.8,16.7-1.4,24.8-.2,3.5.2,3.9,4.3,4,7.1s-.7,6.5-3.9,7.2c-6.5,1.6-13.2,1.2-19.8.2-2.4-.4-5.3-1.2-6.1-3.8C527,119.15,528.35,115.45,529.35,112.15Z"/><path class="cls-5" d="M502.15,112.15c4.8-.5,9.9-1.1,14.6.3,3.1,1.7,2.3,5.9,1.3,8.7-.9,3.4-4.9,4-7.8,4.6-5.3.7-10.8,1.4-16.2.4-2.1-1.7-2-4.8-1.9-7.2C492,113.75,498.25,112.85,502.15,112.15Z"/><path d="M502.15,112.15c4.8-.5,9.9-1.1,14.6.3,3.1,1.7,2.3,5.9,1.3,8.7-.9,3.4-4.9,4-7.8,4.6-5.3.7-10.8,1.4-16.2.4-2.1-1.7-2-4.8-1.9-7.2C492,113.75,498.25,112.85,502.15,112.15Z"/><path class="cls-5" d="M569.45,114.55c6.8-1.8,14-1,20.6,1,3.3.8,3.4,4.8,3.1,7.6-.3,2-.6,5-3.1,5.3a48.42,48.42,0,0,1-20.4-.8C563.15,126.75,564.25,116.35,569.45,114.55Z"/><path d="M569.45,114.55c6.8-1.8,14-1,20.6,1,3.3.8,3.4,4.8,3.1,7.6-.3,2-.6,5-3.1,5.3a48.42,48.42,0,0,1-20.4-.8C563.15,126.75,564.25,116.35,569.45,114.55Z"/><path class="cls-5" d="M465.55,116.75c5.7-.9,11.6-1.9,17.3-.6,2.9,2.4,3.3,8.2-.3,10.3a37.06,37.06,0,0,1-12.4,4.1c-3.3.4-7.1.6-9.8-1.8a7.58,7.58,0,0,1-1.1-9.5C461.05,117.75,463.35,117.25,465.55,116.75Z"/><path d="M465.55,116.75c5.7-.9,11.6-1.9,17.3-.6,2.9,2.4,3.3,8.2-.3,10.3a37.06,37.06,0,0,1-12.4,4.1c-3.3.4-7.1.6-9.8-1.8a7.58,7.58,0,0,1-1.1-9.5C461.05,117.75,463.35,117.25,465.55,116.75Z"/><path class="cls-5" d="M602.65,119.75c5.3-1.7,11.1-.4,16.1,1.5,5.1,1.7,5.2,10.2,1.2,12.9-6.2.3-12.7-.2-18.5-2.7C598,128.55,599.85,122.65,602.65,119.75Z"/><path d="M602.65,119.75c5.3-1.7,11.1-.4,16.1,1.5,5.1,1.7,5.2,10.2,1.2,12.9-6.2.3-12.7-.2-18.5-2.7C598,128.55,599.85,122.65,602.65,119.75Z"/><path class="cls-5" d="M171.35,156c.8-3.8,3.7-7.7,7.8-8.2,2.4.1,1.9,2.8,1.5,4.4-1.7,6.6.4,13.5,4.3,18.9a55.4,55.4,0,0,0,16.1,14c10.2,6.3,21.5,10.4,32.9,14-10,4.7-18.6,11.9-26.4,19.6-25.6,26.3-44.6,58.8-73.5,81.7-16.3,13.2-36.8,22-58.1,21.7-12.7.4-26.2-3.1-35-12.7-7.7-8.1-10.9-19.8-9.4-30.7-5.6-4.3-10.5-10.4-11.6-17.6-.7-3.6,1.6-9,6.1-7.6,4.2,4.2,2.3,11.7,7.4,15.6a42.3,42.3,0,0,1,3.1-6.9c1.1,1.3,2.2,2.7,3.2,4-1,11.5-1.9,24.1,3.9,34.5,4.6,7.9,14,10.9,22.4,12.5,15.3,2.8,30.7-3.2,43-12.2,12.6-9,22.5-21.1,32-33.2,21.6-26.4,47-50.1,76.2-67.8-18.6-5.3-35.3-15.4-52.3-24.4-11.9-6.1-25.1-12.3-38.8-9.9-12,2.3-23.8,8.3-31.1,18.4s-9.4,23.3-7.7,35.5c2.9,0,6-.1,8.5,1.6,4.7,2.8,5.5,9.9,2.1,14-4.9,5.2-15.5,3-17.2-4.1-1-3.1.6-6.1,2-8.8-4-19.2,1.2-41.1,16.5-54.1-5.5-2.2-11.4,2.3-16.9-.5-2.1-.9-2.3-3.7-1.1-5.4,1.7-2.4,4.7-3.5,7.5-3.8,4.9-.7,9.3,2.3,14.2,1.9,5.7-.2,11.6-.4,16.8-2.7,8.3-3.1,17.5-2.9,26-1.1a93.17,93.17,0,0,1,28.6,11.4C173.75,163.85,170.55,160.35,171.35,156Z"/><path d="M171.35,156c.8-3.8,3.7-7.7,7.8-8.2,2.4.1,1.9,2.8,1.5,4.4-1.7,6.6.4,13.5,4.3,18.9a55.4,55.4,0,0,0,16.1,14c10.2,6.3,21.5,10.4,32.9,14-10,4.7-18.6,11.9-26.4,19.6-25.6,26.3-44.6,58.8-73.5,81.7-16.3,13.2-36.8,22-58.1,21.7-12.7.4-26.2-3.1-35-12.7-7.7-8.1-10.9-19.8-9.4-30.7-5.6-4.3-10.5-10.4-11.6-17.6-.7-3.6,1.6-9,6.1-7.6,4.2,4.2,2.3,11.7,7.4,15.6a42.3,42.3,0,0,1,3.1-6.9c1.1,1.3,2.2,2.7,3.2,4-1,11.5-1.9,24.1,3.9,34.5,4.6,7.9,14,10.9,22.4,12.5,15.3,2.8,30.7-3.2,43-12.2,12.6-9,22.5-21.1,32-33.2,21.6-26.4,47-50.1,76.2-67.8-18.6-5.3-35.3-15.4-52.3-24.4-11.9-6.1-25.1-12.3-38.8-9.9-12,2.3-23.8,8.3-31.1,18.4s-9.4,23.3-7.7,35.5c2.9,0,6-.1,8.5,1.6,4.7,2.8,5.5,9.9,2.1,14-4.9,5.2-15.5,3-17.2-4.1-1-3.1.6-6.1,2-8.8-4-19.2,1.2-41.1,16.5-54.1-5.5-2.2-11.4,2.3-16.9-.5-2.1-.9-2.3-3.7-1.1-5.4,1.7-2.4,4.7-3.5,7.5-3.8,4.9-.7,9.3,2.3,14.2,1.9,5.7-.2,11.6-.4,16.8-2.7,8.3-3.1,17.5-2.9,26-1.1a93.17,93.17,0,0,1,28.6,11.4C173.75,163.85,170.55,160.35,171.35,156Z"/><path class="cls-5" d="M909.15,154.15c1.1-2.6,2.7-5.9,5.9-6.4,2-.5,3.4,1.6,3.7,3.3.5,3.9-.8,7.6-1.7,11.3,12.3-3.4,25.7-4.3,38.1-.8,9.4,3.3,18.8,7.6,29,7.7,3.9.2,7-3.2,10.9-2.4,2.7,2.3.9,6.9-2,8.3-5.2,2.5-11.2,2.1-16.8,2.9,7.9,14.2,10,32.5,1.9,47,3.7,7.1-1.8,17.4-10.2,16.9-5.2.3-10.2-4.9-8.5-10.1,1.1-6.6,8.5-9.7,14.6-8.9,9.9-17.2,1.8-41.3-15.5-50.4-10-5.2-21.9-4.9-32.5-1.8-19.4,5.6-37.3,15.1-55.5,23.5-6,2.7-11.9,5.6-18.3,7.1,15.1,8.8,28.4,20.2,41.4,31.8a617.24,617.24,0,0,1,55.2,58c4.3,5,8.2,10.5,13.5,14.6,9,7.5,20.8,12.1,32.6,11.5a40.66,40.66,0,0,0,28.8-14.7,38.23,38.23,0,0,0,7.8-32.7c1-1.3,2-2.5,3.1-3.8a20.56,20.56,0,0,1,3.1,9.3,18.47,18.47,0,0,0,5.9-5.9c1.4-2.4,4.3-4.9,7.2-3.4,2.2,2.3,1.8,6.2.2,8.7-3.4,3.9-8.3,5.9-13.1,7.6-.2,14.7-10,27.9-22.7,34.6-20,10.4-45.4,8.2-64.3-3.7-13.7-9-25.4-20.7-36-33.1-25.1-29.1-51.8-57.1-82.2-80.8,16.8.5,32.8-6.2,46.7-15.3C891.25,176.75,904.15,168.05,909.15,154.15Z"/><path d="M909.15,154.15c1.1-2.6,2.7-5.9,5.9-6.4,2-.5,3.4,1.6,3.7,3.3.5,3.9-.8,7.6-1.7,11.3,12.3-3.4,25.7-4.3,38.1-.8,9.4,3.3,18.8,7.6,29,7.7,3.9.2,7-3.2,10.9-2.4,2.7,2.3.9,6.9-2,8.3-5.2,2.5-11.2,2.1-16.8,2.9,7.9,14.2,10,32.5,1.9,47,3.7,7.1-1.8,17.4-10.2,16.9-5.2.3-10.2-4.9-8.5-10.1,1.1-6.6,8.5-9.7,14.6-8.9,9.9-17.2,1.8-41.3-15.5-50.4-10-5.2-21.9-4.9-32.5-1.8-19.4,5.6-37.3,15.1-55.5,23.5-6,2.7-11.9,5.6-18.3,7.1,15.1,8.8,28.4,20.2,41.4,31.8a617.24,617.24,0,0,1,55.2,58c4.3,5,8.2,10.5,13.5,14.6,9,7.5,20.8,12.1,32.6,11.5a40.66,40.66,0,0,0,28.8-14.7,38.23,38.23,0,0,0,7.8-32.7c1-1.3,2-2.5,3.1-3.8a20.56,20.56,0,0,1,3.1,9.3,18.47,18.47,0,0,0,5.9-5.9c1.4-2.4,4.3-4.9,7.2-3.4,2.2,2.3,1.8,6.2.2,8.7-3.4,3.9-8.3,5.9-13.1,7.6-.2,14.7-10,27.9-22.7,34.6-20,10.4-45.4,8.2-64.3-3.7-13.7-9-25.4-20.7-36-33.1-25.1-29.1-51.8-57.1-82.2-80.8,16.8.5,32.8-6.2,46.7-15.3C891.25,176.75,904.15,168.05,909.15,154.15Z"/><path class="cls-5" d="M518.05,158.05c.7-3.9,3.8-7.7,8-8,2.4.4,1.3,3.4,1.1,5-2.2,9.8,3.8,19,10.8,25.3-3.4,2.1-6.8,4.2-10.1,6.3-15.5-8-30.8-18.6-48.8-19.2-13.5.6-27.1,6.6-35.9,17-3.6,4.2-5.9,9.3-7.8,14.5a58.13,58.13,0,0,0-5.9-.3,53.7,53.7,0,0,1,16.5-28.4c-5.6-1.7-11.5,2.4-16.9-.2-2.3-.9-2.4-4-1-5.7,1.9-2.4,5-3.4,8-3.6,4.4-.4,8.5,2.1,12.9,2,5.7-.2,11.7-.2,17-2.5,11-4.2,23.2-2.6,34.1.8a105.32,105.32,0,0,1,20.9,9.3C520.35,166.05,516.85,162.45,518.05,158.05Z"/><path d="M518.05,158.05c.7-3.9,3.8-7.7,8-8,2.4.4,1.3,3.4,1.1,5-2.2,9.8,3.8,19,10.8,25.3-3.4,2.1-6.8,4.2-10.1,6.3-15.5-8-30.8-18.6-48.8-19.2-13.5.6-27.1,6.6-35.9,17-3.6,4.2-5.9,9.3-7.8,14.5a58.13,58.13,0,0,0-5.9-.3,53.7,53.7,0,0,1,16.5-28.4c-5.6-1.7-11.5,2.4-16.9-.2-2.3-.9-2.4-4-1-5.7,1.9-2.4,5-3.4,8-3.6,4.4-.4,8.5,2.1,12.9,2,5.7-.2,11.7-.2,17-2.5,11-4.2,23.2-2.6,34.1.8a105.32,105.32,0,0,1,20.9,9.3C520.35,166.05,516.85,162.45,518.05,158.05Z"/><path class="cls-5" d="M563.45,157.55c1.1-2.6,2.6-5.6,5.7-6.2,1.8-.6,3.3,1.1,3.8,2.7.7,4-.7,8-1.6,11.8a75.43,75.43,0,0,1,34.7-1.7c7,1.5,13.3,5.1,20.3,6.7,5.6,1.4,11.8,3.2,17.4.6,1.9-.7,4.7-2.3,6.4-.3,1.8,2.8-.3,6.7-3.2,7.9-5.1,2.2-10.8,1.9-16.2,2.6,7.9,14.2,10,32.5,1.8,47,3.8,7.1-1.9,17.5-10.3,16.9-5.4.2-10.1-5.2-8.3-10.5,1.4-6.5,8.6-9.2,14.6-8.7,10.9-19-.3-46.3-21.2-52.6-9.9-3.2-20.6-1.7-30.3,1.5-18.5,6-35.8,15-53.4,23.1-5.5,2.5-11.1,5.1-17,6.5,11.2,6.5,21.4,14.6,31.3,23l-3.8,3.5c-10.2-8.4-20.4-16.8-32-23.2,7.4,6.3,14.8,12.7,21.9,19.4-1.5,1.2-3,2.3-4.5,3.5q-15.75-14.7-32.5-28c16.6.5,32.5-6.1,46.2-15C545.25,180.45,558.45,171.65,563.45,157.55Z"/><path d="M563.45,157.55c1.1-2.6,2.6-5.6,5.7-6.2,1.8-.6,3.3,1.1,3.8,2.7.7,4-.7,8-1.6,11.8a75.43,75.43,0,0,1,34.7-1.7c7,1.5,13.3,5.1,20.3,6.7,5.6,1.4,11.8,3.2,17.4.6,1.9-.7,4.7-2.3,6.4-.3,1.8,2.8-.3,6.7-3.2,7.9-5.1,2.2-10.8,1.9-16.2,2.6,7.9,14.2,10,32.5,1.8,47,3.8,7.1-1.9,17.5-10.3,16.9-5.4.2-10.1-5.2-8.3-10.5,1.4-6.5,8.6-9.2,14.6-8.7,10.9-19-.3-46.3-21.2-52.6-9.9-3.2-20.6-1.7-30.3,1.5-18.5,6-35.8,15-53.4,23.1-5.5,2.5-11.1,5.1-17,6.5,11.2,6.5,21.4,14.6,31.3,23l-3.8,3.5c-10.2-8.4-20.4-16.8-32-23.2,7.4,6.3,14.8,12.7,21.9,19.4-1.5,1.2-3,2.3-4.5,3.5q-15.75-14.7-32.5-28c16.6.5,32.5-6.1,46.2-15C545.25,180.45,558.45,171.65,563.45,157.55Z"/><path class="cls-5" d="M737,189.05c2.7-2.1,6.7-1.9,9.7-.5a32.93,32.93,0,0,1,12.6,10.2c16.5-2.2,33.5,2.8,47,12.3,12.5,8.7,22.2,20.8,30,33.8,20.1,31.4,42.9,61.3,70.1,86.9,12.6,11.7,26.2,22.4,41.3,30.6,10.4,5.5,21.6,10.2,33.4,11.4,14.8,0,29.4-10,34.4-24,2.5-9.5,2.2-19.5,1.1-29.2,1.8-1,3.6-2,5.4-2.9a102.45,102.45,0,0,1,.2,28.2c5.1-3.5,9.3-8.1,14.8-10.9,2.6-1.3,6.8-2.4,8.3.9,1.7,4.4-1.9,9-5.8,10.7-6.6,2.6-13.3,4.7-19.8,7.4-5.9,12.3-17.3,22-30.7,25.2-13.7,3.4-28,.7-41-4.1-29.3-11.3-55.4-30.2-76.4-53.4-8.1-8.9-15.5-18.4-22.9-27.8-9.6-13.8-17.4-28.6-26.6-42.6-8.9-13.7-18.6-27.4-31.5-37.7-7.9-6.3-18.4-10.9-28.6-8.3-9.5,2.5-17.4,9.1-23,16.9s-8.7,18.4-5.9,28c2.2,8.5,9.3,15.7,18.1,17.2,5.1,1,11.2-.6,14.1-5.2,2-2.9,2.3-6.5,2.3-9.9-2.6,2.9-6.4,5.3-10.5,4.2-6.4-1.4-7.9-10.5-3.7-14.9,3.6-4.3,11.3-4,14.4.9,4.9,7.3,4.2,18.2-1.8,24.7-5.3,5.5-14,5.7-20.8,3.4-7.4-2.4-13.1-8.5-16.2-15.4-4-8.9-4.9-19.6-1-28.7,4.3-10.4,13.2-18.2,23.1-23.2-4.7-1.6-9.8-3-13.4-6.6C736,194.55,734.65,191,737,189.05Z"/><path d="M737,189.05c2.7-2.1,6.7-1.9,9.7-.5a32.93,32.93,0,0,1,12.6,10.2c16.5-2.2,33.5,2.8,47,12.3,12.5,8.7,22.2,20.8,30,33.8,20.1,31.4,42.9,61.3,70.1,86.9,12.6,11.7,26.2,22.4,41.3,30.6,10.4,5.5,21.6,10.2,33.4,11.4,14.8,0,29.4-10,34.4-24,2.5-9.5,2.2-19.5,1.1-29.2,1.8-1,3.6-2,5.4-2.9a102.45,102.45,0,0,1,.2,28.2c5.1-3.5,9.3-8.1,14.8-10.9,2.6-1.3,6.8-2.4,8.3.9,1.7,4.4-1.9,9-5.8,10.7-6.6,2.6-13.3,4.7-19.8,7.4-5.9,12.3-17.3,22-30.7,25.2-13.7,3.4-28,.7-41-4.1-29.3-11.3-55.4-30.2-76.4-53.4-8.1-8.9-15.5-18.4-22.9-27.8-9.6-13.8-17.4-28.6-26.6-42.6-8.9-13.7-18.6-27.4-31.5-37.7-7.9-6.3-18.4-10.9-28.6-8.3-9.5,2.5-17.4,9.1-23,16.9s-8.7,18.4-5.9,28c2.2,8.5,9.3,15.7,18.1,17.2,5.1,1,11.2-.6,14.1-5.2,2-2.9,2.3-6.5,2.3-9.9-2.6,2.9-6.4,5.3-10.5,4.2-6.4-1.4-7.9-10.5-3.7-14.9,3.6-4.3,11.3-4,14.4.9,4.9,7.3,4.2,18.2-1.8,24.7-5.3,5.5-14,5.7-20.8,3.4-7.4-2.4-13.1-8.5-16.2-15.4-4-8.9-4.9-19.6-1-28.7,4.3-10.4,13.2-18.2,23.1-23.2-4.7-1.6-9.8-3-13.4-6.6C736,194.55,734.65,191,737,189.05Z"/><path class="cls-5" d="M543.35,194.45a49.24,49.24,0,0,1,7.6-5.3c9.4,5.4,19.7,8.9,29.9,12.3a2.94,2.94,0,0,1-1.6.5c-15.8,7.8-28,21.1-39.2,34.4l-4.2-3.6c2.6-3.3,5.2-6.6,7.9-9.9a56.65,56.65,0,0,0-4.9,3.7c-1.4-1.4-2.8-2.7-4.2-4.1a235.62,235.62,0,0,1,29-20.4A138.45,138.45,0,0,1,543.35,194.45Z"/><path d="M543.35,194.45a49.24,49.24,0,0,1,7.6-5.3c9.4,5.4,19.7,8.9,29.9,12.3a2.94,2.94,0,0,1-1.6.5c-15.8,7.8-28,21.1-39.2,34.4l-4.2-3.6c2.6-3.3,5.2-6.6,7.9-9.9a56.65,56.65,0,0,0-4.9,3.7c-1.4-1.4-2.8-2.7-4.2-4.1a235.62,235.62,0,0,1,29-20.4A138.45,138.45,0,0,1,543.35,194.45Z"/><path class="cls-5" d="M391.45,192.35c2.6-1.9,6.2-1.6,9.1-.5a30.71,30.71,0,0,1,13,10.4,66.06,66.06,0,0,1,41,8.5c13.1,7.3,23.7,18.6,31.9,31,5,7.8,9.8,15.6,15.1,23.2-1.3,1.3-2.6,2.5-4,3.7-12.4-19.5-24.9-40.1-44.7-52.9a198.44,198.44,0,0,1,35.4,47.1c-1.2,1.6-2.4,3.3-3.6,4.9-10.6-17-21.3-34.3-36.2-47.8-7.3-6.4-16.3-11.9-26.3-12-9.3.3-17.7,5.5-24.1,12-6.5,6.8-11.3,15.7-11.6,25.2-.3,8.8,3.7,17.9,11.3,22.6,5.7,3.7,13.9,4.9,19.5.5,3.8-2.9,4.9-7.9,4.8-12.4-2.6,2.5-5.9,5.1-9.8,4.2-7-.8-8.9-10.7-4.3-15.2,3.7-4.1,11.3-3.6,14.3,1.2,5.9,8.8,3.5,23.2-6.5,27.8-9.3,3.7-20.6.3-27.1-7.1-9.1-10.6-11.6-27-5-39.5,4.7-9.1,12.9-15.9,21.8-20.7-4.8-1.6-10.1-3.1-13.6-6.9C389.85,197.65,389.05,194.05,391.45,192.35Z"/><path d="M391.45,192.35c2.6-1.9,6.2-1.6,9.1-.5a30.71,30.71,0,0,1,13,10.4,66.06,66.06,0,0,1,41,8.5c13.1,7.3,23.7,18.6,31.9,31,5,7.8,9.8,15.6,15.1,23.2-1.3,1.3-2.6,2.5-4,3.7-12.4-19.5-24.9-40.1-44.7-52.9a198.44,198.44,0,0,1,35.4,47.1c-1.2,1.6-2.4,3.3-3.6,4.9-10.6-17-21.3-34.3-36.2-47.8-7.3-6.4-16.3-11.9-26.3-12-9.3.3-17.7,5.5-24.1,12-6.5,6.8-11.3,15.7-11.6,25.2-.3,8.8,3.7,17.9,11.3,22.6,5.7,3.7,13.9,4.9,19.5.5,3.8-2.9,4.9-7.9,4.8-12.4-2.6,2.5-5.9,5.1-9.8,4.2-7-.8-8.9-10.7-4.3-15.2,3.7-4.1,11.3-3.6,14.3,1.2,5.9,8.8,3.5,23.2-6.5,27.8-9.3,3.7-20.6.3-27.1-7.1-9.1-10.6-11.6-27-5-39.5,4.7-9.1,12.9-15.9,21.8-20.7-4.8-1.6-10.1-3.1-13.6-6.9C389.85,197.65,389.05,194.05,391.45,192.35Z"/><path class="cls-5" d="M319.05,200.05a22.57,22.57,0,0,1,19-5.1c2.3.6,5.4,1.4,6,4.1-.4,2.5-2.9,3.3-5,4-4.5,1.3-9.1,1.3-13.7,1.5,10.5,8.1,18.5,20.1,19.9,33.5,1.1,9.2-1,19-6.8,26.4-4.8,6.1-13.4,9.7-21,7.1-10.4-3.7-14.7-18.4-7.8-27.1,3.9-5.3,12.7-8.2,17.8-2.9,5.4,5.1-.4,14.8-7.3,14-4.1.2-7.1-2.9-8.8-6.4-.8,3-1.8,6.3-.8,9.4,1.7,6.1,8.1,10.7,14.4,9.6,5.4-1,9.6-5.3,12.1-10,3.8-8.1,3.6-17.6,1.5-26.2a40.45,40.45,0,0,0-21.5-25c-14.4-7-32.8-5.4-45.4,4.7-5.2,3.9-8.8,9.3-12.7,14.4-11.4,15.1-21.4,31.3-31.2,47.6-11.5,19.2-22.8,38.7-37.3,55.8a166.34,166.34,0,0,1-37.8,33.2c-16.9,10.3-37.7,13.4-57.1,10.5-11.7-1.8-23.4-5.6-32.8-13.1A30.91,30.91,0,0,1,52.45,346c-.6-2.5-3.5-2.8-5.6-3.5-4.9-1-10.1-3-13.1-7.2-1.9-3,.8-6.8,4.2-6.6,5-.1,7.4,5.4,11.9,6.8a73,73,0,0,1-.5-15.5c1.8.7,3.5,1.5,5.3,2.2-1.2,11.7,2.3,24.2,11.3,32.1,12.7,11.1,31.1,13.3,47.2,9.7,9.9-2,18.8-7,27.2-12.6a173.87,173.87,0,0,0,35.9-32c14.5-16.7,26.2-35.5,37.7-54.3,9.4-15.1,18.6-30.4,30.7-43.5,10.7-11.8,24.6-21,40.3-24.2C296.25,194.45,308.15,196.05,319.05,200.05Z"/><path d="M319.05,200.05a22.57,22.57,0,0,1,19-5.1c2.3.6,5.4,1.4,6,4.1-.4,2.5-2.9,3.3-5,4-4.5,1.3-9.1,1.3-13.7,1.5,10.5,8.1,18.5,20.1,19.9,33.5,1.1,9.2-1,19-6.8,26.4-4.8,6.1-13.4,9.7-21,7.1-10.4-3.7-14.7-18.4-7.8-27.1,3.9-5.3,12.7-8.2,17.8-2.9,5.4,5.1-.4,14.8-7.3,14-4.1.2-7.1-2.9-8.8-6.4-.8,3-1.8,6.3-.8,9.4,1.7,6.1,8.1,10.7,14.4,9.6,5.4-1,9.6-5.3,12.1-10,3.8-8.1,3.6-17.6,1.5-26.2a40.45,40.45,0,0,0-21.5-25c-14.4-7-32.8-5.4-45.4,4.7-5.2,3.9-8.8,9.3-12.7,14.4-11.4,15.1-21.4,31.3-31.2,47.6-11.5,19.2-22.8,38.7-37.3,55.8a166.34,166.34,0,0,1-37.8,33.2c-16.9,10.3-37.7,13.4-57.1,10.5-11.7-1.8-23.4-5.6-32.8-13.1A30.91,30.91,0,0,1,52.45,346c-.6-2.5-3.5-2.8-5.6-3.5-4.9-1-10.1-3-13.1-7.2-1.9-3,.8-6.8,4.2-6.6,5-.1,7.4,5.4,11.9,6.8a73,73,0,0,1-.5-15.5c1.8.7,3.5,1.5,5.3,2.2-1.2,11.7,2.3,24.2,11.3,32.1,12.7,11.1,31.1,13.3,47.2,9.7,9.9-2,18.8-7,27.2-12.6a173.87,173.87,0,0,0,35.9-32c14.5-16.7,26.2-35.5,37.7-54.3,9.4-15.1,18.6-30.4,30.7-43.5,10.7-11.8,24.6-21,40.3-24.2C296.25,194.45,308.15,196.05,319.05,200.05Z"/><path class="cls-5" d="M665.55,202.35a23,23,0,0,1,20-4.9c2.1.7,5,1.7,5,4.4-.6,1.9-2.6,2.7-4.3,3.3-4.6,1.5-9.5,1.4-14.2,1.7,9.3,7.4,16.7,17.5,19.1,29.2,2.3,10.4.6,22.2-6,30.7-5.8,7.6-17.8,10.7-26,5.2-7.8-6.2-7.9-18.6-2.6-26.4,3-4.4,9.4-6.6,14.4-4.4,5.3,2.9,4.9,11.7-.6,14.3-4.3,2.3-8.9-.2-12.5-2.7-.6,2.7-1.5,5.5-.7,8.3,1.3,6.5,8.4,11.2,14.9,9.5,4.8-1.4,8.3-5.5,10.5-9.8a38.18,38.18,0,0,0,2.2-26.6,38.69,38.69,0,0,0-20.5-24.4,45.27,45.27,0,0,0-21.7-4.6c-.4-2.3-.8-4.5-1.2-6.7C649.55,197.65,657.75,199.65,665.55,202.35Z"/><path d="M665.55,202.35a23,23,0,0,1,20-4.9c2.1.7,5,1.7,5,4.4-.6,1.9-2.6,2.7-4.3,3.3-4.6,1.5-9.5,1.4-14.2,1.7,9.3,7.4,16.7,17.5,19.1,29.2,2.3,10.4.6,22.2-6,30.7-5.8,7.6-17.8,10.7-26,5.2-7.8-6.2-7.9-18.6-2.6-26.4,3-4.4,9.4-6.6,14.4-4.4,5.3,2.9,4.9,11.7-.6,14.3-4.3,2.3-8.9-.2-12.5-2.7-.6,2.7-1.5,5.5-.7,8.3,1.3,6.5,8.4,11.2,14.9,9.5,4.8-1.4,8.3-5.5,10.5-9.8a38.18,38.18,0,0,0,2.2-26.6,38.69,38.69,0,0,0-20.5-24.4,45.27,45.27,0,0,0-21.7-4.6c-.4-2.3-.8-4.5-1.2-6.7C649.55,197.65,657.75,199.65,665.55,202.35Z"/><path class="cls-5" d="M602,214.05a70.57,70.57,0,0,1,25.4-13.4l1.8,7.2a42.43,42.43,0,0,0-17.1,12.2c-13.5,16.6-24.8,34.8-35.9,53.1-1.2-1.3-2.4-2.6-3.7-3.9,10.5-16.5,21.2-32.9,31.5-49.6-6.3,5.3-11.2,12-16.2,18.4-4.6,6.2-9.1,12.5-13.3,19a54.36,54.36,0,0,1-4.8-4.8C579.05,238.45,588.85,224.55,602,214.05Z"/><path d="M602,214.05a70.57,70.57,0,0,1,25.4-13.4l1.8,7.2a42.43,42.43,0,0,0-17.1,12.2c-13.5,16.6-24.8,34.8-35.9,53.1-1.2-1.3-2.4-2.6-3.7-3.9,10.5-16.5,21.2-32.9,31.5-49.6-6.3,5.3-11.2,12-16.2,18.4-4.6,6.2-9.1,12.5-13.3,19a54.36,54.36,0,0,1-4.8-4.8C579.05,238.45,588.85,224.55,602,214.05Z"/><path class="cls-3" d="M848.35,205.05c16.2,9.4,30.5,21.8,44.3,34.4,13.5,13.2,26.3,27.1,38.9,41.2,6.9,7.4,12.7,15.9,20.5,22.4a85.44,85.44,0,0,0,25,15.6c-17.7-2.1-32.1-14.3-43.3-27.4A708.81,708.81,0,0,0,848.35,205.05Z"/><path class="cls-4" d="M848.35,205.05c16.2,9.4,30.5,21.8,44.3,34.4,13.5,13.2,26.3,27.1,38.9,41.2,6.9,7.4,12.7,15.9,20.5,22.4a85.44,85.44,0,0,0,25,15.6c-17.7-2.1-32.1-14.3-43.3-27.4A708.81,708.81,0,0,0,848.35,205.05Z"/><path class="cls-5" d="M428.25,210.75c1.6.4,3.3.8,5,1.3a78.47,78.47,0,0,0,.8,9.8c3-.1,6.1-.1,8.7,1.7,5.4,3.4,5.3,13.1-.8,15.8-5.3,2.4-13.2-.1-14.5-6.2-.9-3.2,1-6.1,1.9-9A74.27,74.27,0,0,1,428.25,210.75Z"/><path d="M428.25,210.75c1.6.4,3.3.8,5,1.3a78.47,78.47,0,0,0,.8,9.8c3-.1,6.1-.1,8.7,1.7,5.4,3.4,5.3,13.1-.8,15.8-5.3,2.4-13.2-.1-14.5-6.2-.9-3.2,1-6.1,1.9-9A74.27,74.27,0,0,1,428.25,210.75Z"/><path class="cls-3" d="M798,211.75c12.4,7.8,22.1,19.1,30.6,30.9,13.8,19.4,24.7,40.7,39.6,59.3,9.4,11.2,18.6,22.7,29.8,32.2,13.9,12,29.4,22,44.8,32-11.8-4.6-22.7-11.5-33.1-18.8-31-21.6-54.5-52.2-73.5-84.4C825.75,244.35,813.55,226.35,798,211.75Z"/><path class="cls-4" d="M798,211.75c12.4,7.8,22.1,19.1,30.6,30.9,13.8,19.4,24.7,40.7,39.6,59.3,9.4,11.2,18.6,22.7,29.8,32.2,13.9,12,29.4,22,44.8,32-11.8-4.6-22.7-11.5-33.1-18.8-31-21.6-54.5-52.2-73.5-84.4C825.75,244.35,813.55,226.35,798,211.75Z"/><path class="cls-3" d="M245,231.05a87.49,87.49,0,0,1,12.4-13.4c-17.8,28.4-35.9,56.5-54.1,84.7a207.8,207.8,0,0,1-36.8,42.1c-12.4,10.4-26.7,19.6-42.7,23,23.6-10,43.1-27.6,59.8-46.9a238.37,238.37,0,0,0,17.3-22.7C215,275.15,228.55,252.15,245,231.05Z"/><path class="cls-4" d="M245,231.05a87.49,87.49,0,0,1,12.4-13.4c-17.8,28.4-35.9,56.5-54.1,84.7a207.8,207.8,0,0,1-36.8,42.1c-12.4,10.4-26.7,19.6-42.7,23,23.6-10,43.1-27.6,59.8-46.9a238.37,238.37,0,0,0,17.3-22.7C215,275.15,228.55,252.15,245,231.05Z"/><path class="cls-3" d="M178.25,238.25c6.2-6,11.9-12.5,18.8-17.7-8.6,11.4-18,22.2-27.3,33.1-11.6,13.5-24.4,25.7-37.6,37.6a206.53,206.53,0,0,1-19.3,15.6c-2.8,1.8-5.7,3.8-9.1,4.1,9.7-6.5,18.2-14.5,26.5-22.7C146.65,272.05,162.15,254.85,178.25,238.25Z"/><path class="cls-4" d="M178.25,238.25c6.2-6,11.9-12.5,18.8-17.7-8.6,11.4-18,22.2-27.3,33.1-11.6,13.5-24.4,25.7-37.6,37.6a206.53,206.53,0,0,1-19.3,15.6c-2.8,1.8-5.7,3.8-9.1,4.1,9.7-6.5,18.2-14.5,26.5-22.7C146.65,272.05,162.15,254.85,178.25,238.25Z"/><path class="cls-5" d="M526.25,230.15c2,.2,3.3,2.4,4.9,3.5-8.8,9.3-17.8,18.3-26.3,27.8-1.6-2-3.7-3.7-4.8-6A329.3,329.3,0,0,1,526.25,230.15Z"/><path d="M526.25,230.15c2,.2,3.3,2.4,4.9,3.5-8.8,9.3-17.8,18.3-26.3,27.8-1.6-2-3.7-3.7-4.8-6A329.3,329.3,0,0,1,526.25,230.15Z"/><path class="cls-5" d="M545.55,234.55c9.3,8.3,18.1,17.2,26.9,26-1.2,1.6-2.4,3.3-3.6,4.9-8.7-9.1-17.2-18.4-26.5-26.9C543.45,237.25,544.55,236,545.55,234.55Z"/><path d="M545.55,234.55c9.3,8.3,18.1,17.2,26.9,26-1.2,1.6-2.4,3.3-3.6,4.9-8.7-9.1-17.2-18.4-26.5-26.9C543.45,237.25,544.55,236,545.55,234.55Z"/><path class="cls-5" d="M529.25,240.65c1.3-1.5,2.6-3,4-4.5,8.8,8.2,17.2,16.9,25.6,25.5-1.3,1.9-2.7,3.8-4,5.7C546.35,258.35,538.05,249.15,529.25,240.65Z"/><path d="M529.25,240.65c1.3-1.5,2.6-3,4-4.5,8.8,8.2,17.2,16.9,25.6,25.5-1.3,1.9-2.7,3.8-4,5.7C546.35,258.35,538.05,249.15,529.25,240.65Z"/><path class="cls-5" d="M527.45,242.85l4.1,4c-8.9,11.1-17.7,22.3-27.1,33-1.4-2.1-2.6-4.4-3.8-6.6C510.15,263.65,518.75,253.15,527.45,242.85Z"/><path d="M527.45,242.85l4.1,4c-8.9,11.1-17.7,22.3-27.1,33-1.4-2.1-2.6-4.4-3.8-6.6C510.15,263.65,518.75,253.15,527.45,242.85Z"/><path class="cls-5" d="M226.45,327.45c17.4-24.5,32.6-50.5,47.4-76.7,12.2,5.1,23.8,11.9,33.1,21.3,7.6,7.7,13.6,17.9,13.6,29,.4,10.3-4,20.2-9.8,28.5a40.41,40.41,0,0,1-34.6,16.9c-5.7-.4-11.6-1.9-15.8-5.9-2.9-2.8-4.9-7.1-3.6-11.1,1.4-3.7,5.8-5,9.4-4.7,8.3.7,15.6,5.4,21.7,10.7-1.5.5-2.9,1-4.4,1.5-5-3.3-10.4-6.5-16.4-7.5-2.3-.5-5.7.7-5.5,3.5,1.2,3.7,4.8,5.9,8.3,7.2,8.3,3,17.9.5,24.6-5,5.9-5.3,10-12.4,13-19.7,4.4-10.9,4.9-23.9-.8-34.4-5.8-10.9-16.4-18-27.3-23.1-12.4,35-29.1,69.3-54,97.2-15.3,17.4-33.5,31.8-51.5,46.2l-2.5-2.6a300.08,300.08,0,0,0,64.7-67.9c11.4-16.7,21.7-34.4,29-53.3-9,17.8-20,34.4-31.8,50.5-18.8,25.2-39.5,49.4-64.5,68.5-.9-1-1.7-1.9-2.6-2.8C188.55,374.05,209.15,352,226.45,327.45Z"/><path d="M226.45,327.45c17.4-24.5,32.6-50.5,47.4-76.7,12.2,5.1,23.8,11.9,33.1,21.3,7.6,7.7,13.6,17.9,13.6,29,.4,10.3-4,20.2-9.8,28.5a40.41,40.41,0,0,1-34.6,16.9c-5.7-.4-11.6-1.9-15.8-5.9-2.9-2.8-4.9-7.1-3.6-11.1,1.4-3.7,5.8-5,9.4-4.7,8.3.7,15.6,5.4,21.7,10.7-1.5.5-2.9,1-4.4,1.5-5-3.3-10.4-6.5-16.4-7.5-2.3-.5-5.7.7-5.5,3.5,1.2,3.7,4.8,5.9,8.3,7.2,8.3,3,17.9.5,24.6-5,5.9-5.3,10-12.4,13-19.7,4.4-10.9,4.9-23.9-.8-34.4-5.8-10.9-16.4-18-27.3-23.1-12.4,35-29.1,69.3-54,97.2-15.3,17.4-33.5,31.8-51.5,46.2l-2.5-2.6a300.08,300.08,0,0,0,64.7-67.9c11.4-16.7,21.7-34.4,29-53.3-9,17.8-20,34.4-31.8,50.5-18.8,25.2-39.5,49.4-64.5,68.5-.9-1-1.7-1.9-2.6-2.8C188.55,374.05,209.15,352,226.45,327.45Z"/><path class="cls-5" d="M620.45,253.05c14.5,6.1,28.6,14.7,38.3,27.4,7.3,9.4,10.5,22.1,7.1,33.7-3.5,12-10.8,23.6-22.1,29.8-8.7,4.6-19.2,6.4-28.8,3.6-4.3-1.4-8.6-3.8-10.8-7.9-1.4-2.6-2.2-5.9-.6-8.6,1.5-3,5.3-3.9,8.4-3.9,8.5.4,16,5.4,22.3,10.8l-4.3,1.5c-5.2-3.2-10.7-6.6-16.9-7.5-2.1-.3-5,.8-5,3.2.6,3.7,4.2,5.9,7.4,7.3,10,4,22,.1,28.7-8.1,8.5-10,13.8-23,13-36.2a37.28,37.28,0,0,0-10.6-23.5c-5.8-6.1-13.1-10.6-20.8-14a384.36,384.36,0,0,1-19.8,45.6c-1.5-1.4-2.9-2.8-4.4-4.2,3.7-7.5,7.7-15,10.3-22.9-2.1,4.4-4.6,8.5-7.1,12.7a59.41,59.41,0,0,1-3.9-4.9C607.75,275.65,614.05,264.35,620.45,253.05Z"/><path d="M620.45,253.05c14.5,6.1,28.6,14.7,38.3,27.4,7.3,9.4,10.5,22.1,7.1,33.7-3.5,12-10.8,23.6-22.1,29.8-8.7,4.6-19.2,6.4-28.8,3.6-4.3-1.4-8.6-3.8-10.8-7.9-1.4-2.6-2.2-5.9-.6-8.6,1.5-3,5.3-3.9,8.4-3.9,8.5.4,16,5.4,22.3,10.8l-4.3,1.5c-5.2-3.2-10.7-6.6-16.9-7.5-2.1-.3-5,.8-5,3.2.6,3.7,4.2,5.9,7.4,7.3,10,4,22,.1,28.7-8.1,8.5-10,13.8-23,13-36.2a37.28,37.28,0,0,0-10.6-23.5c-5.8-6.1-13.1-10.6-20.8-14a384.36,384.36,0,0,1-19.8,45.6c-1.5-1.4-2.9-2.8-4.4-4.2,3.7-7.5,7.7-15,10.3-22.9-2.1,4.4-4.6,8.5-7.1,12.7a59.41,59.41,0,0,1-3.9-4.9C607.75,275.65,614.05,264.35,620.45,253.05Z"/><path class="cls-5" d="M366.55,262.05c-.4-3.3,2.6-8.2,6.4-6,3.9,4.3,2,11.7,7.3,15.2a29.56,29.56,0,0,1,2.8-6.9c1.1,1.3,2.2,2.7,3.2,4-1,10.9-1.8,22.5,2.7,32.8,3,6.9,10,10.8,17,12.7.3,3,.7,5.9.9,8.9-7.9-2-15.5-6-20.8-12.4-6.9-8.1-9.3-19.2-8-29.5C372.15,276.35,367,269.65,366.55,262.05Z"/><path d="M366.55,262.05c-.4-3.3,2.6-8.2,6.4-6,3.9,4.3,2,11.7,7.3,15.2a29.56,29.56,0,0,1,2.8-6.9c1.1,1.3,2.2,2.7,3.2,4-1,10.9-1.8,22.5,2.7,32.8,3,6.9,10,10.8,17,12.7.3,3,.7,5.9.9,8.9-7.9-2-15.5-6-20.8-12.4-6.9-8.1-9.3-19.2-8-29.5C372.15,276.35,367,269.65,366.55,262.05Z"/><path class="cls-5" d="M768.65,275.65c9-8.5,20.2-14.2,31.8-18.3a594.78,594.78,0,0,0,56.2,99.1,440,440,0,0,0,33.7,42.1,44.31,44.31,0,0,0,32.7,14.4c3.5-.3,7.9-.8,9.9-4.1,1.3-2.7-1.2-5.3-3.4-6.6a21.74,21.74,0,0,0-17.6-2.1c-2.8,1-5.2,3-7.8,4.5-1.8-1.2-3.6-2.4-5.3-3.7,5.7-5.7,14.3-7.5,22.1-6.6,5.2.5,10.8,2,14.3,6.2a9.2,9.2,0,0,1,.2,11.7c-3.5,4.2-9.3,5.5-14.5,5.6-9.9.1-19.3-3.4-28.1-7.7-17.1-8.3-31.6-20.9-44.2-35a232.51,232.51,0,0,1-30.7-45.4c-10.4-19.9-18.7-41.1-22.9-63.2-11.3,4.3-21.7,12.7-26,24.2-4,9.9-2.8,21-.1,31.1,1.6,5.9,4.1,12,9.1,15.9l-3.3,7.5c-9.2-6.4-17-15.5-19.7-26.6C751.25,303.35,757.35,286.65,768.65,275.65Z"/><path d="M768.65,275.65c9-8.5,20.2-14.2,31.8-18.3a594.78,594.78,0,0,0,56.2,99.1,440,440,0,0,0,33.7,42.1,44.31,44.31,0,0,0,32.7,14.4c3.5-.3,7.9-.8,9.9-4.1,1.3-2.7-1.2-5.3-3.4-6.6a21.74,21.74,0,0,0-17.6-2.1c-2.8,1-5.2,3-7.8,4.5-1.8-1.2-3.6-2.4-5.3-3.7,5.7-5.7,14.3-7.5,22.1-6.6,5.2.5,10.8,2,14.3,6.2a9.2,9.2,0,0,1,.2,11.7c-3.5,4.2-9.3,5.5-14.5,5.6-9.9.1-19.3-3.4-28.1-7.7-17.1-8.3-31.6-20.9-44.2-35a232.51,232.51,0,0,1-30.7-45.4c-10.4-19.9-18.7-41.1-22.9-63.2-11.3,4.3-21.7,12.7-26,24.2-4,9.9-2.8,21-.1,31.1,1.6,5.9,4.1,12,9.1,15.9l-3.3,7.5c-9.2-6.4-17-15.5-19.7-26.6C751.25,303.35,757.35,286.65,768.65,275.65Z"/><path class="cls-5" d="M421.55,280.55c9.1-9.3,21-15.4,33.2-19.5,5,11.8,10.9,23.2,16.7,34.6-1.8,1.4-3.6,2.8-5.3,4.2-2.8-5.2-5.1-10.7-7.8-15.9-.1,3.6,2.5,6.4,3.7,9.6-1.8,1.1-3.6,2.3-5.4,3.3a189.28,189.28,0,0,1-7.1-26.6c-11.3,4.3-21.5,12.6-26,24-4,9.8-2.9,20.7-.3,30.7,1.6,6.1,4.1,12.5,9.2,16.5-1.1,2.5-2.2,5-3.2,7.5-8.9-6.1-16.4-14.8-19.4-25.4C405.45,308.45,410.85,291.75,421.55,280.55Z"/><path d="M421.55,280.55c9.1-9.3,21-15.4,33.2-19.5,5,11.8,10.9,23.2,16.7,34.6-1.8,1.4-3.6,2.8-5.3,4.2-2.8-5.2-5.1-10.7-7.8-15.9-.1,3.6,2.5,6.4,3.7,9.6-1.8,1.1-3.6,2.3-5.4,3.3a189.28,189.28,0,0,1-7.1-26.6c-11.3,4.3-21.5,12.6-26,24-4,9.8-2.9,20.7-.3,30.7,1.6,6.1,4.1,12.5,9.2,16.5-1.1,2.5-2.2,5-3.2,7.5-8.9-6.1-16.4-14.8-19.4-25.4C405.45,308.45,410.85,291.75,421.55,280.55Z"/><path class="cls-5" d="M536.55,304.15c9.1-12.6,17.1-26,25.4-39.2,1.3,1.6,2.7,3.2,4,4.8-8.6,12.9-15.6,26.8-25,39.1C539.45,307.35,538.05,305.75,536.55,304.15Z"/><path d="M536.55,304.15c9.1-12.6,17.1-26,25.4-39.2,1.3,1.6,2.7,3.2,4,4.8-8.6,12.9-15.6,26.8-25,39.1C539.45,307.35,538.05,305.75,536.55,304.15Z"/><path class="cls-5" d="M472.35,288.25c6.5-6.9,12.1-14.6,18.3-21.8l3.6,6.3c-6.5,6.8-13,13.6-19.7,20.2C473.75,291.35,473.05,289.85,472.35,288.25Z"/><path d="M472.35,288.25c6.5-6.9,12.1-14.6,18.3-21.8l3.6,6.3c-6.5,6.8-13,13.6-19.7,20.2C473.75,291.35,473.05,289.85,472.35,288.25Z"/><path class="cls-5" d="M685.85,273.45c1-1.3,2-2.6,3-3.8a18.6,18.6,0,0,1,3.2,9.3c4.5-2,5.6-7.7,10.1-9.6,4.8-1.3,5.5,5.3,3.6,8.3-3.1,4.5-8.6,6.5-13.6,8.3-.3,15.4-10.8,28.8-24.2,35.5.6-2.7,1.3-5.3,2-7.9C682.65,305,689.35,288.45,685.85,273.45Z"/><path d="M685.85,273.45c1-1.3,2-2.6,3-3.8a18.6,18.6,0,0,1,3.2,9.3c4.5-2,5.6-7.7,10.1-9.6,4.8-1.3,5.5,5.3,3.6,8.3-3.1,4.5-8.6,6.5-13.6,8.3-.3,15.4-10.8,28.8-24.2,35.5.6-2.7,1.3-5.3,2-7.9C682.65,305,689.35,288.45,685.85,273.45Z"/><path class="cls-5" d="M581.65,270.55c7.4,7.7,14.3,16,21.4,24-1,1.8-2.2,3.6-3.3,5.3-7.3-7.9-14-16.3-21.4-24.2C579.55,274,580.55,272.25,581.65,270.55Z"/><path d="M581.65,270.55c7.4,7.7,14.3,16,21.4,24-1,1.8-2.2,3.6-3.3,5.3-7.3-7.9-14-16.3-21.4-24.2C579.55,274,580.55,272.25,581.65,270.55Z"/><path class="cls-5" d="M565.75,280.05c1.3-2.2,2.6-4.4,4-6.5,7,7.5,13.6,15.4,20.2,23.2-1.3,1.7-2.5,3.4-3.7,5.1C578.75,295.15,572.45,287.35,565.75,280.05Z"/><path d="M565.75,280.05c1.3-2.2,2.6-4.4,4-6.5,7,7.5,13.6,15.4,20.2,23.2-1.3,1.7-2.5,3.4-3.7,5.1C578.75,295.15,572.45,287.35,565.75,280.05Z"/><path class="cls-5" d="M492.55,281.15c1.4-1.3,2.9-2.6,4.4-3.9a320,320,0,0,0,26.8,36.6l-4.1,4.1C509.75,306.25,500.05,294.45,492.55,281.15Z"/><path d="M492.55,281.15c1.4-1.3,2.9-2.6,4.4-3.9a320,320,0,0,0,26.8,36.6l-4.1,4.1C509.75,306.25,500.05,294.45,492.55,281.15Z"/><path class="cls-5" d="M507,283.55c1.5-1.5,3-3,4.6-4.5,8.5,11.4,17.4,22.5,26.9,33.2a76.42,76.42,0,0,0-4.9,6.3C523.75,307.55,514.55,296.05,507,283.55Z"/><path d="M507,283.55c1.5-1.5,3-3,4.6-4.5,8.5,11.4,17.4,22.5,26.9,33.2a76.42,76.42,0,0,0-4.9,6.3C523.75,307.55,514.55,296.05,507,283.55Z"/><path class="cls-3" d="M803.15,280.05l1.4,1.5a483.84,483.84,0,0,0,32.6,58.5c13.3,20.4,27.6,40.2,45,57.3-14.7-9.9-26.5-23.3-37-37.4-16.7-22.5-28.8-47.9-39.2-73.7C805.75,283.75,803.75,282.25,803.15,280.05Z"/><path class="cls-4" d="M803.15,280.05l1.4,1.5a483.84,483.84,0,0,0,32.6,58.5c13.3,20.4,27.6,40.2,45,57.3-14.7-9.9-26.5-23.3-37-37.4-16.7-22.5-28.8-47.9-39.2-73.7C805.75,283.75,803.75,282.25,803.15,280.05Z"/><path class="cls-5" d="M467.75,303.25c7.6-6.2,14.8-12.8,22-19.4a70.91,70.91,0,0,0,4.4,6.7,142.46,142.46,0,0,1-23,18.7C470,307.25,468.85,305.25,467.75,303.25Z"/><path d="M467.75,303.25c7.6-6.2,14.8-12.8,22-19.4a70.91,70.91,0,0,0,4.4,6.7,142.46,142.46,0,0,1-23,18.7C470,307.25,468.85,305.25,467.75,303.25Z"/><path class="cls-5" d="M536.55,322.35c10.2-12.3,18.6-25.8,27.3-39.1,1.3,1.4,2.7,2.7,4,4-8.2,13.7-16.7,27.3-26.6,39.8C539.75,325.45,538.15,324,536.55,322.35Z"/><path d="M536.55,322.35c10.2-12.3,18.6-25.8,27.3-39.1,1.3,1.4,2.7,2.7,4,4-8.2,13.7-16.7,27.3-26.6,39.8C539.75,325.45,538.15,324,536.55,322.35Z"/><path class="cls-5" d="M425.35,315.75c14.3-1.6,27.1-9.4,37.8-18.6l2.1,4.5c-4.9,4.1-9.6,8.3-15.1,11.5,2.9.1,5.4-1.3,7.7-2.7.6,1.7,1.3,3.4,2,5.1a83.57,83.57,0,0,1-31.8,8.6A41.35,41.35,0,0,1,425.35,315.75Z"/><path d="M425.35,315.75c14.3-1.6,27.1-9.4,37.8-18.6l2.1,4.5c-4.9,4.1-9.6,8.3-15.1,11.5,2.9.1,5.4-1.3,7.7-2.7.6,1.7,1.3,3.4,2,5.1a83.57,83.57,0,0,1-31.8,8.6A41.35,41.35,0,0,1,425.35,315.75Z"/><path class="cls-5" d="M592.65,299.85c1.5,1.5,3,2.9,4.5,4.3a432.37,432.37,0,0,1-25.2,36.2c-1.5-1.1-3-2.2-4.4-3.4C576.55,325.05,584.85,312.55,592.65,299.85Z"/><path d="M592.65,299.85c1.5,1.5,3,2.9,4.5,4.3a432.37,432.37,0,0,1-25.2,36.2c-1.5-1.1-3-2.2-4.4-3.4C576.55,325.05,584.85,312.55,592.65,299.85Z"/><path class="cls-5" d="M460.75,308.15c2-1.2,3.9-2.4,5.8-3.8a351.35,351.35,0,0,0,21.7,42.3c-1.9,1.4-3.8,2.8-5.7,4.3A236.17,236.17,0,0,1,460.75,308.15Z"/><path d="M460.75,308.15c2-1.2,3.9-2.4,5.8-3.8a351.35,351.35,0,0,0,21.7,42.3c-1.9,1.4-3.8,2.8-5.7,4.3A236.17,236.17,0,0,1,460.75,308.15Z"/><path class="cls-5" d="M608.45,308.15l2.4-4.1c9.5,10.2,23,17,37.1,16.9-1,2.1-2,4.1-3.1,6.2a68.54,68.54,0,0,1-48.2-16.3c.9-1.5,1.8-3.1,2.7-4.6,9,7.9,19.9,14.8,32.1,15.7A80.6,80.6,0,0,1,608.45,308.15Z"/><path d="M608.45,308.15l2.4-4.1c9.5,10.2,23,17,37.1,16.9-1,2.1-2,4.1-3.1,6.2a68.54,68.54,0,0,1-48.2-16.3c.9-1.5,1.8-3.1,2.7-4.6,9,7.9,19.9,14.8,32.1,15.7A80.6,80.6,0,0,1,608.45,308.15Z"/><path class="cls-5" d="M473.05,311.85l5.1-3.3c7.9,13.9,16.2,27.6,25.2,40.9l-5,3.8Q484.7,333.15,473.05,311.85Z"/><path d="M473.05,311.85l5.1-3.3c7.9,13.9,16.2,27.6,25.2,40.9l-5,3.8Q484.7,333.15,473.05,311.85Z"/><path class="cls-5" d="M595.15,313.75c1.7,1.3,3.5,2.5,5.3,3.8a229.86,229.86,0,0,1-26.1,37.4c-1.7-1.3-3.3-2.6-5-3.9A317.3,317.3,0,0,0,595.15,313.75Z"/><path d="M595.15,313.75c1.7,1.3,3.5,2.5,5.3,3.8a229.86,229.86,0,0,1-26.1,37.4c-1.7-1.3-3.3-2.6-5-3.9A317.3,317.3,0,0,0,595.15,313.75Z"/><path class="cls-5" d="M502.75,341.65a188.43,188.43,0,0,0,23.8-24.3,49.08,49.08,0,0,1,4.2,4.8,218.91,218.91,0,0,1-24.3,24.8A38.1,38.1,0,0,1,502.75,341.65Z"/><path d="M502.75,341.65a188.43,188.43,0,0,0,23.8-24.3,49.08,49.08,0,0,1,4.2,4.8,218.91,218.91,0,0,1-24.3,24.8A38.1,38.1,0,0,1,502.75,341.65Z"/><path class="cls-5" d="M670.75,323.85l5.4-2.7a101.72,101.72,0,0,1,.2,28.1c5.4-3.6,9.8-8.7,15.8-11.4,2.4-1.1,6.3-1.5,7.4,1.6,1.4,4.5-2.4,9.1-6.4,10.7-6.4,2.5-13,4.5-19.3,7.2a47.42,47.42,0,0,1-26.7,24c0-2.1.2-4.2.3-6.3,10.6-4.4,20.2-13,22.8-24.5C672.05,341.75,671.85,332.65,670.75,323.85Z"/><path d="M670.75,323.85l5.4-2.7a101.72,101.72,0,0,1,.2,28.1c5.4-3.6,9.8-8.7,15.8-11.4,2.4-1.1,6.3-1.5,7.4,1.6,1.4,4.5-2.4,9.1-6.4,10.7-6.4,2.5-13,4.5-19.3,7.2a47.42,47.42,0,0,1-26.7,24c0-2.1.2-4.2.3-6.3,10.6-4.4,20.2-13,22.8-24.5C672.05,341.75,671.85,332.65,670.75,323.85Z"/><path class="cls-5" d="M396,322.35l5.3,2.2c-.8,9,.8,18.6,6.2,26.1,6.1,8.8,16.3,14,26.6,16.1a63.37,63.37,0,0,0,30-1.6c9.8-2.8,18.5-8.5,27-14,1.1,1.7,2.3,3.4,3.5,5.1a130.53,130.53,0,0,1-24.7,13.8,70.06,70.06,0,0,0,18.4-6.2c1.3,1.8,2.5,3.5,3.8,5.2-17.8,8.5-38.7,9.8-57.8,5.2-11.7-3-23.5-8.3-31-18.1-2.3-2.7-3.2-6.2-4.8-9.3-3.5-2.4-8.1-2-11.8-4.2-3-1.6-6.6-3.7-6.7-7.5.3-4,5.5-5.1,8.4-3.1s5.1,4.5,8.3,6A69.34,69.34,0,0,1,396,322.35Z"/><path d="M396,322.35l5.3,2.2c-.8,9,.8,18.6,6.2,26.1,6.1,8.8,16.3,14,26.6,16.1a63.37,63.37,0,0,0,30-1.6c9.8-2.8,18.5-8.5,27-14,1.1,1.7,2.3,3.4,3.5,5.1a130.53,130.53,0,0,1-24.7,13.8,70.06,70.06,0,0,0,18.4-6.2c1.3,1.8,2.5,3.5,3.8,5.2-17.8,8.5-38.7,9.8-57.8,5.2-11.7-3-23.5-8.3-31-18.1-2.3-2.7-3.2-6.2-4.8-9.3-3.5-2.4-8.1-2-11.8-4.2-3-1.6-6.6-3.7-6.7-7.5.3-4,5.5-5.1,8.4-3.1s5.1,4.5,8.3,6A69.34,69.34,0,0,1,396,322.35Z"/><path class="cls-5" d="M793.15,326.15c4.7-2.5,10.6-4.5,15.7-1.9,5.8,3,6.6,11.9,1.8,16.1-5.5,5.1-13.4,6.5-20.7,6.7a50.92,50.92,0,0,1,1-5.6c4.9-.4,10.3-.2,14.6-3.1,2.7-1.7,4-5.8,1.9-8.5-1.9-2.3-5.3-2.2-7.8-1.3-5.5,2-9.5,6.9-11.8,12.1a46,46,0,0,0-3.6,19.4c0,16.2,4.1,32.9,14,46,10,13.8,25.6,24.3,42.9,24.9,17,.6,32.7-8.4,44.8-19.7,2.5,1.2,4.9,2.3,7.4,3.6-9.2,10.2-20.6,18.7-33.6,23.5.6,3.3,1.1,6.7.2,9.9-1.6,3.9-4,7.6-7.7,9.8a6.31,6.31,0,0,1-7.4-.3c-1.8-2.1-1.2-5.5.7-7.4,2.8-3.1,6.7-5.9,6.9-10.5-13.3,2.8-28,2.1-39.6-5.8-5.2,5.9-12.7,10-20.6,10.3-1.7.1-3.9-.4-4.3-2.3.3-3.7,3.6-6.1,6.7-7.4,4.4-1.9,10.2.5,13.7-3.5a73.72,73.72,0,0,1-27.4-33.3c-6.9.4-14.7-1.8-18.5-8-1.7-2.9-3.3-6.7-1.6-9.9,1-1.5,2.9-1.3,4.5-1.1,6.1,1.6,7.4,10.2,14.1,10.6-2.9-13.6-4.2-27.9-1.1-41.5C780.05,339.15,785,330.45,793.15,326.15Z"/><path d="M793.15,326.15c4.7-2.5,10.6-4.5,15.7-1.9,5.8,3,6.6,11.9,1.8,16.1-5.5,5.1-13.4,6.5-20.7,6.7a50.92,50.92,0,0,1,1-5.6c4.9-.4,10.3-.2,14.6-3.1,2.7-1.7,4-5.8,1.9-8.5-1.9-2.3-5.3-2.2-7.8-1.3-5.5,2-9.5,6.9-11.8,12.1a46,46,0,0,0-3.6,19.4c0,16.2,4.1,32.9,14,46,10,13.8,25.6,24.3,42.9,24.9,17,.6,32.7-8.4,44.8-19.7,2.5,1.2,4.9,2.3,7.4,3.6-9.2,10.2-20.6,18.7-33.6,23.5.6,3.3,1.1,6.7.2,9.9-1.6,3.9-4,7.6-7.7,9.8a6.31,6.31,0,0,1-7.4-.3c-1.8-2.1-1.2-5.5.7-7.4,2.8-3.1,6.7-5.9,6.9-10.5-13.3,2.8-28,2.1-39.6-5.8-5.2,5.9-12.7,10-20.6,10.3-1.7.1-3.9-.4-4.3-2.3.3-3.7,3.6-6.1,6.7-7.4,4.4-1.9,10.2.5,13.7-3.5a73.72,73.72,0,0,1-27.4-33.3c-6.9.4-14.7-1.8-18.5-8-1.7-2.9-3.3-6.7-1.6-9.9,1-1.5,2.9-1.3,4.5-1.1,6.1,1.6,7.4,10.2,14.1,10.6-2.9-13.6-4.2-27.9-1.1-41.5C780.05,339.15,785,330.45,793.15,326.15Z"/><path class="cls-5" d="M533.85,325.55a192.1,192.1,0,0,0,21.9,19.3c-1.2,1.6-2.4,3.1-3.7,4.7a191.91,191.91,0,0,1-21.6-19.7C531.65,328.45,532.75,327,533.85,325.55Z"/><path d="M533.85,325.55a192.1,192.1,0,0,0,21.9,19.3c-1.2,1.6-2.4,3.1-3.7,4.7a191.91,191.91,0,0,1-21.6-19.7C531.65,328.45,532.75,327,533.85,325.55Z"/><path class="cls-5" d="M544.25,330.35a75.34,75.34,0,0,0,5-6.4,268.31,268.31,0,0,0,20.5,19.4c-1.4,1.6-2.7,3.3-4.1,4.9A192.69,192.69,0,0,1,544.25,330.35Z"/><path d="M544.25,330.35a75.34,75.34,0,0,0,5-6.4,268.31,268.31,0,0,0,20.5,19.4c-1.4,1.6-2.7,3.3-4.1,4.9A192.69,192.69,0,0,1,544.25,330.35Z"/><path class="cls-5" d="M444.45,331.45c5-3.4,11.4-6.3,17.5-4.2,6.4,2.2,7.9,11.3,3.5,16.1-5.4,5.7-13.8,7-21.2,7.4.3-2,.6-3.9.9-5.9,5-.1,10.5-.2,14.8-3,2.9-1.8,3.9-6.4,1.3-8.9-1.5-1.6-4-1.6-6-1.2-5.1,1.2-9.1,5.1-11.7,9.5-3.8,6.5-5,14.3-5.2,21.7l-7.5-1.7C431.65,350.15,435.05,338.15,444.45,331.45Z"/><path d="M444.45,331.45c5-3.4,11.4-6.3,17.5-4.2,6.4,2.2,7.9,11.3,3.5,16.1-5.4,5.7-13.8,7-21.2,7.4.3-2,.6-3.9.9-5.9,5-.1,10.5-.2,14.8-3,2.9-1.8,3.9-6.4,1.3-8.9-1.5-1.6-4-1.6-6-1.2-5.1,1.2-9.1,5.1-11.7,9.5-3.8,6.5-5,14.3-5.2,21.7l-7.5-1.7C431.65,350.15,435.05,338.15,444.45,331.45Z"/><path class="cls-5" d="M504.35,354.25a168.22,168.22,0,0,0,24-22.2c1.6,1.5,3.1,3.1,4.5,4.7a171,171,0,0,1-28.6,25.2c-1.3-1.8-2.6-3.6-3.8-5.5A21.7,21.7,0,0,0,504.35,354.25Z"/><path d="M504.35,354.25a168.22,168.22,0,0,0,24-22.2c1.6,1.5,3.1,3.1,4.5,4.7a171,171,0,0,1-28.6,25.2c-1.3-1.8-2.6-3.6-3.8-5.5A21.7,21.7,0,0,0,504.35,354.25Z"/><path class="cls-5" d="M529.35,380.65a429.55,429.55,0,0,0,30.1-33.3c1.4,1.1,2.9,2.2,4.3,3.4a366.09,366.09,0,0,1-31.1,33.6C531.65,383.15,530.55,381.85,529.35,380.65Z"/><path d="M529.35,380.65a429.55,429.55,0,0,0,30.1-33.3c1.4,1.1,2.9,2.2,4.3,3.4a366.09,366.09,0,0,1-31.1,33.6C531.65,383.15,530.55,381.85,529.35,380.65Z"/><path class="cls-5" d="M287.85,350.45c2.4-.7,4.7-1.4,7.1-2,4.1,16,2.5,33.8-5.4,48.4,5.5.5,10.1-3.1,14-6.4,3.1-2.8,7.8-4.5,11.7-2.5a3.39,3.39,0,0,1,1.6,4.5c0,.1-.1.1-.1.2-1.8,3.1-5.3,4.4-8.5,5.6-6.5,2.3-13.7,4.3-20.5,2.1a143.79,143.79,0,0,1-20.3,27.5c5.2,1.7,11.8-.6,15.9,4,2.1,1.9,1.9,6.2-1.2,7-7.5,2-16.9.4-21.5-6.4-11.4,7.4-25.6,9.4-38.9,7.3,1.8,4.3,5.5,7.8,6.9,12.3.8,3.2-3,4.4-5.3,3-6.3-2.9-9.8-9.8-10.5-16.5-8.7-1.1-16.4-5.8-23.1-11-9.5-7.4-18.1-16-27.1-24.1-5.4-5-13.3-6.8-20.5-5.6-2.5.4-5.3,1.1-6.8,3.4-.3,2.1,2.1,3,3.6,3.8,6,2.3,12.5,0,17.9-2.7,1.9,1.9,3.8,3.7,5.6,5.6-6.9,4.1-15.5,4.1-23.4,3.1-3.8-.8-8.5-2-10.1-6-1.4-4.3,1.6-8.9,5.5-10.7,6.4-3.2,14.1-2.5,20.7-.4a44.6,44.6,0,0,1,17.9,11.1c12.8,12.2,29.1,21.3,46.9,22.9a61,61,0,0,0,49.3-18.4C284.55,394.15,290.85,371.55,287.85,350.45Z"/><path d="M287.85,350.45c2.4-.7,4.7-1.4,7.1-2,4.1,16,2.5,33.8-5.4,48.4,5.5.5,10.1-3.1,14-6.4,3.1-2.8,7.8-4.5,11.7-2.5a3.39,3.39,0,0,1,1.6,4.5c0,.1-.1.1-.1.2-1.8,3.1-5.3,4.4-8.5,5.6-6.5,2.3-13.7,4.3-20.5,2.1a143.79,143.79,0,0,1-20.3,27.5c5.2,1.7,11.8-.6,15.9,4,2.1,1.9,1.9,6.2-1.2,7-7.5,2-16.9.4-21.5-6.4-11.4,7.4-25.6,9.4-38.9,7.3,1.8,4.3,5.5,7.8,6.9,12.3.8,3.2-3,4.4-5.3,3-6.3-2.9-9.8-9.8-10.5-16.5-8.7-1.1-16.4-5.8-23.1-11-9.5-7.4-18.1-16-27.1-24.1-5.4-5-13.3-6.8-20.5-5.6-2.5.4-5.3,1.1-6.8,3.4-.3,2.1,2.1,3,3.6,3.8,6,2.3,12.5,0,17.9-2.7,1.9,1.9,3.8,3.7,5.6,5.6-6.9,4.1-15.5,4.1-23.4,3.1-3.8-.8-8.5-2-10.1-6-1.4-4.3,1.6-8.9,5.5-10.7,6.4-3.2,14.1-2.5,20.7-.4a44.6,44.6,0,0,1,17.9,11.1c12.8,12.2,29.1,21.3,46.9,22.9a61,61,0,0,0,49.3-18.4C284.55,394.15,290.85,371.55,287.85,350.45Z"/><path class="cls-5" d="M634.45,352.75l7-2.1c2.3,6.9,2.3,14.3,2.1,21.5-.6,9.3-2.7,18.7-7.4,26.8,6,1.1,10.7-3.6,15-7,3.2-2.6,8.8-4,12-.7,2.2,3.6-2,6.6-4.9,7.9-7.4,3-15.8,5.9-23.8,3.5a134.6,134.6,0,0,1-20.6,27.4c4.9,1.9,10.7-.1,15,3.2,1.8,1.4,3.5,4.3,1.7,6.4-2.4,2.6-6.4,2.1-9.6,2.1a17.88,17.88,0,0,1-13.8-7c-11.4,7.3-25.6,9.3-38.9,7.3,1.9,4.1,5.3,7.5,6.8,11.9a3,3,0,0,1-1.73,3.87l-.07,0a2.8,2.8,0,0,1-2.2,0c-7-2.3-11-9.8-11.7-16.9-6.4-.9-12.3-3.8-17.8-7.2,2.3-2.6,4.7-5.1,7-7.7,12.8,4.8,27.2,5.9,40.4,2,18.6-5.3,33.9-19.9,40.9-37.8C634.85,378.35,636.05,365.35,634.45,352.75Z"/><path d="M634.45,352.75l7-2.1c2.3,6.9,2.3,14.3,2.1,21.5-.6,9.3-2.7,18.7-7.4,26.8,6,1.1,10.7-3.6,15-7,3.2-2.6,8.8-4,12-.7,2.2,3.6-2,6.6-4.9,7.9-7.4,3-15.8,5.9-23.8,3.5a134.6,134.6,0,0,1-20.6,27.4c4.9,1.9,10.7-.1,15,3.2,1.8,1.4,3.5,4.3,1.7,6.4-2.4,2.6-6.4,2.1-9.6,2.1a17.88,17.88,0,0,1-13.8-7c-11.4,7.3-25.6,9.3-38.9,7.3,1.9,4.1,5.3,7.5,6.8,11.9a3,3,0,0,1-1.73,3.87l-.07,0a2.8,2.8,0,0,1-2.2,0c-7-2.3-11-9.8-11.7-16.9-6.4-.9-12.3-3.8-17.8-7.2,2.3-2.6,4.7-5.1,7-7.7,12.8,4.8,27.2,5.9,40.4,2,18.6-5.3,33.9-19.9,40.9-37.8C634.85,378.35,636.05,365.35,634.45,352.75Z"/><path class="cls-5" d="M577.05,356.55c1.3-1.4,2.7-2.8,4-4.3,14.5,10.7,30.5,20,48.1,24-1.1,2.5-2.1,5.1-3.1,7.6-15.2-1-29.3-7.2-42.7-14a220.09,220.09,0,0,1-19.9-11.8l3.8-4.4c9.6,6.2,19.4,12.3,30.2,16.3C590.65,365.45,583.65,361.15,577.05,356.55Z"/><path d="M577.05,356.55c1.3-1.4,2.7-2.8,4-4.3,14.5,10.7,30.5,20,48.1,24-1.1,2.5-2.1,5.1-3.1,7.6-15.2-1-29.3-7.2-42.7-14a220.09,220.09,0,0,1-19.9-11.8l3.8-4.4c9.6,6.2,19.4,12.3,30.2,16.3C590.65,365.45,583.65,361.15,577.05,356.55Z"/><path class="cls-5" d="M490.15,362.45c1.9-1.3,3.9-2.7,5.9-4a204.5,204.5,0,0,0,22.6,27.4c-1.7,1.3-3.4,2.5-5.1,3.8A196.27,196.27,0,0,1,490.15,362.45Z"/><path d="M490.15,362.45c1.9-1.3,3.9-2.7,5.9-4a204.5,204.5,0,0,0,22.6,27.4c-1.7,1.3-3.4,2.5-5.1,3.8A196.27,196.27,0,0,1,490.15,362.45Z"/><path class="cls-5" d="M528.55,392.65a310.64,310.64,0,0,0,33.3-32.6c1.5,1.1,3,2.3,4.5,3.4-10.8,11.6-23.1,21.7-35.3,31.7Z"/><path d="M528.55,392.65a310.64,310.64,0,0,0,33.3-32.6c1.5,1.1,3,2.3,4.5,3.4-10.8,11.6-23.1,21.7-35.3,31.7Z"/><path class="cls-5" d="M506.25,364.65l5.4-3.1c6.3,8.4,12.6,16.9,19.4,25-1.5,1.3-3,2.5-4.5,3.7A290.83,290.83,0,0,1,506.25,364.65Z"/><path d="M506.25,364.65l5.4-3.1c6.3,8.4,12.6,16.9,19.4,25-1.5,1.3-3,2.5-4.5,3.7A290.83,290.83,0,0,1,506.25,364.65Z"/><path class="cls-5" d="M431,377c2.9.7,5.8,1.4,8.7,2.2a69.62,69.62,0,0,0,27.9,45.5c10.5,7.5,23.8,11.4,36.6,9.2,13.7-2.1,25.8-9.8,35.7-19.2,2.5,1.1,5,2.3,7.4,3.6-9.2,10.2-20.6,18.6-33.6,23.4.5,3.3,1.1,6.8.1,10.1a21.66,21.66,0,0,1-6.9,9.2c-2.3,1.6-5.8,2.3-8,.2-2.2-2.4-1.1-6.2,1.2-8.1,2.5-2.9,6.6-5.7,6-10-13.2,3.2-27.8,2-39.3-5.6a30,30,0,0,1-19.6,10.3c-1.9.1-4.1.1-5.1-1.7-.2-4.3,4-7,7.5-8.3,4.1-1.3,9.7.7,12.6-3.3a74,74,0,0,1-27.2-33.1c-6,.2-12.6-1.1-16.8-5.7-3-3.3-5.3-8.3-3.4-12.6,1.3-.4,2.7-1.3,4.1-.7,6.4,1.4,7.7,10,14.4,10.9C432.25,387.75,431.45,382.35,431,377Z"/><path d="M431,377c2.9.7,5.8,1.4,8.7,2.2a69.62,69.62,0,0,0,27.9,45.5c10.5,7.5,23.8,11.4,36.6,9.2,13.7-2.1,25.8-9.8,35.7-19.2,2.5,1.1,5,2.3,7.4,3.6-9.2,10.2-20.6,18.6-33.6,23.4.5,3.3,1.1,6.8.1,10.1a21.66,21.66,0,0,1-6.9,9.2c-2.3,1.6-5.8,2.3-8,.2-2.2-2.4-1.1-6.2,1.2-8.1,2.5-2.9,6.6-5.7,6-10-13.2,3.2-27.8,2-39.3-5.6a30,30,0,0,1-19.6,10.3c-1.9.1-4.1.1-5.1-1.7-.2-4.3,4-7,7.5-8.3,4.1-1.3,9.7.7,12.6-3.3a74,74,0,0,1-27.2-33.1c-6,.2-12.6-1.1-16.8-5.7-3-3.3-5.3-8.3-3.4-12.6,1.3-.4,2.7-1.3,4.1-.7,6.4,1.4,7.7,10,14.4,10.9C432.25,387.75,431.45,382.35,431,377Z"/><path class="cls-5" d="M512.75,396.55c2.8-2.8,5.7-5.4,8.6-8,1.1,1.1,2.2,2.1,3.4,3.2-3,2.5-6,5-9.2,7.4Z"/><path d="M512.75,396.55c2.8-2.8,5.7-5.4,8.6-8,1.1,1.1,2.2,2.1,3.4,3.2-3,2.5-6,5-9.2,7.4Z"/><path class="cls-5" d="M522.65,397.75c1.5-1.4,3-2.7,4.4-4.2a90.19,90.19,0,0,0,10.1,7.4c-1.6-1.4-3.1-2.8-4.6-4.3,1.4-1.1,2.8-2.3,4.3-3.3,4.8,5.3,9.2,11.3,15.3,15.3a44.06,44.06,0,0,0,25.8,7.8c3.7-.4,8.7-1.2,9.8-5.4-.2-3-2.9-4.9-5.3-6.1-5.7-2.6-12.8-3.3-18.5-.1-1.9,1-3.6,2.2-5.5,3.3-1.7-1.2-3.4-2.5-5.1-3.7,5.2-5.2,12.7-7.1,19.8-6.7,5.8.3,12.1,1.5,16.3,6a9.09,9.09,0,0,1,.9,11.5c-2.8,3.9-7.7,5.5-12.2,5.9-11.8,1-23.1-3.5-33.4-8.8A115.73,115.73,0,0,1,522.65,397.75Z"/><path d="M522.65,397.75c1.5-1.4,3-2.7,4.4-4.2a90.19,90.19,0,0,0,10.1,7.4c-1.6-1.4-3.1-2.8-4.6-4.3,1.4-1.1,2.8-2.3,4.3-3.3,4.8,5.3,9.2,11.3,15.3,15.3a44.06,44.06,0,0,0,25.8,7.8c3.7-.4,8.7-1.2,9.8-5.4-.2-3-2.9-4.9-5.3-6.1-5.7-2.6-12.8-3.3-18.5-.1-1.9,1-3.6,2.2-5.5,3.3-1.7-1.2-3.4-2.5-5.1-3.7,5.2-5.2,12.7-7.1,19.8-6.7,5.8.3,12.1,1.5,16.3,6a9.09,9.09,0,0,1,.9,11.5c-2.8,3.9-7.7,5.5-12.2,5.9-11.8,1-23.1-3.5-33.4-8.8A115.73,115.73,0,0,1,522.65,397.75Z"/><path class="cls-5" d="M477.35,399.45c3.2-3.5,8.1-4.9,12.6-4.9,10.5-.5,20.5,4.4,28.1,11.3a108.12,108.12,0,0,0,12.8,10.6c-2,1.3-4,2.5-6,3.7-5.5-4.9-10.7-10-16.2-14.8s-13.5-6.4-20.7-5.1a10.21,10.21,0,0,0-6.7,3.8c5.4,7,15.5,4.1,22.1.6,1.8,1.9,3.7,3.7,5.6,5.5-5.2,3.7-11.9,3.9-18,3.8-4.8-.2-9.9-.9-13.7-4C474.25,407.15,474.85,402.25,477.35,399.45Z"/><path d="M477.35,399.45c3.2-3.5,8.1-4.9,12.6-4.9,10.5-.5,20.5,4.4,28.1,11.3a108.12,108.12,0,0,0,12.8,10.6c-2,1.3-4,2.5-6,3.7-5.5-4.9-10.7-10-16.2-14.8s-13.5-6.4-20.7-5.1a10.21,10.21,0,0,0-6.7,3.8c5.4,7,15.5,4.1,22.1.6,1.8,1.9,3.7,3.7,5.6,5.5-5.2,3.7-11.9,3.9-18,3.8-4.8-.2-9.9-.9-13.7-4C474.25,407.15,474.85,402.25,477.35,399.45Z"/><path class="cls-5" d="M517.85,401.25l3.1-2.5,2.7,2.2-3.3,2.8Z"/><path d="M517.85,401.25l3.1-2.5,2.7,2.2-3.3,2.8Z"/></g></g></svg>