<?xml version="1.0" encoding="utf-8"?>
<!-- Generator: Adobe Illustrator 22.1.0, SVG Export Plug-In . SVG Version: 6.00 Build 0)  -->
<svg version="1.1" id="Layer_1" xmlns="http://www.w3.org/2000/svg" xmlns:xlink="http://www.w3.org/1999/xlink" x="0px" y="0px"
	 viewBox="0 0 1070 480" style="enable-background:new 0 0 1070 480;" xml:space="preserve">
<style type="text/css">
	.st0{clip-path:url(#SVGID_2_);}
	.st1{fill:none;stroke:#FFFFFF;stroke-width:0.1;stroke-miterlimit:10;}
	.st2{fill:#FFFFFF;}
	.st3{fill:none;stroke:#000000;stroke-width:0.1;stroke-miterlimit:10;}
</style>
<title>Artboard 1</title>
<g>
	<defs>
		<rect id="SVGID_1_" width="1070" height="480"/>
	</defs>
	<clipPath id="SVGID_2_">
		<use xlink:href="#SVGID_1_"  style="overflow:visible;"/>
	</clipPath>
	<g class="st0">
		<g id="surface0">
			<path class="st1" d="M0,0h1070v480H0V0z"/>
			<path class="st2" d="M0,0h1070v480H0V0z"/>
			<path class="st3" d="M527,26.9c4.7-4.9,12.2-5.8,18.5-4.4c4.4,1,8,4.1,9.6,8.4c1.6,4.5,1.3,9.4,0.5,14c2.8-0.4,5.6-0.8,8.3-0.1
				c7.4,1.7,12.6,8.5,12,16.1c-1.6,6.2-5.8,12.3-12.1,14.5c-3.2,1.3-6.6,1-9.9,0.8c5.7-2.2,9.9-7.2,11-13.3
				c0.9-4.2-0.8-8.5-4.4-10.8c-3.3-2.2-7.4-2.5-11.3-3c0.3-3.9,0-8.1-2.3-11.4c-3.6-5.3-12.4-5-16.1,0c-2.7,3.6-3.3,8.3-3.5,12.6
				c-5-0.9-10.4,1.6-12.2,6.5c-2.8,7.6,1.6,15.6,7.5,20.2c-4.8,0.4-10.1-0.9-13.3-4.8c-3.8-4.6-5.1-10.8-4.7-16.7c0.1-3.6,2-7,5.1-9
				c3.6-2.3,8-2.5,12.1-2.4C521.6,38.3,522.6,31.6,527,26.9z"/>
			<path d="M527,26.9c4.7-4.9,12.2-5.8,18.5-4.4c4.4,1,8,4.1,9.6,8.4c1.6,4.5,1.3,9.4,0.5,14c2.8-0.4,5.6-0.8,8.3-0.1
				c7.4,1.7,12.6,8.5,12,16.1c-1.6,6.2-5.8,12.3-12.1,14.5c-3.2,1.3-6.6,1-9.9,0.8c5.7-2.2,9.9-7.2,11-13.3
				c0.9-4.2-0.8-8.5-4.4-10.8c-3.3-2.2-7.4-2.5-11.3-3c0.3-3.9,0-8.1-2.3-11.4c-3.6-5.3-12.4-5-16.1,0c-2.7,3.6-3.3,8.3-3.5,12.6
				c-5-0.9-10.4,1.6-12.2,6.5c-2.8,7.6,1.6,15.6,7.5,20.2c-4.8,0.4-10.1-0.9-13.3-4.8c-3.8-4.6-5.1-10.8-4.7-16.7c0.1-3.6,2-7,5.1-9
				c3.6-2.3,8-2.5,12.1-2.4C521.6,38.3,522.6,31.6,527,26.9z"/>
			<path class="st3" d="M528.3,64.1c-1.4-7.7,7.1-15.3,14.6-12.4c5.1,2.6,8.2,9.4,5.7,14.8c-1.5,2.8-4.2,4.7-7,6
				c-0.4,6.8-1.4,14.9,3.5,20.4c4.9,4.9,12.4,5,18.9,5.1c5-0.3,10.3,1,15-1c4.8-3.1,5.9-9.2,7.9-14.2c-2.7-3-5.2-6.8-4.8-11
				c0.7-5.5,5.3-10.5,11-11c7-0.9,14.6,5.9,12.7,13.2c-1.9,6.3-8.8,9.4-14.9,10.1c0.2,5.1-2.7,12.3,2.5,15.7c5,1.2,10.5,2.5,15.5,1
				c5.7-2.1,8.5-7.9,10.7-13.1c-2.4-3.4-4.9-7.2-4.3-11.6c0.7-6.9,9.4-10.8,15.3-7.5c5.7,2.5,8.6,10.5,4.8,15.7
				c-2.8,4.2-8.1,5.6-13,5.2c-1.2,4.1-2.8,8.2-3.2,12.5c0.2,3.3,3.8,5,6.8,4.8c7.5-0.2,13.7-5.8,17-12.1c-0.2-2.9-1.2-5.8-0.4-8.6
				c1.7-7.5,12.3-10.6,18.1-5.9c4.3,3.9,4,11.5-0.4,15.2c-3,3-7.5,3.1-11.4,2.6c-4.1,4.7-9.4,8.6-12.4,14.2c0.9,2.7,2.9,4.9,3.7,7.6
				c0.4,4.4-1.2,8.7-2.9,12.7c-2.3,5-5.1,10-9,13.9c-1.7,1.6-3.8,3.2-6.3,2.8c-25.5-4.2-51.2-7.6-77-8.4c-27.6-1-55.2,1.2-82.3,6.6
				c-5.3,1.1-10.1-2.3-13-6.4c-4.5-6.4-7-14-7.3-21.9c-0.3-3.6,2-7.6-0.6-10.7c-4-4.6-10-6.6-15-9.7c-5.2,1.7-11.9,3.1-16.3-1.3
				c-3.6-4.5-4.4-11.8-0.5-16.4c4.2-5,12.9-5.1,17.2-0.2c3.1,3.7,2.1,8.8,2.6,13.3c6.6,3.5,12.4,9.8,20.4,9.7
				c2.2-0.1,2.5-2.9,2.7-4.6c0.2-4.6-0.7-9.2-2.5-13.4c-3.3-1.2-7.5-1.4-9.7-4.6c-3.6-5.1-1.9-12.8,3.4-16
				c4.2-2.8,10.4-3.3,14.2,0.4c3.8,3.7,4.5,9.7,2.5,14.4c-1,2.3-3.5,3.2-5.3,4.6c1.2,5,2.6,10.7,7.1,13.8s10.4,1.7,15.5,1.3
				c3-0.2,6.4-1.4,7.3-4.5c1.3-4.8,0.1-9.9-0.8-14.7c-3.2-1.2-7.4-1.7-9-5.2c-3.7-7.1,1.3-16.8,9.3-17.5c5.8-0.8,11,4.6,10.8,10.3
				c0.4,5-3.2,8.9-6.4,12.3c1.5,5.5,2.6,12.2,7.7,15.6c4.9,2.6,10.6,1.7,15.9,1.8c6.3-0.3,13.7-0.2,18.3-5.2
				c4.4-5.6,4.2-13.1,4.7-19.9C533,70.4,528.5,68.5,528.3,64.1z"/>
			<path d="M528.3,64.1c-1.4-7.7,7.1-15.3,14.6-12.4c5.1,2.6,8.2,9.4,5.7,14.8c-1.5,2.8-4.2,4.7-7,6c-0.4,6.8-1.4,14.9,3.5,20.4
				c4.9,4.9,12.4,5,18.9,5.1c5-0.3,10.3,1,15-1c4.8-3.1,5.9-9.2,7.9-14.2c-2.7-3-5.2-6.8-4.8-11c0.7-5.5,5.3-10.5,11-11
				c7-0.9,14.6,5.9,12.7,13.2c-1.9,6.3-8.8,9.4-14.9,10.1c0.2,5.1-2.7,12.3,2.5,15.7c5,1.2,10.5,2.5,15.5,1
				c5.7-2.1,8.5-7.9,10.7-13.1c-2.4-3.4-4.9-7.2-4.3-11.6c0.7-6.9,9.4-10.8,15.3-7.5c5.7,2.5,8.6,10.5,4.8,15.7
				c-2.8,4.2-8.1,5.6-13,5.2c-1.2,4.1-2.8,8.2-3.2,12.5c0.2,3.3,3.8,5,6.8,4.8c7.5-0.2,13.7-5.8,17-12.1c-0.2-2.9-1.2-5.8-0.4-8.6
				c1.7-7.5,12.3-10.6,18.1-5.9c4.3,3.9,4,11.5-0.4,15.2c-3,3-7.5,3.1-11.4,2.6c-4.1,4.7-9.4,8.6-12.4,14.2c0.9,2.7,2.9,4.9,3.7,7.6
				c0.4,4.4-1.2,8.7-2.9,12.7c-2.3,5-5.1,10-9,13.9c-1.7,1.6-3.8,3.2-6.3,2.8c-25.5-4.2-51.2-7.6-77-8.4c-27.6-1-55.2,1.2-82.3,6.6
				c-5.3,1.1-10.1-2.3-13-6.4c-4.5-6.4-7-14-7.3-21.9c-0.3-3.6,2-7.6-0.6-10.7c-4-4.6-10-6.6-15-9.7c-5.2,1.7-11.9,3.1-16.3-1.3
				c-3.6-4.5-4.4-11.8-0.5-16.4c4.2-5,12.9-5.1,17.2-0.2c3.1,3.7,2.1,8.8,2.6,13.3c6.6,3.5,12.4,9.8,20.4,9.7
				c2.2-0.1,2.5-2.9,2.7-4.6c0.2-4.6-0.7-9.2-2.5-13.4c-3.3-1.2-7.5-1.4-9.7-4.6c-3.6-5.1-1.9-12.8,3.4-16
				c4.2-2.8,10.4-3.3,14.2,0.4c3.8,3.7,4.5,9.7,2.5,14.4c-1,2.3-3.5,3.2-5.3,4.6c1.2,5,2.6,10.7,7.1,13.8s10.4,1.7,15.5,1.3
				c3-0.2,6.4-1.4,7.3-4.5c1.3-4.8,0.1-9.9-0.8-14.7c-3.2-1.2-7.4-1.7-9-5.2c-3.7-7.1,1.3-16.8,9.3-17.5c5.8-0.8,11,4.6,10.8,10.3
				c0.4,5-3.2,8.9-6.4,12.3c1.5,5.5,2.6,12.2,7.7,15.6c4.9,2.6,10.6,1.7,15.9,1.8c6.3-0.3,13.7-0.2,18.3-5.2
				c4.4-5.6,4.2-13.1,4.7-19.9C533,70.4,528.5,68.5,528.3,64.1z"/>
			<path class="st3" d="M397.1,67.1c1.1-4.3,5-8,9.6-7.8c7.9,0.4,14.3,6,19.7,11.3c-6-1.6-13-3.2-18.6,0.3
				c-6.1,3.8-7.5,11.8-7.2,18.5C397.3,82.6,395.1,74.6,397.1,67.1z"/>
			<path d="M397.1,67.1c1.1-4.3,5-8,9.6-7.8c7.9,0.4,14.3,6,19.7,11.3c-6-1.6-13-3.2-18.6,0.3c-6.1,3.8-7.5,11.8-7.2,18.5
				C397.3,82.6,395.1,74.6,397.1,67.1z"/>
			<path class="st3" d="M652.6,61.5c6.2-3.7,15-2.2,19.1,3.8c4,5.8,2.8,13.4,0.6,19.6c-2.7-5.9-6.6-12.1-13-14.3
				c-5-1.9-10.4-0.2-15,1.9C645.7,68.2,648.3,63.9,652.6,61.5z"/>
			<path d="M652.6,61.5c6.2-3.7,15-2.2,19.1,3.8c4,5.8,2.8,13.4,0.6,19.6c-2.7-5.9-6.6-12.1-13-14.3c-5-1.9-10.4-0.2-15,1.9
				C645.7,68.2,648.3,63.9,652.6,61.5z"/>
			<path class="st1" d="M496.6,103.8c24.5-1.3,49.1-1.2,73.5,0.5c13.7,1,27.5,2.5,40.9,5.8c6.2,1.6,12.5,3.5,18,7
				c1.7,1.1,3.7,2.5,3.7,4.8c0,6.5-3.3,12.6-7.3,17.6c-1.6,1.8-3.7,4-6.4,3.7c-21.1-3-42-6.9-63.2-9c-23.2-2.4-46.4,0.9-69.4,3
				c-8.8,0.8-17.6,1.9-26.4,2.5c-3.6-0.7-5.7-4.3-7.4-7.2c-3-6.1-4.8-13.8-1.3-20c1.8-3.6,6.3-4,9.7-4.9
				C472.8,105.3,484.8,104.6,496.6,103.8z"/>
			<path class="st2" d="M496.6,103.8c24.5-1.3,49.1-1.2,73.5,0.5c13.7,1,27.5,2.5,40.9,5.8c6.2,1.6,12.5,3.5,18,7
				c1.7,1.1,3.7,2.5,3.7,4.8c0,6.5-3.3,12.6-7.3,17.6c-1.6,1.8-3.7,4-6.4,3.7c-21.1-3-42-6.9-63.2-9c-23.2-2.4-46.4,0.9-69.4,3
				c-8.8,0.8-17.6,1.9-26.4,2.5c-3.6-0.7-5.7-4.3-7.4-7.2c-3-6.1-4.8-13.8-1.3-20c1.8-3.6,6.3-4,9.7-4.9
				C472.8,105.3,484.8,104.6,496.6,103.8z"/>
			<path class="st3" d="M529.3,112.1c8-2.8,16.7-1.4,24.8-0.2c3.5,0.2,3.9,4.3,4,7.1s-0.7,6.5-3.9,7.2c-6.5,1.6-13.2,1.2-19.8,0.2
				c-2.4-0.4-5.3-1.2-6.1-3.8C526.9,119.1,528.3,115.4,529.3,112.1z"/>
			<path d="M529.3,112.1c8-2.8,16.7-1.4,24.8-0.2c3.5,0.2,3.9,4.3,4,7.1s-0.7,6.5-3.9,7.2c-6.5,1.6-13.2,1.2-19.8,0.2
				c-2.4-0.4-5.3-1.2-6.1-3.8C526.9,119.1,528.3,115.4,529.3,112.1z"/>
			<path class="st3" d="M502.1,112.1c4.8-0.5,9.9-1.1,14.6,0.3c3.1,1.7,2.3,5.9,1.3,8.7c-0.9,3.4-4.9,4-7.8,4.6
				c-5.3,0.7-10.8,1.4-16.2,0.4c-2.1-1.7-2-4.8-1.9-7.2C491.9,113.7,498.2,112.8,502.1,112.1z"/>
			<path d="M502.1,112.1c4.8-0.5,9.9-1.1,14.6,0.3c3.1,1.7,2.3,5.9,1.3,8.7c-0.9,3.4-4.9,4-7.8,4.6c-5.3,0.7-10.8,1.4-16.2,0.4
				c-2.1-1.7-2-4.8-1.9-7.2C491.9,113.7,498.2,112.8,502.1,112.1z"/>
			<path class="st3" d="M569.4,114.5c6.8-1.8,14-1,20.6,1c3.3,0.8,3.4,4.8,3.1,7.6c-0.3,2-0.6,5-3.1,5.3c-6.8,1.2-13.7,0.9-20.4-0.8
				C563.1,126.7,564.2,116.3,569.4,114.5z"/>
			<path d="M569.4,114.5c6.8-1.8,14-1,20.6,1c3.3,0.8,3.4,4.8,3.1,7.6c-0.3,2-0.6,5-3.1,5.3c-6.8,1.2-13.7,0.9-20.4-0.8
				C563.1,126.7,564.2,116.3,569.4,114.5z"/>
			<path class="st3" d="M465.5,116.7c5.7-0.9,11.6-1.9,17.3-0.6c2.9,2.4,3.3,8.2-0.3,10.3c-3.9,2.1-8.1,3.5-12.4,4.1
				c-3.3,0.4-7.1,0.6-9.8-1.8c-2.8-2.3-2.9-6.6-1.1-9.5C461,117.7,463.3,117.2,465.5,116.7z"/>
			<path d="M465.5,116.7c5.7-0.9,11.6-1.9,17.3-0.6c2.9,2.4,3.3,8.2-0.3,10.3c-3.9,2.1-8.1,3.5-12.4,4.1c-3.3,0.4-7.1,0.6-9.8-1.8
				c-2.8-2.3-2.9-6.6-1.1-9.5C461,117.7,463.3,117.2,465.5,116.7z"/>
			<path class="st3" d="M602.6,119.7c5.3-1.7,11.1-0.4,16.1,1.5c5.1,1.7,5.2,10.2,1.2,12.9c-6.2,0.3-12.7-0.2-18.5-2.7
				C597.9,128.5,599.8,122.6,602.6,119.7z"/>
			<path d="M602.6,119.7c5.3-1.7,11.1-0.4,16.1,1.5c5.1,1.7,5.2,10.2,1.2,12.9c-6.2,0.3-12.7-0.2-18.5-2.7
				C597.9,128.5,599.8,122.6,602.6,119.7z"/>
			<path class="st3" d="M171.3,155.9c0.8-3.8,3.7-7.7,7.8-8.2c2.4,0.1,1.9,2.8,1.5,4.4c-1.7,6.6,0.4,13.5,4.3,18.9
				c4.4,5.7,9.9,10.4,16.1,14c10.2,6.3,21.5,10.4,32.9,14c-10,4.7-18.6,11.9-26.4,19.6c-25.6,26.3-44.6,58.8-73.5,81.7
				c-16.3,13.2-36.8,22-58.1,21.7c-12.7,0.4-26.2-3.1-35-12.7c-7.7-8.1-10.9-19.8-9.4-30.7c-5.6-4.3-10.5-10.4-11.6-17.6
				c-0.7-3.6,1.6-9,6.1-7.6c4.2,4.2,2.3,11.7,7.4,15.6c0.8-2.4,1.9-4.7,3.1-6.9c1.1,1.3,2.2,2.7,3.2,4c-1,11.5-1.9,24.1,3.9,34.5
				c4.6,7.9,14,10.9,22.4,12.5c15.3,2.8,30.7-3.2,43-12.2c12.6-9,22.5-21.1,32-33.2c21.6-26.4,47-50.1,76.2-67.8
				c-18.6-5.3-35.3-15.4-52.3-24.4c-11.9-6.1-25.1-12.3-38.8-9.9c-12,2.3-23.8,8.3-31.1,18.4s-9.4,23.3-7.7,35.5
				c2.9,0,6-0.1,8.5,1.6c4.7,2.8,5.5,9.9,2.1,14c-4.9,5.2-15.5,3-17.2-4.1c-1-3.1,0.6-6.1,2-8.8c-4-19.2,1.2-41.1,16.5-54.1
				c-5.5-2.2-11.4,2.3-16.9-0.5c-2.1-0.9-2.3-3.7-1.1-5.4c1.7-2.4,4.7-3.5,7.5-3.8c4.9-0.7,9.3,2.3,14.2,1.9
				c5.7-0.2,11.6-0.4,16.8-2.7c8.3-3.1,17.5-2.9,26-1.1c10.1,2.2,19.7,6,28.6,11.4C173.7,163.8,170.5,160.3,171.3,155.9z"/>
			<path d="M171.3,155.9c0.8-3.8,3.7-7.7,7.8-8.2c2.4,0.1,1.9,2.8,1.5,4.4c-1.7,6.6,0.4,13.5,4.3,18.9c4.4,5.7,9.9,10.4,16.1,14
				c10.2,6.3,21.5,10.4,32.9,14c-10,4.7-18.6,11.9-26.4,19.6c-25.6,26.3-44.6,58.8-73.5,81.7c-16.3,13.2-36.8,22-58.1,21.7
				c-12.7,0.4-26.2-3.1-35-12.7c-7.7-8.1-10.9-19.8-9.4-30.7c-5.6-4.3-10.5-10.4-11.6-17.6c-0.7-3.6,1.6-9,6.1-7.6
				c4.2,4.2,2.3,11.7,7.4,15.6c0.8-2.4,1.9-4.7,3.1-6.9c1.1,1.3,2.2,2.7,3.2,4c-1,11.5-1.9,24.1,3.9,34.5c4.6,7.9,14,10.9,22.4,12.5
				c15.3,2.8,30.7-3.2,43-12.2c12.6-9,22.5-21.1,32-33.2c21.6-26.4,47-50.1,76.2-67.8c-18.6-5.3-35.3-15.4-52.3-24.4
				c-11.9-6.1-25.1-12.3-38.8-9.9c-12,2.3-23.8,8.3-31.1,18.4s-9.4,23.3-7.7,35.5c2.9,0,6-0.1,8.5,1.6c4.7,2.8,5.5,9.9,2.1,14
				c-4.9,5.2-15.5,3-17.2-4.1c-1-3.1,0.6-6.1,2-8.8c-4-19.2,1.2-41.1,16.5-54.1c-5.5-2.2-11.4,2.3-16.9-0.5
				c-2.1-0.9-2.3-3.7-1.1-5.4c1.7-2.4,4.7-3.5,7.5-3.8c4.9-0.7,9.3,2.3,14.2,1.9c5.7-0.2,11.6-0.4,16.8-2.7c8.3-3.1,17.5-2.9,26-1.1
				c10.1,2.2,19.7,6,28.6,11.4C173.7,163.8,170.5,160.3,171.3,155.9z"/>
			<path class="st3" d="M909.1,154.1c1.1-2.6,2.7-5.9,5.9-6.4c2-0.5,3.4,1.6,3.7,3.3c0.5,3.9-0.8,7.6-1.7,11.3
				c12.3-3.4,25.7-4.3,38.1-0.8c9.4,3.3,18.8,7.6,29,7.7c3.9,0.2,7-3.2,10.9-2.4c2.7,2.3,0.9,6.9-2,8.3c-5.2,2.5-11.2,2.1-16.8,2.9
				c7.9,14.2,10,32.5,1.9,47c3.7,7.1-1.8,17.4-10.2,16.9c-5.2,0.3-10.2-4.9-8.5-10.1c1.1-6.6,8.5-9.7,14.6-8.9
				c9.9-17.2,1.8-41.3-15.5-50.4c-10-5.2-21.9-4.9-32.5-1.8c-19.4,5.6-37.3,15.1-55.5,23.5c-6,2.7-11.9,5.6-18.3,7.1
				c15.1,8.8,28.4,20.2,41.4,31.8c19.6,18.1,38.1,37.5,55.2,58c4.3,5,8.2,10.5,13.5,14.6c9,7.5,20.8,12.1,32.6,11.5
				c11.2-0.7,21.6-6,28.8-14.7c7.5-9.1,10.4-21.2,7.8-32.7c1-1.3,2-2.5,3.1-3.8c1.8,2.8,2.8,6,3.1,9.3c2.4-1.5,4.4-3.5,5.9-5.9
				c1.4-2.4,4.3-4.9,7.2-3.4c2.2,2.3,1.8,6.2,0.2,8.7c-3.4,3.9-8.3,5.9-13.1,7.6c-0.2,14.7-10,27.9-22.7,34.6
				c-20,10.4-45.4,8.2-64.3-3.7c-13.7-9-25.4-20.7-36-33.1c-25.1-29.1-51.8-57.1-82.2-80.8c16.8,0.5,32.8-6.2,46.7-15.3
				C891.2,176.7,904.1,168,909.1,154.1z"/>
			<path d="M909.1,154.1c1.1-2.6,2.7-5.9,5.9-6.4c2-0.5,3.4,1.6,3.7,3.3c0.5,3.9-0.8,7.6-1.7,11.3c12.3-3.4,25.7-4.3,38.1-0.8
				c9.4,3.3,18.8,7.6,29,7.7c3.9,0.2,7-3.2,10.9-2.4c2.7,2.3,0.9,6.9-2,8.3c-5.2,2.5-11.2,2.1-16.8,2.9c7.9,14.2,10,32.5,1.9,47
				c3.7,7.1-1.8,17.4-10.2,16.9c-5.2,0.3-10.2-4.9-8.5-10.1c1.1-6.6,8.5-9.7,14.6-8.9c9.9-17.2,1.8-41.3-15.5-50.4
				c-10-5.2-21.9-4.9-32.5-1.8c-19.4,5.6-37.3,15.1-55.5,23.5c-6,2.7-11.9,5.6-18.3,7.1c15.1,8.8,28.4,20.2,41.4,31.8
				c19.6,18.1,38.1,37.5,55.2,58c4.3,5,8.2,10.5,13.5,14.6c9,7.5,20.8,12.1,32.6,11.5c11.2-0.7,21.6-6,28.8-14.7
				c7.5-9.1,10.4-21.2,7.8-32.7c1-1.3,2-2.5,3.1-3.8c1.8,2.8,2.8,6,3.1,9.3c2.4-1.5,4.4-3.5,5.9-5.9c1.4-2.4,4.3-4.9,7.2-3.4
				c2.2,2.3,1.8,6.2,0.2,8.7c-3.4,3.9-8.3,5.9-13.1,7.6c-0.2,14.7-10,27.9-22.7,34.6c-20,10.4-45.4,8.2-64.3-3.7
				c-13.7-9-25.4-20.7-36-33.1c-25.1-29.1-51.8-57.1-82.2-80.8c16.8,0.5,32.8-6.2,46.7-15.3C891.2,176.7,904.1,168,909.1,154.1z"/>
			<path class="st3" d="M518,158c0.7-3.9,3.8-7.7,8-8c2.4,0.4,1.3,3.4,1.1,5c-2.2,9.8,3.8,19,10.8,25.3c-3.4,2.1-6.8,4.2-10.1,6.3
				c-15.5-8-30.8-18.6-48.8-19.2c-13.5,0.6-27.1,6.6-35.9,17c-3.6,4.2-5.9,9.3-7.8,14.5c-2-0.2-3.9-0.3-5.9-0.3
				c2.4-11,8.2-20.9,16.5-28.4c-5.6-1.7-11.5,2.4-16.9-0.2c-2.3-0.9-2.4-4-1-5.7c1.9-2.4,5-3.4,8-3.6c4.4-0.4,8.5,2.1,12.9,2
				c5.7-0.2,11.7-0.2,17-2.5c11-4.2,23.2-2.6,34.1,0.8c7.3,2.3,14.3,5.5,20.9,9.3C520.3,166,516.8,162.4,518,158z"/>
			<path d="M518,158c0.7-3.9,3.8-7.7,8-8c2.4,0.4,1.3,3.4,1.1,5c-2.2,9.8,3.8,19,10.8,25.3c-3.4,2.1-6.8,4.2-10.1,6.3
				c-15.5-8-30.8-18.6-48.8-19.2c-13.5,0.6-27.1,6.6-35.9,17c-3.6,4.2-5.9,9.3-7.8,14.5c-2-0.2-3.9-0.3-5.9-0.3
				c2.4-11,8.2-20.9,16.5-28.4c-5.6-1.7-11.5,2.4-16.9-0.2c-2.3-0.9-2.4-4-1-5.7c1.9-2.4,5-3.4,8-3.6c4.4-0.4,8.5,2.1,12.9,2
				c5.7-0.2,11.7-0.2,17-2.5c11-4.2,23.2-2.6,34.1,0.8c7.3,2.3,14.3,5.5,20.9,9.3C520.3,166,516.8,162.4,518,158z"/>
			<path class="st3" d="M563.4,157.5c1.1-2.6,2.6-5.6,5.7-6.2c1.8-0.6,3.3,1.1,3.8,2.7c0.7,4-0.7,8-1.6,11.8
				c11.3-3.3,23.1-3.8,34.7-1.7c7,1.5,13.3,5.1,20.3,6.7c5.6,1.4,11.8,3.2,17.4,0.6c1.9-0.7,4.7-2.3,6.4-0.3
				c1.8,2.8-0.3,6.7-3.2,7.9c-5.1,2.2-10.8,1.9-16.2,2.6c7.9,14.2,10,32.5,1.8,47c3.8,7.1-1.9,17.5-10.3,16.9
				c-5.4,0.2-10.1-5.2-8.3-10.5c1.4-6.5,8.6-9.2,14.6-8.7c10.9-19-0.3-46.3-21.2-52.6c-9.9-3.2-20.6-1.7-30.3,1.5
				c-18.5,6-35.8,15-53.4,23.1c-5.5,2.5-11.1,5.1-17,6.5c11.2,6.5,21.4,14.6,31.3,23l-3.8,3.5c-10.2-8.4-20.4-16.8-32-23.2
				c7.4,6.3,14.8,12.7,21.9,19.4c-1.5,1.2-3,2.3-4.5,3.5c-10.5-9.8-21.3-19.1-32.5-28c16.6,0.5,32.5-6.1,46.2-15
				C545.2,180.4,558.4,171.6,563.4,157.5z"/>
			<path d="M563.4,157.5c1.1-2.6,2.6-5.6,5.7-6.2c1.8-0.6,3.3,1.1,3.8,2.7c0.7,4-0.7,8-1.6,11.8c11.3-3.3,23.1-3.8,34.7-1.7
				c7,1.5,13.3,5.1,20.3,6.7c5.6,1.4,11.8,3.2,17.4,0.6c1.9-0.7,4.7-2.3,6.4-0.3c1.8,2.8-0.3,6.7-3.2,7.9
				c-5.1,2.2-10.8,1.9-16.2,2.6c7.9,14.2,10,32.5,1.8,47c3.8,7.1-1.9,17.5-10.3,16.9c-5.4,0.2-10.1-5.2-8.3-10.5
				c1.4-6.5,8.6-9.2,14.6-8.7c10.9-19-0.3-46.3-21.2-52.6c-9.9-3.2-20.6-1.7-30.3,1.5c-18.5,6-35.8,15-53.4,23.1
				c-5.5,2.5-11.1,5.1-17,6.5c11.2,6.5,21.4,14.6,31.3,23l-3.8,3.5c-10.2-8.4-20.4-16.8-32-23.2c7.4,6.3,14.8,12.7,21.9,19.4
				c-1.5,1.2-3,2.3-4.5,3.5c-10.5-9.8-21.3-19.1-32.5-28c16.6,0.5,32.5-6.1,46.2-15C545.2,180.4,558.4,171.6,563.4,157.5z"/>
			<path class="st3" d="M736.9,189c2.7-2.1,6.7-1.9,9.7-0.5c5,2.3,9.3,5.8,12.6,10.2c16.5-2.2,33.5,2.8,47,12.3
				c12.5,8.7,22.2,20.8,30,33.8c20.1,31.4,42.9,61.3,70.1,86.9c12.6,11.7,26.2,22.4,41.3,30.6c10.4,5.5,21.6,10.2,33.4,11.4
				c14.8,0,29.4-10,34.4-24c2.5-9.5,2.2-19.5,1.1-29.2c1.8-1,3.6-2,5.4-2.9c1.4,9.3,1.4,18.8,0.2,28.2c5.1-3.5,9.3-8.1,14.8-10.9
				c2.6-1.3,6.8-2.4,8.3,0.9c1.7,4.4-1.9,9-5.8,10.7c-6.6,2.6-13.3,4.7-19.8,7.4c-5.9,12.3-17.3,22-30.7,25.2
				c-13.7,3.4-28,0.7-41-4.1c-29.3-11.3-55.4-30.2-76.4-53.4c-8.1-8.9-15.5-18.4-22.9-27.8c-9.6-13.8-17.4-28.6-26.6-42.6
				c-8.9-13.7-18.6-27.4-31.5-37.7c-7.9-6.3-18.4-10.9-28.6-8.3c-9.5,2.5-17.4,9.1-23,16.9s-8.7,18.4-5.9,28
				c2.2,8.5,9.3,15.7,18.1,17.2c5.1,1,11.2-0.6,14.1-5.2c2-2.9,2.3-6.5,2.3-9.9c-2.6,2.9-6.4,5.3-10.5,4.2
				c-6.4-1.4-7.9-10.5-3.7-14.9c3.6-4.3,11.3-4,14.4,0.9c4.9,7.3,4.2,18.2-1.8,24.7c-5.3,5.5-14,5.7-20.8,3.4
				c-7.4-2.4-13.1-8.5-16.2-15.4c-4-8.9-4.9-19.6-1-28.7c4.3-10.4,13.2-18.2,23.1-23.2c-4.7-1.6-9.8-3-13.4-6.6
				C735.9,194.5,734.6,190.9,736.9,189z"/>
			<path d="M736.9,189c2.7-2.1,6.7-1.9,9.7-0.5c5,2.3,9.3,5.8,12.6,10.2c16.5-2.2,33.5,2.8,47,12.3c12.5,8.7,22.2,20.8,30,33.8
				c20.1,31.4,42.9,61.3,70.1,86.9c12.6,11.7,26.2,22.4,41.3,30.6c10.4,5.5,21.6,10.2,33.4,11.4c14.8,0,29.4-10,34.4-24
				c2.5-9.5,2.2-19.5,1.1-29.2c1.8-1,3.6-2,5.4-2.9c1.4,9.3,1.4,18.8,0.2,28.2c5.1-3.5,9.3-8.1,14.8-10.9c2.6-1.3,6.8-2.4,8.3,0.9
				c1.7,4.4-1.9,9-5.8,10.7c-6.6,2.6-13.3,4.7-19.8,7.4c-5.9,12.3-17.3,22-30.7,25.2c-13.7,3.4-28,0.7-41-4.1
				c-29.3-11.3-55.4-30.2-76.4-53.4c-8.1-8.9-15.5-18.4-22.9-27.8c-9.6-13.8-17.4-28.6-26.6-42.6c-8.9-13.7-18.6-27.4-31.5-37.7
				c-7.9-6.3-18.4-10.9-28.6-8.3c-9.5,2.5-17.4,9.1-23,16.9s-8.7,18.4-5.9,28c2.2,8.5,9.3,15.7,18.1,17.2c5.1,1,11.2-0.6,14.1-5.2
				c2-2.9,2.3-6.5,2.3-9.9c-2.6,2.9-6.4,5.3-10.5,4.2c-6.4-1.4-7.9-10.5-3.7-14.9c3.6-4.3,11.3-4,14.4,0.9
				c4.9,7.3,4.2,18.2-1.8,24.7c-5.3,5.5-14,5.7-20.8,3.4c-7.4-2.4-13.1-8.5-16.2-15.4c-4-8.9-4.9-19.6-1-28.7
				c4.3-10.4,13.2-18.2,23.1-23.2c-4.7-1.6-9.8-3-13.4-6.6C735.9,194.5,734.6,190.9,736.9,189z"/>
			<path class="st3" d="M543.3,194.4c2.4-2,4.9-3.8,7.6-5.3c9.4,5.4,19.7,8.9,29.9,12.3c-0.5,0.3-1,0.5-1.6,0.5
				c-15.8,7.8-28,21.1-39.2,34.4c-1.4-1.2-2.8-2.4-4.2-3.6c2.6-3.3,5.2-6.6,7.9-9.9c-1.7,1.1-3.3,2.4-4.9,3.7
				c-1.4-1.4-2.8-2.7-4.2-4.1c9.1-7.5,18.8-14.3,29-20.4C556.7,200,549.9,197.5,543.3,194.4z"/>
			<path d="M543.3,194.4c2.4-2,4.9-3.8,7.6-5.3c9.4,5.4,19.7,8.9,29.9,12.3c-0.5,0.3-1,0.5-1.6,0.5c-15.8,7.8-28,21.1-39.2,34.4
				c-1.4-1.2-2.8-2.4-4.2-3.6c2.6-3.3,5.2-6.6,7.9-9.9c-1.7,1.1-3.3,2.4-4.9,3.7c-1.4-1.4-2.8-2.7-4.2-4.1
				c9.1-7.5,18.8-14.3,29-20.4C556.7,200,549.9,197.5,543.3,194.4z"/>
			<path class="st3" d="M391.4,192.3c2.6-1.9,6.2-1.6,9.1-0.5c5.2,2.2,9.7,5.8,13,10.4c14.2-1.7,28.6,1.3,41,8.5
				c13.1,7.3,23.7,18.6,31.9,31c5,7.8,9.8,15.6,15.1,23.2c-1.3,1.3-2.6,2.5-4,3.7c-12.4-19.5-24.9-40.1-44.7-52.9
				c14.1,13.9,26,29.7,35.4,47.1c-1.2,1.6-2.4,3.3-3.6,4.9c-10.6-17-21.3-34.3-36.2-47.8c-7.3-6.4-16.3-11.9-26.3-12
				c-9.3,0.3-17.7,5.5-24.1,12c-6.5,6.8-11.3,15.7-11.6,25.2c-0.3,8.8,3.7,17.9,11.3,22.6c5.7,3.7,13.9,4.9,19.5,0.5
				c3.8-2.9,4.9-7.9,4.8-12.4c-2.6,2.5-5.9,5.1-9.8,4.2c-7-0.8-8.9-10.7-4.3-15.2c3.7-4.1,11.3-3.6,14.3,1.2
				c5.9,8.8,3.5,23.2-6.5,27.8c-9.3,3.7-20.6,0.3-27.1-7.1c-9.1-10.6-11.6-27-5-39.5c4.7-9.1,12.9-15.9,21.8-20.7
				c-4.8-1.6-10.1-3.1-13.6-6.9C389.8,197.6,389,194,391.4,192.3z"/>
			<path d="M391.4,192.3c2.6-1.9,6.2-1.6,9.1-0.5c5.2,2.2,9.7,5.8,13,10.4c14.2-1.7,28.6,1.3,41,8.5c13.1,7.3,23.7,18.6,31.9,31
				c5,7.8,9.8,15.6,15.1,23.2c-1.3,1.3-2.6,2.5-4,3.7c-12.4-19.5-24.9-40.1-44.7-52.9c14.1,13.9,26,29.7,35.4,47.1
				c-1.2,1.6-2.4,3.3-3.6,4.9c-10.6-17-21.3-34.3-36.2-47.8c-7.3-6.4-16.3-11.9-26.3-12c-9.3,0.3-17.7,5.5-24.1,12
				c-6.5,6.8-11.3,15.7-11.6,25.2c-0.3,8.8,3.7,17.9,11.3,22.6c5.7,3.7,13.9,4.9,19.5,0.5c3.8-2.9,4.9-7.9,4.8-12.4
				c-2.6,2.5-5.9,5.1-9.8,4.2c-7-0.8-8.9-10.7-4.3-15.2c3.7-4.1,11.3-3.6,14.3,1.2c5.9,8.8,3.5,23.2-6.5,27.8
				c-9.3,3.7-20.6,0.3-27.1-7.1c-9.1-10.6-11.6-27-5-39.5c4.7-9.1,12.9-15.9,21.8-20.7c-4.8-1.6-10.1-3.1-13.6-6.9
				C389.8,197.6,389,194,391.4,192.3z"/>
			<path class="st3" d="M319,200c5.2-4.5,12.2-6.4,19-5.1c2.3,0.6,5.4,1.4,6,4.1c-0.4,2.5-2.9,3.3-5,4c-4.5,1.3-9.1,1.3-13.7,1.5
				c10.5,8.1,18.5,20.1,19.9,33.5c1.1,9.2-1,19-6.8,26.4c-4.8,6.1-13.4,9.7-21,7.1c-10.4-3.7-14.7-18.4-7.8-27.1
				c3.9-5.3,12.7-8.2,17.8-2.9c5.4,5.1-0.4,14.8-7.3,14c-4.1,0.2-7.1-2.9-8.8-6.4c-0.8,3-1.8,6.3-0.8,9.4c1.7,6.1,8.1,10.7,14.4,9.6
				c5.4-1,9.6-5.3,12.1-10c3.8-8.1,3.6-17.6,1.5-26.2c-3.3-11-11.1-20.1-21.5-25c-14.4-7-32.8-5.4-45.4,4.7
				c-5.2,3.9-8.8,9.3-12.7,14.4c-11.4,15.1-21.4,31.3-31.2,47.6c-11.5,19.2-22.8,38.7-37.3,55.8c-10.8,12.9-23.6,24.1-37.8,33.2
				c-16.9,10.3-37.7,13.4-57.1,10.5c-11.7-1.8-23.4-5.6-32.8-13.1c-4.7-3.6-8.3-8.5-10.3-14.1c-0.6-2.5-3.5-2.8-5.6-3.5
				c-4.9-1-10.1-3-13.1-7.2c-1.9-3,0.8-6.8,4.2-6.6c5-0.1,7.4,5.4,11.9,6.8c-0.7-5.1-0.9-10.3-0.5-15.5c1.8,0.7,3.5,1.5,5.3,2.2
				c-1.2,11.7,2.3,24.2,11.3,32.1c12.7,11.1,31.1,13.3,47.2,9.7c9.9-2,18.8-7,27.2-12.6c13.4-9,25.5-19.7,35.9-32
				c14.5-16.7,26.2-35.5,37.7-54.3c9.4-15.1,18.6-30.4,30.7-43.5c10.7-11.8,24.6-21,40.3-24.2C296.2,194.4,308.1,196,319,200z"/>
			<path d="M319,200c5.2-4.5,12.2-6.4,19-5.1c2.3,0.6,5.4,1.4,6,4.1c-0.4,2.5-2.9,3.3-5,4c-4.5,1.3-9.1,1.3-13.7,1.5
				c10.5,8.1,18.5,20.1,19.9,33.5c1.1,9.2-1,19-6.8,26.4c-4.8,6.1-13.4,9.7-21,7.1c-10.4-3.7-14.7-18.4-7.8-27.1
				c3.9-5.3,12.7-8.2,17.8-2.9c5.4,5.1-0.4,14.8-7.3,14c-4.1,0.2-7.1-2.9-8.8-6.4c-0.8,3-1.8,6.3-0.8,9.4c1.7,6.1,8.1,10.7,14.4,9.6
				c5.4-1,9.6-5.3,12.1-10c3.8-8.1,3.6-17.6,1.5-26.2c-3.3-11-11.1-20.1-21.5-25c-14.4-7-32.8-5.4-45.4,4.7
				c-5.2,3.9-8.8,9.3-12.7,14.4c-11.4,15.1-21.4,31.3-31.2,47.6c-11.5,19.2-22.8,38.7-37.3,55.8c-10.8,12.9-23.6,24.1-37.8,33.2
				c-16.9,10.3-37.7,13.4-57.1,10.5c-11.7-1.8-23.4-5.6-32.8-13.1c-4.7-3.6-8.3-8.5-10.3-14.1c-0.6-2.5-3.5-2.8-5.6-3.5
				c-4.9-1-10.1-3-13.1-7.2c-1.9-3,0.8-6.8,4.2-6.6c5-0.1,7.4,5.4,11.9,6.8c-0.7-5.1-0.9-10.3-0.5-15.5c1.8,0.7,3.5,1.5,5.3,2.2
				c-1.2,11.7,2.3,24.2,11.3,32.1c12.7,11.1,31.1,13.3,47.2,9.7c9.9-2,18.8-7,27.2-12.6c13.4-9,25.5-19.7,35.9-32
				c14.5-16.7,26.2-35.5,37.7-54.3c9.4-15.1,18.6-30.4,30.7-43.5c10.7-11.8,24.6-21,40.3-24.2C296.2,194.4,308.1,196,319,200z"/>
			<path class="st3" d="M665.5,202.3c5.5-4.7,12.9-6.5,20-4.9c2.1,0.7,5,1.7,5,4.4c-0.6,1.9-2.6,2.7-4.3,3.3
				c-4.6,1.5-9.5,1.4-14.2,1.7c9.3,7.4,16.7,17.5,19.1,29.2c2.3,10.4,0.6,22.2-6,30.7c-5.8,7.6-17.8,10.7-26,5.2
				c-7.8-6.2-7.9-18.6-2.6-26.4c3-4.4,9.4-6.6,14.4-4.4c5.3,2.9,4.9,11.7-0.6,14.3c-4.3,2.3-8.9-0.2-12.5-2.7
				c-0.6,2.7-1.5,5.5-0.7,8.3c1.3,6.5,8.4,11.2,14.9,9.5c4.8-1.4,8.3-5.5,10.5-9.8c3.9-8.3,4.7-17.8,2.2-26.6
				c-3-10.7-10.5-19.6-20.5-24.4c-6.7-3.3-14.2-4.9-21.7-4.6c-0.4-2.3-0.8-4.5-1.2-6.7C649.5,197.6,657.7,199.6,665.5,202.3z"/>
			<path d="M665.5,202.3c5.5-4.7,12.9-6.5,20-4.9c2.1,0.7,5,1.7,5,4.4c-0.6,1.9-2.6,2.7-4.3,3.3c-4.6,1.5-9.5,1.4-14.2,1.7
				c9.3,7.4,16.7,17.5,19.1,29.2c2.3,10.4,0.6,22.2-6,30.7c-5.8,7.6-17.8,10.7-26,5.2c-7.8-6.2-7.9-18.6-2.6-26.4
				c3-4.4,9.4-6.6,14.4-4.4c5.3,2.9,4.9,11.7-0.6,14.3c-4.3,2.3-8.9-0.2-12.5-2.7c-0.6,2.7-1.5,5.5-0.7,8.3
				c1.3,6.5,8.4,11.2,14.9,9.5c4.8-1.4,8.3-5.5,10.5-9.8c3.9-8.3,4.7-17.8,2.2-26.6c-3-10.7-10.5-19.6-20.5-24.4
				c-6.7-3.3-14.2-4.9-21.7-4.6c-0.4-2.3-0.8-4.5-1.2-6.7C649.5,197.6,657.7,199.6,665.5,202.3z"/>
			<path class="st3" d="M601.9,214c7.5-6.2,16.1-10.7,25.4-13.4c0.6,2.4,1.2,4.8,1.8,7.2c-6.6,2.5-12.5,6.8-17.1,12.2
				c-13.5,16.6-24.8,34.8-35.9,53.1c-1.2-1.3-2.4-2.6-3.7-3.9c10.5-16.5,21.2-32.9,31.5-49.6c-6.3,5.3-11.2,12-16.2,18.4
				c-4.6,6.2-9.1,12.5-13.3,19c-1.7-1.5-3.3-3.1-4.8-4.8C579,238.4,588.8,224.5,601.9,214z"/>
			<path d="M601.9,214c7.5-6.2,16.1-10.7,25.4-13.4c0.6,2.4,1.2,4.8,1.8,7.2c-6.6,2.5-12.5,6.8-17.1,12.2
				c-13.5,16.6-24.8,34.8-35.9,53.1c-1.2-1.3-2.4-2.6-3.7-3.9c10.5-16.5,21.2-32.9,31.5-49.6c-6.3,5.3-11.2,12-16.2,18.4
				c-4.6,6.2-9.1,12.5-13.3,19c-1.7-1.5-3.3-3.1-4.8-4.8C579,238.4,588.8,224.5,601.9,214z"/>
			<path class="st1" d="M848.3,205c16.2,9.4,30.5,21.8,44.3,34.4c13.5,13.2,26.3,27.1,38.9,41.2c6.9,7.4,12.7,15.9,20.5,22.4
				c7.4,6.6,15.8,11.9,25,15.6c-17.7-2.1-32.1-14.3-43.3-27.4C907.8,260.1,879.2,231.3,848.3,205z"/>
			<path class="st2" d="M848.3,205c16.2,9.4,30.5,21.8,44.3,34.4c13.5,13.2,26.3,27.1,38.9,41.2c6.9,7.4,12.7,15.9,20.5,22.4
				c7.4,6.6,15.8,11.9,25,15.6c-17.7-2.1-32.1-14.3-43.3-27.4C907.8,260.1,879.2,231.3,848.3,205z"/>
			<path class="st3" d="M428.2,210.7c1.6,0.4,3.3,0.8,5,1.3c0.1,3.3,0.3,6.6,0.8,9.8c3-0.1,6.1-0.1,8.7,1.7
				c5.4,3.4,5.3,13.1-0.8,15.8c-5.3,2.4-13.2-0.1-14.5-6.2c-0.9-3.2,1-6.1,1.9-9C428.5,219.7,428.2,215.2,428.2,210.7z"/>
			<path d="M428.2,210.7c1.6,0.4,3.3,0.8,5,1.3c0.1,3.3,0.3,6.6,0.8,9.8c3-0.1,6.1-0.1,8.7,1.7c5.4,3.4,5.3,13.1-0.8,15.8
				c-5.3,2.4-13.2-0.1-14.5-6.2c-0.9-3.2,1-6.1,1.9-9C428.5,219.7,428.2,215.2,428.2,210.7z"/>
			<path class="st1" d="M797.9,211.7c12.4,7.8,22.1,19.1,30.6,30.9c13.8,19.4,24.7,40.7,39.6,59.3c9.4,11.2,18.6,22.7,29.8,32.2
				c13.9,12,29.4,22,44.8,32c-11.8-4.6-22.7-11.5-33.1-18.8c-31-21.6-54.5-52.2-73.5-84.4C825.7,244.3,813.5,226.3,797.9,211.7z"/>
			<path class="st2" d="M797.9,211.7c12.4,7.8,22.1,19.1,30.6,30.9c13.8,19.4,24.7,40.7,39.6,59.3c9.4,11.2,18.6,22.7,29.8,32.2
				c13.9,12,29.4,22,44.8,32c-11.8-4.6-22.7-11.5-33.1-18.8c-31-21.6-54.5-52.2-73.5-84.4C825.7,244.3,813.5,226.3,797.9,211.7z"/>
			<path class="st1" d="M244.9,231c3.7-4.9,7.8-9.4,12.4-13.4c-17.8,28.4-35.9,56.5-54.1,84.7c-10.3,15.6-22.7,29.8-36.8,42.1
				c-12.4,10.4-26.7,19.6-42.7,23c23.6-10,43.1-27.6,59.8-46.9c6.2-7.2,12-14.8,17.3-22.7C214.9,275.1,228.5,252.1,244.9,231z"/>
			<path class="st2" d="M244.9,231c3.7-4.9,7.8-9.4,12.4-13.4c-17.8,28.4-35.9,56.5-54.1,84.7c-10.3,15.6-22.7,29.8-36.8,42.1
				c-12.4,10.4-26.7,19.6-42.7,23c23.6-10,43.1-27.6,59.8-46.9c6.2-7.2,12-14.8,17.3-22.7C214.9,275.1,228.5,252.1,244.9,231z"/>
			<path class="st1" d="M178.2,238.2c6.2-6,11.9-12.5,18.8-17.7c-8.6,11.4-18,22.2-27.3,33.1c-11.6,13.5-24.4,25.7-37.6,37.6
				c-6.1,5.6-12.6,10.8-19.3,15.6c-2.8,1.8-5.7,3.8-9.1,4.1c9.7-6.5,18.2-14.5,26.5-22.7C146.6,272,162.1,254.8,178.2,238.2z"/>
			<path class="st2" d="M178.2,238.2c6.2-6,11.9-12.5,18.8-17.7c-8.6,11.4-18,22.2-27.3,33.1c-11.6,13.5-24.4,25.7-37.6,37.6
				c-6.1,5.6-12.6,10.8-19.3,15.6c-2.8,1.8-5.7,3.8-9.1,4.1c9.7-6.5,18.2-14.5,26.5-22.7C146.6,272,162.1,254.8,178.2,238.2z"/>
			<path class="st3" d="M526.2,230.1c2,0.2,3.3,2.4,4.9,3.5c-8.8,9.3-17.8,18.3-26.3,27.8c-1.6-2-3.7-3.7-4.8-6
				C508.3,246.5,517,238,526.2,230.1z"/>
			<path d="M526.2,230.1c2,0.2,3.3,2.4,4.9,3.5c-8.8,9.3-17.8,18.3-26.3,27.8c-1.6-2-3.7-3.7-4.8-6C508.3,246.5,517,238,526.2,230.1
				z"/>
			<path class="st3" d="M545.5,234.5c9.3,8.3,18.1,17.2,26.9,26c-1.2,1.6-2.4,3.3-3.6,4.9c-8.7-9.1-17.2-18.4-26.5-26.9
				C543.4,237.2,544.5,235.9,545.5,234.5z"/>
			<path d="M545.5,234.5c9.3,8.3,18.1,17.2,26.9,26c-1.2,1.6-2.4,3.3-3.6,4.9c-8.7-9.1-17.2-18.4-26.5-26.9
				C543.4,237.2,544.5,235.9,545.5,234.5z"/>
			<path class="st3" d="M529.2,240.6c1.3-1.5,2.6-3,4-4.5c8.8,8.2,17.2,16.9,25.6,25.5c-1.3,1.9-2.7,3.8-4,5.7
				C546.3,258.3,538,249.1,529.2,240.6z"/>
			<path d="M529.2,240.6c1.3-1.5,2.6-3,4-4.5c8.8,8.2,17.2,16.9,25.6,25.5c-1.3,1.9-2.7,3.8-4,5.7
				C546.3,258.3,538,249.1,529.2,240.6z"/>
			<path class="st3" d="M527.4,242.8l4.1,4c-8.9,11.1-17.7,22.3-27.1,33c-1.4-2.1-2.6-4.4-3.8-6.6
				C510.1,263.6,518.7,253.1,527.4,242.8z"/>
			<path d="M527.4,242.8l4.1,4c-8.9,11.1-17.7,22.3-27.1,33c-1.4-2.1-2.6-4.4-3.8-6.6C510.1,263.6,518.7,253.1,527.4,242.8z"/>
			<path class="st3" d="M226.4,327.4c17.4-24.5,32.6-50.5,47.4-76.7c12.2,5.1,23.8,11.9,33.1,21.3c7.6,7.7,13.6,17.9,13.6,29
				c0.4,10.3-4,20.2-9.8,28.5c-7.9,11.1-21,17.5-34.6,16.9c-5.7-0.4-11.6-1.9-15.8-5.9c-2.9-2.8-4.9-7.1-3.6-11.1
				c1.4-3.7,5.8-5,9.4-4.7c8.3,0.7,15.6,5.4,21.7,10.7c-1.5,0.5-2.9,1-4.4,1.5c-5-3.3-10.4-6.5-16.4-7.5c-2.3-0.5-5.7,0.7-5.5,3.5
				c1.2,3.7,4.8,5.9,8.3,7.2c8.3,3,17.9,0.5,24.6-5c5.9-5.3,10-12.4,13-19.7c4.4-10.9,4.9-23.9-0.8-34.4
				c-5.8-10.9-16.4-18-27.3-23.1c-12.4,35-29.1,69.3-54,97.2c-15.3,17.4-33.5,31.8-51.5,46.2l-2.5-2.6c25-19.1,46.8-42,64.7-67.9
				c11.4-16.7,21.7-34.4,29-53.3c-9,17.8-20,34.4-31.8,50.5c-18.8,25.2-39.5,49.4-64.5,68.5c-0.9-1-1.7-1.9-2.6-2.8
				C188.5,374,209.1,351.9,226.4,327.4z"/>
			<path d="M226.4,327.4c17.4-24.5,32.6-50.5,47.4-76.7c12.2,5.1,23.8,11.9,33.1,21.3c7.6,7.7,13.6,17.9,13.6,29
				c0.4,10.3-4,20.2-9.8,28.5c-7.9,11.1-21,17.5-34.6,16.9c-5.7-0.4-11.6-1.9-15.8-5.9c-2.9-2.8-4.9-7.1-3.6-11.1
				c1.4-3.7,5.8-5,9.4-4.7c8.3,0.7,15.6,5.4,21.7,10.7c-1.5,0.5-2.9,1-4.4,1.5c-5-3.3-10.4-6.5-16.4-7.5c-2.3-0.5-5.7,0.7-5.5,3.5
				c1.2,3.7,4.8,5.9,8.3,7.2c8.3,3,17.9,0.5,24.6-5c5.9-5.3,10-12.4,13-19.7c4.4-10.9,4.9-23.9-0.8-34.4
				c-5.8-10.9-16.4-18-27.3-23.1c-12.4,35-29.1,69.3-54,97.2c-15.3,17.4-33.5,31.8-51.5,46.2l-2.5-2.6c25-19.1,46.8-42,64.7-67.9
				c11.4-16.7,21.7-34.4,29-53.3c-9,17.8-20,34.4-31.8,50.5c-18.8,25.2-39.5,49.4-64.5,68.5c-0.9-1-1.7-1.9-2.6-2.8
				C188.5,374,209.1,351.9,226.4,327.4z"/>
			<path class="st3" d="M620.4,253c14.5,6.1,28.6,14.7,38.3,27.4c7.3,9.4,10.5,22.1,7.1,33.7c-3.5,12-10.8,23.6-22.1,29.8
				c-8.7,4.6-19.2,6.4-28.8,3.6c-4.3-1.4-8.6-3.8-10.8-7.9c-1.4-2.6-2.2-5.9-0.6-8.6c1.5-3,5.3-3.9,8.4-3.9
				c8.5,0.4,16,5.4,22.3,10.8l-4.3,1.5c-5.2-3.2-10.7-6.6-16.9-7.5c-2.1-0.3-5,0.8-5,3.2c0.6,3.7,4.2,5.9,7.4,7.3
				c10,4,22,0.1,28.7-8.1c8.5-10,13.8-23,13-36.2c-0.6-8.8-4.4-17.2-10.6-23.5c-5.8-6.1-13.1-10.6-20.8-14
				c-5.6,15.6-12.2,30.8-19.8,45.6c-1.5-1.4-2.9-2.8-4.4-4.2c3.7-7.5,7.7-15,10.3-22.9c-2.1,4.4-4.6,8.5-7.1,12.7
				c-1.4-1.6-2.7-3.2-3.9-4.9C607.7,275.6,614,264.3,620.4,253z"/>
			<path d="M620.4,253c14.5,6.1,28.6,14.7,38.3,27.4c7.3,9.4,10.5,22.1,7.1,33.7c-3.5,12-10.8,23.6-22.1,29.8
				c-8.7,4.6-19.2,6.4-28.8,3.6c-4.3-1.4-8.6-3.8-10.8-7.9c-1.4-2.6-2.2-5.9-0.6-8.6c1.5-3,5.3-3.9,8.4-3.9
				c8.5,0.4,16,5.4,22.3,10.8l-4.3,1.5c-5.2-3.2-10.7-6.6-16.9-7.5c-2.1-0.3-5,0.8-5,3.2c0.6,3.7,4.2,5.9,7.4,7.3
				c10,4,22,0.1,28.7-8.1c8.5-10,13.8-23,13-36.2c-0.6-8.8-4.4-17.2-10.6-23.5c-5.8-6.1-13.1-10.6-20.8-14
				c-5.6,15.6-12.2,30.8-19.8,45.6c-1.5-1.4-2.9-2.8-4.4-4.2c3.7-7.5,7.7-15,10.3-22.9c-2.1,4.4-4.6,8.5-7.1,12.7
				c-1.4-1.6-2.7-3.2-3.9-4.9C607.7,275.6,614,264.3,620.4,253z"/>
			<path class="st3" d="M366.5,262c-0.4-3.3,2.6-8.2,6.4-6c3.9,4.3,2,11.7,7.3,15.2c0.6-2.4,1.6-4.7,2.8-6.9c1.1,1.3,2.2,2.7,3.2,4
				c-1,10.9-1.8,22.5,2.7,32.8c3,6.9,10,10.8,17,12.7c0.3,3,0.7,5.9,0.9,8.9c-7.9-2-15.5-6-20.8-12.4c-6.9-8.1-9.3-19.2-8-29.5
				C372.1,276.3,366.9,269.6,366.5,262z"/>
			<path d="M366.5,262c-0.4-3.3,2.6-8.2,6.4-6c3.9,4.3,2,11.7,7.3,15.2c0.6-2.4,1.6-4.7,2.8-6.9c1.1,1.3,2.2,2.7,3.2,4
				c-1,10.9-1.8,22.5,2.7,32.8c3,6.9,10,10.8,17,12.7c0.3,3,0.7,5.9,0.9,8.9c-7.9-2-15.5-6-20.8-12.4c-6.9-8.1-9.3-19.2-8-29.5
				C372.1,276.3,366.9,269.6,366.5,262z"/>
			<path class="st3" d="M768.6,275.6c9-8.5,20.2-14.2,31.8-18.3c15.5,34.7,34.3,67.9,56.2,99.1c10.4,14.7,21.6,28.8,33.7,42.1
				c8.4,9.2,20.3,14.4,32.7,14.4c3.5-0.3,7.9-0.8,9.9-4.1c1.3-2.7-1.2-5.3-3.4-6.6c-5.3-3.2-11.7-3.9-17.6-2.1c-2.8,1-5.2,3-7.8,4.5
				c-1.8-1.2-3.6-2.4-5.3-3.7c5.7-5.7,14.3-7.5,22.1-6.6c5.2,0.5,10.8,2,14.3,6.2c2.9,3.4,2.9,8.3,0.2,11.7
				c-3.5,4.2-9.3,5.5-14.5,5.6c-9.9,0.1-19.3-3.4-28.1-7.7c-17.1-8.3-31.6-20.9-44.2-35c-12-13.9-22.3-29.1-30.7-45.4
				c-10.4-19.9-18.7-41.1-22.9-63.2c-11.3,4.3-21.7,12.7-26,24.2c-4,9.9-2.8,21-0.1,31.1c1.6,5.9,4.1,12,9.1,15.9
				c-1.1,2.5-2.2,5-3.3,7.5c-9.2-6.4-17-15.5-19.7-26.6C751.2,303.3,757.3,286.6,768.6,275.6z"/>
			<path d="M768.6,275.6c9-8.5,20.2-14.2,31.8-18.3c15.5,34.7,34.3,67.9,56.2,99.1c10.4,14.7,21.6,28.8,33.7,42.1
				c8.4,9.2,20.3,14.4,32.7,14.4c3.5-0.3,7.9-0.8,9.9-4.1c1.3-2.7-1.2-5.3-3.4-6.6c-5.3-3.2-11.7-3.9-17.6-2.1c-2.8,1-5.2,3-7.8,4.5
				c-1.8-1.2-3.6-2.4-5.3-3.7c5.7-5.7,14.3-7.5,22.1-6.6c5.2,0.5,10.8,2,14.3,6.2c2.9,3.4,2.9,8.3,0.2,11.7
				c-3.5,4.2-9.3,5.5-14.5,5.6c-9.9,0.1-19.3-3.4-28.1-7.7c-17.1-8.3-31.6-20.9-44.2-35c-12-13.9-22.3-29.1-30.7-45.4
				c-10.4-19.9-18.7-41.1-22.9-63.2c-11.3,4.3-21.7,12.7-26,24.2c-4,9.9-2.8,21-0.1,31.1c1.6,5.9,4.1,12,9.1,15.9
				c-1.1,2.5-2.2,5-3.3,7.5c-9.2-6.4-17-15.5-19.7-26.6C751.2,303.3,757.3,286.6,768.6,275.6z"/>
			<path class="st3" d="M421.5,280.5c9.1-9.3,21-15.4,33.2-19.5c5,11.8,10.9,23.2,16.7,34.6c-1.8,1.4-3.6,2.8-5.3,4.2
				c-2.8-5.2-5.1-10.7-7.8-15.9c-0.1,3.6,2.5,6.4,3.7,9.6c-1.8,1.1-3.6,2.3-5.4,3.3c-3-8.7-5.4-17.6-7.1-26.6
				c-11.3,4.3-21.5,12.6-26,24c-4,9.8-2.9,20.7-0.3,30.7c1.6,6.1,4.1,12.5,9.2,16.5c-1.1,2.5-2.2,5-3.2,7.5
				c-8.9-6.1-16.4-14.8-19.4-25.4C405.4,308.4,410.8,291.7,421.5,280.5z"/>
			<path d="M421.5,280.5c9.1-9.3,21-15.4,33.2-19.5c5,11.8,10.9,23.2,16.7,34.6c-1.8,1.4-3.6,2.8-5.3,4.2
				c-2.8-5.2-5.1-10.7-7.8-15.9c-0.1,3.6,2.5,6.4,3.7,9.6c-1.8,1.1-3.6,2.3-5.4,3.3c-3-8.7-5.4-17.6-7.1-26.6
				c-11.3,4.3-21.5,12.6-26,24c-4,9.8-2.9,20.7-0.3,30.7c1.6,6.1,4.1,12.5,9.2,16.5c-1.1,2.5-2.2,5-3.2,7.5
				c-8.9-6.1-16.4-14.8-19.4-25.4C405.4,308.4,410.8,291.7,421.5,280.5z"/>
			<path class="st3" d="M536.5,304.1c9.1-12.6,17.1-26,25.4-39.2c1.3,1.6,2.7,3.2,4,4.8c-8.6,12.9-15.6,26.8-25,39.1
				C539.4,307.3,538,305.7,536.5,304.1z"/>
			<path d="M536.5,304.1c9.1-12.6,17.1-26,25.4-39.2c1.3,1.6,2.7,3.2,4,4.8c-8.6,12.9-15.6,26.8-25,39.1
				C539.4,307.3,538,305.7,536.5,304.1z"/>
			<path class="st3" d="M472.3,288.2c6.5-6.9,12.1-14.6,18.3-21.8c1.2,2.1,2.4,4.2,3.6,6.3c-6.5,6.8-13,13.6-19.7,20.2
				C473.7,291.3,473,289.8,472.3,288.2z"/>
			<path d="M472.3,288.2c6.5-6.9,12.1-14.6,18.3-21.8c1.2,2.1,2.4,4.2,3.6,6.3c-6.5,6.8-13,13.6-19.7,20.2
				C473.7,291.3,473,289.8,472.3,288.2z"/>
			<path class="st3" d="M685.8,273.4c1-1.3,2-2.6,3-3.8c1.9,2.8,3,6,3.2,9.3c4.5-2,5.6-7.7,10.1-9.6c4.8-1.3,5.5,5.3,3.6,8.3
				c-3.1,4.5-8.6,6.5-13.6,8.3c-0.3,15.4-10.8,28.8-24.2,35.5c0.6-2.7,1.3-5.3,2-7.9C682.6,304.9,689.3,288.4,685.8,273.4z"/>
			<path d="M685.8,273.4c1-1.3,2-2.6,3-3.8c1.9,2.8,3,6,3.2,9.3c4.5-2,5.6-7.7,10.1-9.6c4.8-1.3,5.5,5.3,3.6,8.3
				c-3.1,4.5-8.6,6.5-13.6,8.3c-0.3,15.4-10.8,28.8-24.2,35.5c0.6-2.7,1.3-5.3,2-7.9C682.6,304.9,689.3,288.4,685.8,273.4z"/>
			<path class="st3" d="M581.6,270.5c7.4,7.7,14.3,16,21.4,24c-1,1.8-2.2,3.6-3.3,5.3c-7.3-7.9-14-16.3-21.4-24.2
				C579.5,273.9,580.5,272.2,581.6,270.5z"/>
			<path d="M581.6,270.5c7.4,7.7,14.3,16,21.4,24c-1,1.8-2.2,3.6-3.3,5.3c-7.3-7.9-14-16.3-21.4-24.2
				C579.5,273.9,580.5,272.2,581.6,270.5z"/>
			<path class="st3" d="M565.7,280c1.3-2.2,2.6-4.4,4-6.5c7,7.5,13.6,15.4,20.2,23.2c-1.3,1.7-2.5,3.4-3.7,5.1
				C578.7,295.1,572.4,287.3,565.7,280z"/>
			<path d="M565.7,280c1.3-2.2,2.6-4.4,4-6.5c7,7.5,13.6,15.4,20.2,23.2c-1.3,1.7-2.5,3.4-3.7,5.1
				C578.7,295.1,572.4,287.3,565.7,280z"/>
			<path class="st3" d="M492.5,281.1c1.4-1.3,2.9-2.6,4.4-3.9c8.1,12.8,17,25.1,26.8,36.6l-4.1,4.1
				C509.7,306.2,500,294.4,492.5,281.1z"/>
			<path d="M492.5,281.1c1.4-1.3,2.9-2.6,4.4-3.9c8.1,12.8,17,25.1,26.8,36.6l-4.1,4.1C509.7,306.2,500,294.4,492.5,281.1z"/>
			<path class="st3" d="M506.9,283.5c1.5-1.5,3-3,4.6-4.5c8.5,11.4,17.4,22.5,26.9,33.2c-1.7,2-3.4,4.1-4.9,6.3
				C523.7,307.5,514.5,296,506.9,283.5z"/>
			<path d="M506.9,283.5c1.5-1.5,3-3,4.6-4.5c8.5,11.4,17.4,22.5,26.9,33.2c-1.7,2-3.4,4.1-4.9,6.3
				C523.7,307.5,514.5,296,506.9,283.5z"/>
			<path class="st1" d="M803.1,280l1.4,1.5c9.5,20.2,20.4,39.8,32.6,58.5c13.3,20.4,27.6,40.2,45,57.3c-14.7-9.9-26.5-23.3-37-37.4
				c-16.7-22.5-28.8-47.9-39.2-73.7C805.7,283.7,803.7,282.2,803.1,280z"/>
			<path class="st2" d="M803.1,280l1.4,1.5c9.5,20.2,20.4,39.8,32.6,58.5c13.3,20.4,27.6,40.2,45,57.3c-14.7-9.9-26.5-23.3-37-37.4
				c-16.7-22.5-28.8-47.9-39.2-73.7C805.7,283.7,803.7,282.2,803.1,280z"/>
			<path class="st3" d="M467.7,303.2c7.6-6.2,14.8-12.8,22-19.4c1.3,2.3,2.8,4.5,4.4,6.7c-7,7-14.7,13.3-23,18.7
				C469.9,307.2,468.8,305.2,467.7,303.2z"/>
			<path d="M467.7,303.2c7.6-6.2,14.8-12.8,22-19.4c1.3,2.3,2.8,4.5,4.4,6.7c-7,7-14.7,13.3-23,18.7
				C469.9,307.2,468.8,305.2,467.7,303.2z"/>
			<path class="st3" d="M536.5,322.3c10.2-12.3,18.6-25.8,27.3-39.1c1.3,1.4,2.7,2.7,4,4c-8.2,13.7-16.7,27.3-26.6,39.8
				C539.7,325.4,538.1,323.9,536.5,322.3z"/>
			<path d="M536.5,322.3c10.2-12.3,18.6-25.8,27.3-39.1c1.3,1.4,2.7,2.7,4,4c-8.2,13.7-16.7,27.3-26.6,39.8
				C539.7,325.4,538.1,323.9,536.5,322.3z"/>
			<path class="st3" d="M425.3,315.7c14.3-1.6,27.1-9.4,37.8-18.6c0.7,1.5,1.4,3,2.1,4.5c-4.9,4.1-9.6,8.3-15.1,11.5
				c2.9,0.1,5.4-1.3,7.7-2.7c0.6,1.7,1.3,3.4,2,5.1c-9.9,4.9-20.7,7.9-31.8,8.6C426.8,321.4,425.9,318.6,425.3,315.7z"/>
			<path d="M425.3,315.7c14.3-1.6,27.1-9.4,37.8-18.6c0.7,1.5,1.4,3,2.1,4.5c-4.9,4.1-9.6,8.3-15.1,11.5c2.9,0.1,5.4-1.3,7.7-2.7
				c0.6,1.7,1.3,3.4,2,5.1c-9.9,4.9-20.7,7.9-31.8,8.6C426.8,321.4,425.9,318.6,425.3,315.7z"/>
			<path class="st3" d="M592.6,299.8c1.5,1.5,3,2.9,4.5,4.3c-7.7,12.6-16.3,24.5-25.2,36.2c-1.5-1.1-3-2.2-4.4-3.4
				C576.5,325,584.8,312.5,592.6,299.8z"/>
			<path d="M592.6,299.8c1.5,1.5,3,2.9,4.5,4.3c-7.7,12.6-16.3,24.5-25.2,36.2c-1.5-1.1-3-2.2-4.4-3.4
				C576.5,325,584.8,312.5,592.6,299.8z"/>
			<path class="st3" d="M460.7,308.1c2-1.2,3.9-2.4,5.8-3.8c6.3,14.6,13.5,28.7,21.7,42.3c-1.9,1.4-3.8,2.8-5.7,4.3
				C473.8,337.4,466.5,323.1,460.7,308.1z"/>
			<path d="M460.7,308.1c2-1.2,3.9-2.4,5.8-3.8c6.3,14.6,13.5,28.7,21.7,42.3c-1.9,1.4-3.8,2.8-5.7,4.3
				C473.8,337.4,466.5,323.1,460.7,308.1z"/>
			<path class="st3" d="M608.4,308.1l2.4-4.1c9.5,10.2,23,17,37.1,16.9c-1,2.1-2,4.1-3.1,6.2c-17.5,1-34.8-4.9-48.2-16.3
				c0.9-1.5,1.8-3.1,2.7-4.6c9,7.9,19.9,14.8,32.1,15.7C623,318.8,615.3,313.8,608.4,308.1z"/>
			<path d="M608.4,308.1l2.4-4.1c9.5,10.2,23,17,37.1,16.9c-1,2.1-2,4.1-3.1,6.2c-17.5,1-34.8-4.9-48.2-16.3
				c0.9-1.5,1.8-3.1,2.7-4.6c9,7.9,19.9,14.8,32.1,15.7C623,318.8,615.3,313.8,608.4,308.1z"/>
			<path class="st3" d="M473,311.8c1.7-1.1,3.4-2.2,5.1-3.3c7.9,13.9,16.2,27.6,25.2,40.9l-5,3.8C489.2,339.8,480.8,326,473,311.8z"
				/>
			<path d="M473,311.8c1.7-1.1,3.4-2.2,5.1-3.3c7.9,13.9,16.2,27.6,25.2,40.9l-5,3.8C489.2,339.8,480.8,326,473,311.8z"/>
			<path class="st3" d="M595.1,313.7c1.7,1.3,3.5,2.5,5.3,3.8c-7.4,13.3-16.2,25.8-26.1,37.4c-1.7-1.3-3.3-2.6-5-3.9
				C578.8,339.2,587.4,326.7,595.1,313.7z"/>
			<path d="M595.1,313.7c1.7,1.3,3.5,2.5,5.3,3.8c-7.4,13.3-16.2,25.8-26.1,37.4c-1.7-1.3-3.3-2.6-5-3.9
				C578.8,339.2,587.4,326.7,595.1,313.7z"/>
			<path class="st3" d="M502.7,341.6c8.7-7.4,16.6-15.5,23.8-24.3c1.5,1.5,2.9,3.1,4.2,4.8c-7.4,8.9-15.6,17.2-24.3,24.8
				C505,345.2,503.8,343.5,502.7,341.6z"/>
			<path d="M502.7,341.6c8.7-7.4,16.6-15.5,23.8-24.3c1.5,1.5,2.9,3.1,4.2,4.8c-7.4,8.9-15.6,17.2-24.3,24.8
				C505,345.2,503.8,343.5,502.7,341.6z"/>
			<path class="st3" d="M670.7,323.8c1.8-0.9,3.6-1.8,5.4-2.7c1.4,9.3,1.4,18.8,0.2,28.1c5.4-3.6,9.8-8.7,15.8-11.4
				c2.4-1.1,6.3-1.5,7.4,1.6c1.4,4.5-2.4,9.1-6.4,10.7c-6.4,2.5-13,4.5-19.3,7.2c-5.4,11.2-15,19.8-26.7,24c0-2.1,0.2-4.2,0.3-6.3
				c10.6-4.4,20.2-13,22.8-24.5C672,341.7,671.8,332.6,670.7,323.8z"/>
			<path d="M670.7,323.8c1.8-0.9,3.6-1.8,5.4-2.7c1.4,9.3,1.4,18.8,0.2,28.1c5.4-3.6,9.8-8.7,15.8-11.4c2.4-1.1,6.3-1.5,7.4,1.6
				c1.4,4.5-2.4,9.1-6.4,10.7c-6.4,2.5-13,4.5-19.3,7.2c-5.4,11.2-15,19.8-26.7,24c0-2.1,0.2-4.2,0.3-6.3
				c10.6-4.4,20.2-13,22.8-24.5C672,341.7,671.8,332.6,670.7,323.8z"/>
			<path class="st3" d="M395.9,322.3l5.3,2.2c-0.8,9,0.8,18.6,6.2,26.1c6.1,8.8,16.3,14,26.6,16.1c10,1.9,20.3,1.3,30-1.6
				c9.8-2.8,18.5-8.5,27-14c1.1,1.7,2.3,3.4,3.5,5.1c-7.7,5.5-16,10.1-24.7,13.8c6.4-1.2,12.6-3.3,18.4-6.2c1.3,1.8,2.5,3.5,3.8,5.2
				c-17.8,8.5-38.7,9.8-57.8,5.2c-11.7-3-23.5-8.3-31-18.1c-2.3-2.7-3.2-6.2-4.8-9.3c-3.5-2.4-8.1-2-11.8-4.2
				c-3-1.6-6.6-3.7-6.7-7.5c0.3-4,5.5-5.1,8.4-3.1s5.1,4.5,8.3,6C395.7,332.7,395.6,327.5,395.9,322.3z"/>
			<path d="M395.9,322.3l5.3,2.2c-0.8,9,0.8,18.6,6.2,26.1c6.1,8.8,16.3,14,26.6,16.1c10,1.9,20.3,1.3,30-1.6
				c9.8-2.8,18.5-8.5,27-14c1.1,1.7,2.3,3.4,3.5,5.1c-7.7,5.5-16,10.1-24.7,13.8c6.4-1.2,12.6-3.3,18.4-6.2c1.3,1.8,2.5,3.5,3.8,5.2
				c-17.8,8.5-38.7,9.8-57.8,5.2c-11.7-3-23.5-8.3-31-18.1c-2.3-2.7-3.2-6.2-4.8-9.3c-3.5-2.4-8.1-2-11.8-4.2
				c-3-1.6-6.6-3.7-6.7-7.5c0.3-4,5.5-5.1,8.4-3.1s5.1,4.5,8.3,6C395.7,332.7,395.6,327.5,395.9,322.3z"/>
			<path class="st3" d="M793.1,326.1c4.7-2.5,10.6-4.5,15.7-1.9c5.8,3,6.6,11.9,1.8,16.1c-5.5,5.1-13.4,6.5-20.7,6.7
				c0.3-1.9,0.5-3.8,1-5.6c4.9-0.4,10.3-0.2,14.6-3.1c2.7-1.7,4-5.8,1.9-8.5c-1.9-2.3-5.3-2.2-7.8-1.3c-5.5,2-9.5,6.9-11.8,12.1
				c-2.6,6.1-3.8,12.7-3.6,19.4c0,16.2,4.1,32.9,14,46c10,13.8,25.6,24.3,42.9,24.9c17,0.6,32.7-8.4,44.8-19.7
				c2.5,1.2,4.9,2.3,7.4,3.6c-9.2,10.2-20.6,18.7-33.6,23.5c0.6,3.3,1.1,6.7,0.2,9.9c-1.6,3.9-4,7.6-7.7,9.8
				c-2.2,1.4-5.4,1.5-7.4-0.3c-1.8-2.1-1.2-5.5,0.7-7.4c2.8-3.1,6.7-5.9,6.9-10.5c-13.3,2.8-28,2.1-39.6-5.8
				c-5.2,5.9-12.7,10-20.6,10.3c-1.7,0.1-3.9-0.4-4.3-2.3c0.3-3.7,3.6-6.1,6.7-7.4c4.4-1.9,10.2,0.5,13.7-3.5
				c-12.2-8.1-21.8-19.7-27.4-33.3c-6.9,0.4-14.7-1.8-18.5-8c-1.7-2.9-3.3-6.7-1.6-9.9c1-1.5,2.9-1.3,4.5-1.1
				c6.1,1.6,7.4,10.2,14.1,10.6c-2.9-13.6-4.2-27.9-1.1-41.5C780,339.1,784.9,330.4,793.1,326.1z"/>
			<path d="M793.1,326.1c4.7-2.5,10.6-4.5,15.7-1.9c5.8,3,6.6,11.9,1.8,16.1c-5.5,5.1-13.4,6.5-20.7,6.7c0.3-1.9,0.5-3.8,1-5.6
				c4.9-0.4,10.3-0.2,14.6-3.1c2.7-1.7,4-5.8,1.9-8.5c-1.9-2.3-5.3-2.2-7.8-1.3c-5.5,2-9.5,6.9-11.8,12.1
				c-2.6,6.1-3.8,12.7-3.6,19.4c0,16.2,4.1,32.9,14,46c10,13.8,25.6,24.3,42.9,24.9c17,0.6,32.7-8.4,44.8-19.7
				c2.5,1.2,4.9,2.3,7.4,3.6c-9.2,10.2-20.6,18.7-33.6,23.5c0.6,3.3,1.1,6.7,0.2,9.9c-1.6,3.9-4,7.6-7.7,9.8
				c-2.2,1.4-5.4,1.5-7.4-0.3c-1.8-2.1-1.2-5.5,0.7-7.4c2.8-3.1,6.7-5.9,6.9-10.5c-13.3,2.8-28,2.1-39.6-5.8
				c-5.2,5.9-12.7,10-20.6,10.3c-1.7,0.1-3.9-0.4-4.3-2.3c0.3-3.7,3.6-6.1,6.7-7.4c4.4-1.9,10.2,0.5,13.7-3.5
				c-12.2-8.1-21.8-19.7-27.4-33.3c-6.9,0.4-14.7-1.8-18.5-8c-1.7-2.9-3.3-6.7-1.6-9.9c1-1.5,2.9-1.3,4.5-1.1
				c6.1,1.6,7.4,10.2,14.1,10.6c-2.9-13.6-4.2-27.9-1.1-41.5C780,339.1,784.9,330.4,793.1,326.1z"/>
			<path class="st3" d="M533.8,325.5c6.8,7,14.1,13.4,21.9,19.3c-1.2,1.6-2.4,3.1-3.7,4.7c-7.7-6-14.9-12.6-21.6-19.7
				C531.6,328.4,532.7,326.9,533.8,325.5z"/>
			<path d="M533.8,325.5c6.8,7,14.1,13.4,21.9,19.3c-1.2,1.6-2.4,3.1-3.7,4.7c-7.7-6-14.9-12.6-21.6-19.7
				C531.6,328.4,532.7,326.9,533.8,325.5z"/>
			<path class="st3" d="M544.2,330.3c1.8-2.1,3.5-4.2,5-6.4c6.5,6.8,13.3,13.3,20.5,19.4c-1.4,1.6-2.7,3.3-4.1,4.9
				C558,342.7,550.9,336.8,544.2,330.3z"/>
			<path d="M544.2,330.3c1.8-2.1,3.5-4.2,5-6.4c6.5,6.8,13.3,13.3,20.5,19.4c-1.4,1.6-2.7,3.3-4.1,4.9
				C558,342.7,550.9,336.8,544.2,330.3z"/>
			<path class="st3" d="M444.4,331.4c5-3.4,11.4-6.3,17.5-4.2c6.4,2.2,7.9,11.3,3.5,16.1c-5.4,5.7-13.8,7-21.2,7.4
				c0.3-2,0.6-3.9,0.9-5.9c5-0.1,10.5-0.2,14.8-3c2.9-1.8,3.9-6.4,1.3-8.9c-1.5-1.6-4-1.6-6-1.2c-5.1,1.2-9.1,5.1-11.7,9.5
				c-3.8,6.5-5,14.3-5.2,21.7l-7.5-1.7C431.6,350.1,435,338.1,444.4,331.4z"/>
			<path d="M444.4,331.4c5-3.4,11.4-6.3,17.5-4.2c6.4,2.2,7.9,11.3,3.5,16.1c-5.4,5.7-13.8,7-21.2,7.4c0.3-2,0.6-3.9,0.9-5.9
				c5-0.1,10.5-0.2,14.8-3c2.9-1.8,3.9-6.4,1.3-8.9c-1.5-1.6-4-1.6-6-1.2c-5.1,1.2-9.1,5.1-11.7,9.5c-3.8,6.5-5,14.3-5.2,21.7
				l-7.5-1.7C431.6,350.1,435,338.1,444.4,331.4z"/>
			<path class="st3" d="M504.3,354.2c8.7-6.6,16.7-14,24-22.2c1.6,1.5,3.1,3.1,4.5,4.7c-8.6,9.5-18.2,17.9-28.6,25.2
				c-1.3-1.8-2.6-3.6-3.8-5.5C501.7,355.8,503.1,355.1,504.3,354.2z"/>
			<path d="M504.3,354.2c8.7-6.6,16.7-14,24-22.2c1.6,1.5,3.1,3.1,4.5,4.7c-8.6,9.5-18.2,17.9-28.6,25.2c-1.3-1.8-2.6-3.6-3.8-5.5
				C501.7,355.8,503.1,355.1,504.3,354.2z"/>
			<path class="st3" d="M529.3,380.6c10.6-10.6,20.7-21.7,30.1-33.3c1.4,1.1,2.9,2.2,4.3,3.4c-9.7,11.8-20,23.1-31.1,33.6
				C531.6,383.1,530.5,381.8,529.3,380.6z"/>
			<path d="M529.3,380.6c10.6-10.6,20.7-21.7,30.1-33.3c1.4,1.1,2.9,2.2,4.3,3.4c-9.7,11.8-20,23.1-31.1,33.6
				C531.6,383.1,530.5,381.8,529.3,380.6z"/>
			<path class="st3" d="M287.8,350.4c2.4-0.7,4.7-1.4,7.1-2c4.1,16,2.5,33.8-5.4,48.4c5.5,0.5,10.1-3.1,14-6.4
				c3.1-2.8,7.8-4.5,11.7-2.5c1.7,0.8,2.4,2.9,1.6,4.5c0,0.1-0.1,0.1-0.1,0.2c-1.8,3.1-5.3,4.4-8.5,5.6c-6.5,2.3-13.7,4.3-20.5,2.1
				c-5.5,10-12.6,19.1-20.3,27.5c5.2,1.7,11.8-0.6,15.9,4c2.1,1.9,1.9,6.2-1.2,7c-7.5,2-16.9,0.4-21.5-6.4
				c-11.4,7.4-25.6,9.4-38.9,7.3c1.8,4.3,5.5,7.8,6.9,12.3c0.8,3.2-3,4.4-5.3,3c-6.3-2.9-9.8-9.8-10.5-16.5
				c-8.7-1.1-16.4-5.8-23.1-11c-9.5-7.4-18.1-16-27.1-24.1c-5.4-5-13.3-6.8-20.5-5.6c-2.5,0.4-5.3,1.1-6.8,3.4
				c-0.3,2.1,2.1,3,3.6,3.8c6,2.3,12.5,0,17.9-2.7c1.9,1.9,3.8,3.7,5.6,5.6c-6.9,4.1-15.5,4.1-23.4,3.1c-3.8-0.8-8.5-2-10.1-6
				c-1.4-4.3,1.6-8.9,5.5-10.7c6.4-3.2,14.1-2.5,20.7-0.4c6.7,2.2,12.9,6,17.9,11.1c12.8,12.2,29.1,21.3,46.9,22.9
				c18.4,1.6,36.5-5.1,49.3-18.4C284.5,394.1,290.8,371.5,287.8,350.4z"/>
			<path d="M287.8,350.4c2.4-0.7,4.7-1.4,7.1-2c4.1,16,2.5,33.8-5.4,48.4c5.5,0.5,10.1-3.1,14-6.4c3.1-2.8,7.8-4.5,11.7-2.5
				c1.7,0.8,2.4,2.9,1.6,4.5c0,0.1-0.1,0.1-0.1,0.2c-1.8,3.1-5.3,4.4-8.5,5.6c-6.5,2.3-13.7,4.3-20.5,2.1
				c-5.5,10-12.6,19.1-20.3,27.5c5.2,1.7,11.8-0.6,15.9,4c2.1,1.9,1.9,6.2-1.2,7c-7.5,2-16.9,0.4-21.5-6.4
				c-11.4,7.4-25.6,9.4-38.9,7.3c1.8,4.3,5.5,7.8,6.9,12.3c0.8,3.2-3,4.4-5.3,3c-6.3-2.9-9.8-9.8-10.5-16.5
				c-8.7-1.1-16.4-5.8-23.1-11c-9.5-7.4-18.1-16-27.1-24.1c-5.4-5-13.3-6.8-20.5-5.6c-2.5,0.4-5.3,1.1-6.8,3.4
				c-0.3,2.1,2.1,3,3.6,3.8c6,2.3,12.5,0,17.9-2.7c1.9,1.9,3.8,3.7,5.6,5.6c-6.9,4.1-15.5,4.1-23.4,3.1c-3.8-0.8-8.5-2-10.1-6
				c-1.4-4.3,1.6-8.9,5.5-10.7c6.4-3.2,14.1-2.5,20.7-0.4c6.7,2.2,12.9,6,17.9,11.1c12.8,12.2,29.1,21.3,46.9,22.9
				c18.4,1.6,36.5-5.1,49.3-18.4C284.5,394.1,290.8,371.5,287.8,350.4z"/>
			<path class="st3" d="M634.4,352.7l7-2.1c2.3,6.9,2.3,14.3,2.1,21.5c-0.6,9.3-2.7,18.7-7.4,26.8c6,1.1,10.7-3.6,15-7
				c3.2-2.6,8.8-4,12-0.7c2.2,3.6-2,6.6-4.9,7.9c-7.4,3-15.8,5.9-23.8,3.5c-5.7,10-12.6,19.2-20.6,27.4c4.9,1.9,10.7-0.1,15,3.2
				c1.8,1.4,3.5,4.3,1.7,6.4c-2.4,2.6-6.4,2.1-9.6,2.1c-5.4-0.1-10.5-2.7-13.8-7c-11.4,7.3-25.6,9.3-38.9,7.3
				c1.9,4.1,5.3,7.5,6.8,11.9c0.6,1.6-0.2,3.3-1.8,3.9c-0.7,0.3-1.5,0.3-2.2,0c-7-2.3-11-9.8-11.7-16.9c-6.4-0.9-12.3-3.8-17.8-7.2
				c2.3-2.6,4.7-5.1,7-7.7c12.8,4.8,27.2,5.9,40.4,2c18.6-5.3,33.9-19.9,40.9-37.8C634.8,378.3,636,365.3,634.4,352.7z"/>
			<path d="M634.4,352.7l7-2.1c2.3,6.9,2.3,14.3,2.1,21.5c-0.6,9.3-2.7,18.7-7.4,26.8c6,1.1,10.7-3.6,15-7c3.2-2.6,8.8-4,12-0.7
				c2.2,3.6-2,6.6-4.9,7.9c-7.4,3-15.8,5.9-23.8,3.5c-5.7,10-12.6,19.2-20.6,27.4c4.9,1.9,10.7-0.1,15,3.2c1.8,1.4,3.5,4.3,1.7,6.4
				c-2.4,2.6-6.4,2.1-9.6,2.1c-5.4-0.1-10.5-2.7-13.8-7c-11.4,7.3-25.6,9.3-38.9,7.3c1.9,4.1,5.3,7.5,6.8,11.9
				c0.6,1.6-0.2,3.3-1.8,3.9c-0.7,0.3-1.5,0.3-2.2,0c-7-2.3-11-9.8-11.7-16.9c-6.4-0.9-12.3-3.8-17.8-7.2c2.3-2.6,4.7-5.1,7-7.7
				c12.8,4.8,27.2,5.9,40.4,2c18.6-5.3,33.9-19.9,40.9-37.8C634.8,378.3,636,365.3,634.4,352.7z"/>
			<path class="st3" d="M577,356.5c1.3-1.4,2.7-2.8,4-4.3c14.5,10.7,30.5,20,48.1,24c-1.1,2.5-2.1,5.1-3.1,7.6
				c-15.2-1-29.3-7.2-42.7-14c-6.8-3.6-13.5-7.5-19.9-11.8c1.3-1.5,2.5-2.9,3.8-4.4c9.6,6.2,19.4,12.3,30.2,16.3
				C590.6,365.4,583.6,361.1,577,356.5z"/>
			<path d="M577,356.5c1.3-1.4,2.7-2.8,4-4.3c14.5,10.7,30.5,20,48.1,24c-1.1,2.5-2.1,5.1-3.1,7.6c-15.2-1-29.3-7.2-42.7-14
				c-6.8-3.6-13.5-7.5-19.9-11.8c1.3-1.5,2.5-2.9,3.8-4.4c9.6,6.2,19.4,12.3,30.2,16.3C590.6,365.4,583.6,361.1,577,356.5z"/>
			<path class="st3" d="M490.1,362.4c1.9-1.3,3.9-2.7,5.9-4c6.7,9.8,14.3,18.9,22.6,27.4c-1.7,1.3-3.4,2.5-5.1,3.8
				C504.9,381.3,497.1,372.2,490.1,362.4z"/>
			<path d="M490.1,362.4c1.9-1.3,3.9-2.7,5.9-4c6.7,9.8,14.3,18.9,22.6,27.4c-1.7,1.3-3.4,2.5-5.1,3.8
				C504.9,381.3,497.1,372.2,490.1,362.4z"/>
			<path class="st3" d="M528.5,392.6c11.9-10,23-20.9,33.3-32.6c1.5,1.1,3,2.3,4.5,3.4c-10.8,11.6-23.1,21.7-35.3,31.7L528.5,392.6z
				"/>
			<path d="M528.5,392.6c11.9-10,23-20.9,33.3-32.6c1.5,1.1,3,2.3,4.5,3.4c-10.8,11.6-23.1,21.7-35.3,31.7L528.5,392.6z"/>
			<path class="st3" d="M506.2,364.6l5.4-3.1c6.3,8.4,12.6,16.9,19.4,25c-1.5,1.3-3,2.5-4.5,3.7C519.2,382,512.5,373.5,506.2,364.6z
				"/>
			<path d="M506.2,364.6l5.4-3.1c6.3,8.4,12.6,16.9,19.4,25c-1.5,1.3-3,2.5-4.5,3.7C519.2,382,512.5,373.5,506.2,364.6z"/>
			<path class="st3" d="M430.9,376.9c2.9,0.7,5.8,1.4,8.7,2.2c2.9,18.3,12.9,34.6,27.9,45.5c10.5,7.5,23.8,11.4,36.6,9.2
				c13.7-2.1,25.8-9.8,35.7-19.2c2.5,1.1,5,2.3,7.4,3.6c-9.2,10.2-20.6,18.6-33.6,23.4c0.5,3.3,1.1,6.8,0.1,10.1
				c-1.4,3.6-3.8,6.8-6.9,9.2c-2.3,1.6-5.8,2.3-8,0.2c-2.2-2.4-1.1-6.2,1.2-8.1c2.5-2.9,6.6-5.7,6-10c-13.2,3.2-27.8,2-39.3-5.6
				c-5,5.8-12,9.5-19.6,10.3c-1.9,0.1-4.1,0.1-5.1-1.7c-0.2-4.3,4-7,7.5-8.3c4.1-1.3,9.7,0.7,12.6-3.3
				c-12.1-8.1-21.6-19.6-27.2-33.1c-6,0.2-12.6-1.1-16.8-5.7c-3-3.3-5.3-8.3-3.4-12.6c1.3-0.4,2.7-1.3,4.1-0.7
				c6.4,1.4,7.7,10,14.4,10.9C432.2,387.7,431.4,382.3,430.9,376.9z"/>
			<path d="M430.9,376.9c2.9,0.7,5.8,1.4,8.7,2.2c2.9,18.3,12.9,34.6,27.9,45.5c10.5,7.5,23.8,11.4,36.6,9.2
				c13.7-2.1,25.8-9.8,35.7-19.2c2.5,1.1,5,2.3,7.4,3.6c-9.2,10.2-20.6,18.6-33.6,23.4c0.5,3.3,1.1,6.8,0.1,10.1
				c-1.4,3.6-3.8,6.8-6.9,9.2c-2.3,1.6-5.8,2.3-8,0.2c-2.2-2.4-1.1-6.2,1.2-8.1c2.5-2.9,6.6-5.7,6-10c-13.2,3.2-27.8,2-39.3-5.6
				c-5,5.8-12,9.5-19.6,10.3c-1.9,0.1-4.1,0.1-5.1-1.7c-0.2-4.3,4-7,7.5-8.3c4.1-1.3,9.7,0.7,12.6-3.3
				c-12.1-8.1-21.6-19.6-27.2-33.1c-6,0.2-12.6-1.1-16.8-5.7c-3-3.3-5.3-8.3-3.4-12.6c1.3-0.4,2.7-1.3,4.1-0.7
				c6.4,1.4,7.7,10,14.4,10.9C432.2,387.7,431.4,382.3,430.9,376.9z"/>
			<path class="st3" d="M512.7,396.5c2.8-2.8,5.7-5.4,8.6-8c1.1,1.1,2.2,2.1,3.4,3.2c-3,2.5-6,5-9.2,7.4L512.7,396.5z"/>
			<path d="M512.7,396.5c2.8-2.8,5.7-5.4,8.6-8c1.1,1.1,2.2,2.1,3.4,3.2c-3,2.5-6,5-9.2,7.4L512.7,396.5z"/>
			<path class="st3" d="M522.6,397.7c1.5-1.4,3-2.7,4.4-4.2c3.2,2.7,6.6,5.2,10.1,7.4c-1.6-1.4-3.1-2.8-4.6-4.3
				c1.4-1.1,2.8-2.3,4.3-3.3c4.8,5.3,9.2,11.3,15.3,15.3c7.6,5.2,16.6,8,25.8,7.8c3.7-0.4,8.7-1.2,9.8-5.4c-0.2-3-2.9-4.9-5.3-6.1
				c-5.7-2.6-12.8-3.3-18.5-0.1c-1.9,1-3.6,2.2-5.5,3.3c-1.7-1.2-3.4-2.5-5.1-3.7c5.2-5.2,12.7-7.1,19.8-6.7
				c5.8,0.3,12.1,1.5,16.3,6c3,3.2,3.4,8,0.9,11.5c-2.8,3.9-7.7,5.5-12.2,5.9c-11.8,1-23.1-3.5-33.4-8.8
				C536.8,408.3,529.4,403.4,522.6,397.7z"/>
			<path d="M522.6,397.7c1.5-1.4,3-2.7,4.4-4.2c3.2,2.7,6.6,5.2,10.1,7.4c-1.6-1.4-3.1-2.8-4.6-4.3c1.4-1.1,2.8-2.3,4.3-3.3
				c4.8,5.3,9.2,11.3,15.3,15.3c7.6,5.2,16.6,8,25.8,7.8c3.7-0.4,8.7-1.2,9.8-5.4c-0.2-3-2.9-4.9-5.3-6.1
				c-5.7-2.6-12.8-3.3-18.5-0.1c-1.9,1-3.6,2.2-5.5,3.3c-1.7-1.2-3.4-2.5-5.1-3.7c5.2-5.2,12.7-7.1,19.8-6.7
				c5.8,0.3,12.1,1.5,16.3,6c3,3.2,3.4,8,0.9,11.5c-2.8,3.9-7.7,5.5-12.2,5.9c-11.8,1-23.1-3.5-33.4-8.8
				C536.8,408.3,529.4,403.4,522.6,397.7z"/>
			<path class="st3" d="M477.3,399.4c3.2-3.5,8.1-4.9,12.6-4.9c10.5-0.5,20.5,4.4,28.1,11.3c4,3.9,8.3,7.4,12.8,10.6
				c-2,1.3-4,2.5-6,3.7c-5.5-4.9-10.7-10-16.2-14.8s-13.5-6.4-20.7-5.1c-2.6,0.3-5,1.7-6.7,3.8c5.4,7,15.5,4.1,22.1,0.6
				c1.8,1.9,3.7,3.7,5.6,5.5c-5.2,3.7-11.9,3.9-18,3.8c-4.8-0.2-9.9-0.9-13.7-4C474.2,407.1,474.8,402.2,477.3,399.4z"/>
			<path d="M477.3,399.4c3.2-3.5,8.1-4.9,12.6-4.9c10.5-0.5,20.5,4.4,28.1,11.3c4,3.9,8.3,7.4,12.8,10.6c-2,1.3-4,2.5-6,3.7
				c-5.5-4.9-10.7-10-16.2-14.8s-13.5-6.4-20.7-5.1c-2.6,0.3-5,1.7-6.7,3.8c5.4,7,15.5,4.1,22.1,0.6c1.8,1.9,3.7,3.7,5.6,5.5
				c-5.2,3.7-11.9,3.9-18,3.8c-4.8-0.2-9.9-0.9-13.7-4C474.2,407.1,474.8,402.2,477.3,399.4z"/>
			<path class="st3" d="M517.8,401.2l3.1-2.5l2.7,2.2l-3.3,2.8L517.8,401.2z"/>
			<path d="M517.8,401.2l3.1-2.5l2.7,2.2l-3.3,2.8L517.8,401.2z"/>
		</g>
	</g>
</g>
</svg>
